<svg id="&#x421;&#x43B;&#x43E;&#x439;_1" enable-background="new 0 0 160 160" viewBox="0 0 160 160" xmlns="http://www.w3.org/2000/svg"><g fill="rgb(0,0,0)"><path d="m119 62.965c0-10.489-6.024-21.439-11.078-28.778-2.98-4.329-5.824-7.72-7.684-9.804-3.913-4.383-4.468-4.383-5.238-4.383s-1.325 0-5.239 4.383c-1.86 2.083-4.703 5.475-7.684 9.804-5.053 7.339-11.077 18.29-11.077 28.778 0 13.253 10.766 24.035 24 24.035s24-10.782 24-24.035zm-44 0c0-15.754 15.641-33.927 20-38.318 4.359 4.391 20 22.564 20 38.318 0 11.048-8.972 20.035-20 20.035s-20-8.987-20-20.035z"/><path d="m97 76c0-1.104-.896-2-2-2-6.065 0-11-4.95-11-11.035 0-3.813 1.38-8.423 4.103-13.701.506-.982.121-2.188-.86-2.694s-2.188-.122-2.694.861c-3.019 5.85-4.549 11.076-4.549 15.534 0 8.29 6.729 15.035 15 15.035 1.104 0 2-.896 2-2z"/><path d="m141.15 136.856c-4.11 1.93-9.116 1.194-12.173-1.788-5.556-5.418-14.944-5.419-20.508.005-3.971 3.873-10.941 3.874-14.926-.011-5.556-5.416-14.944-5.415-20.51.012-3.972 3.873-10.94 3.873-14.935-.019-.235-.229-.477-.448-.726-.658-.844-.712-2.106-.604-2.818.24s-.604 2.106.24 2.818c.176.148.347.304.535.486 2.775 2.707 6.507 4.059 10.241 4.059 3.739 0 7.481-1.356 10.266-4.071 3.971-3.873 10.941-3.874 14.926.011 2.779 2.708 6.501 4.062 10.238 4.061s7.487-1.357 10.267-4.068c3.974-3.874 10.944-3.874 14.917.001 4.226 4.122 11.078 5.167 16.666 2.544.743-.349 1.15-.477 1.15-1.868 0-.609-.069-.536-.189-.793-.47-1-1.66-1.43-2.661-.961z"/><path d="m141.15 118.189c-3.974 1.865-8.979.994-12.173-2.121-5.556-5.418-14.944-5.419-20.508.005-3.971 3.873-10.941 3.874-14.926-.011-5.556-5.416-14.944-5.415-20.51.012-3.972 3.873-10.941 3.874-14.936-.02-.235-.229-.477-.448-.725-.657-.844-.713-2.105-.607-2.818.237s-.606 2.105.237 2.818c.177.149.349.306.537.489 5.556 5.414 14.942 5.412 20.508-.014 3.971-3.873 10.941-3.874 14.926.011 5.557 5.416 14.944 5.415 20.505-.008 3.974-3.874 10.944-3.874 14.917.001 2.821 2.752 6.685 4.219 10.538 4.219 2.103 0 4.203-.438 6.128-1.341.735-.345 1.15-.779 1.15-1.811 0-.275-.065-.585-.189-.85-.47-.998-1.66-1.428-2.661-.959z"/><path d="m111.267 99.932c3.974-3.874 10.944-3.874 14.917.001 2.821 2.751 6.686 4.218 10.538 4.218 2.103 0 4.203-.437 6.127-1.34.735-.345 1.15-.779 1.15-1.811 0-.275-.065-.585-.189-.85-.469-1-1.662-1.431-2.66-.961-3.975 1.866-8.981.993-12.174-2.121-5.556-5.418-14.944-5.419-20.508.005-3.575 3.486-9.577 3.834-13.639 1.046-.781-.536-1.821-.486-2.482.193l-.16.164c-.817.839-.675 2.205.283 2.878 5.624 3.951 13.772 3.477 18.797-1.422z"/><path d="m47 142c2.206 0 4-1.794 4-4v-116c0-2.206-1.794-4-4-4h-27c-2.206 0-4 1.794-4 4v116c0 2.206 1.794 4 4 4zm-27-120h27v6h-5c-1.104 0-2 .896-2 2s.896 2 2 2h5v6h-11c-1.104 0-2 .896-2 2s.896 2 2 2h11v6h-5c-1.104 0-2 .896-2 2s.896 2 2 2h5v6h-11c-1.104 0-2 .896-2 2s.896 2 2 2h11v6h-5c-1.104 0-2 .896-2 2s.896 2 2 2h5v6h-11c-1.104 0-2 .896-2 2s.896 2 2 2h11v6h-5c-1.104 0-2 .896-2 2s.896 2 2 2h5v6h-11c-1.104 0-2 .896-2 2s.896 2 2 2h11v6h-5c-1.104 0-2 .896-2 2s.896 2 2 2h5v6h-11c-1.104 0-2 .896-2 2s.896 2 2 2h11v6h-5c-1.104 0-2 .896-2 2s.896 2 2 2h5v6h-27z"/><path d="m85 100c0-1.104-.896-2-2-2h-20.171l6.085-6.086c.781-.781.781-2.047 0-2.828-.78-.781-2.048-.781-2.828 0l-9.5 9.5c-.781.781-.781 2.047 0 2.828l9.5 9.5c.39.391.902.586 1.414.586s1.024-.195 1.414-.586c.781-.781.781-2.047 0-2.828l-6.085-6.086h20.171c1.104 0 2-.896 2-2z"/></g></svg>