<svg height="512" viewBox="0 0 60 60" width="512" xmlns="http://www.w3.org/2000/svg"><g id="Page-1" fill="none" fill-rule="evenodd"><g id="028---Water-Management" fill="rgb(0,0,0)" fill-rule="nonzero"><path id="Shape" d="m30 9c-11.5979797 0-21 9.4020203-21 21s9.4020203 21 21 21 21-9.4020203 21-21c-.0132259-11.592497-9.407503-20.98677409-21-21zm-16.443 30.478c.3950479-.1843215.7766545-.3961766 1.142-.634.7607673-.5695566 1.6909257-.8668129 2.641-.844.9491965-.0230561 1.8783746.275042 2.637.846 1.0769931.7751256 2.3763293 1.1800497 3.703 1.154 1.3233318.0253963 2.6191912-.379187 3.693-1.153 1.5728319-1.1274197 3.6891681-1.1274197 5.262 0 2.2259503 1.5411258 5.1740497 1.5411258 7.4 0 1.5737028-1.1274535 3.690159-1.1294631 5.266-.005.365565.2389049.7478909.4511225 1.144.635-.4009301.6904846-.8448027 1.3551245-1.329 1.99-.7740789-.3237623-1.6070898-.482804-2.446-.467-1.325928-.0251784-2.6242432.3804574-3.7 1.156-1.5728319 1.1274197-3.6891681 1.1274197-5.262 0-2.2259503-1.5411258-5.1740497-1.5411258-7.4 0-1.5730292 1.1268057-3.6889708 1.1268057-5.262 0-1.0775716-.7764571-2.3780829-1.1821212-3.706-1.156-.8415209-.01604-1.6771912.1429894-2.454.467-.48419-.6345328-.9280632-1.2988395-1.329-1.989zm16.443 9.522c-5.1833109-.0011333-10.1394555-2.1275188-13.712-5.883.3449965-.0793497.6979995-.1186095 1.052-.117.9491965-.0230561 1.8783746.275042 2.637.846 1.0769931.7751256 2.3763293 1.1800497 3.703 1.154 1.3233318.0253963 2.6191912-.379187 3.693-1.153 1.5728319-1.1274197 3.6891681-1.1274197 5.262 0 2.2259503 1.5411258 5.1740497 1.5411258 7.4 0 .757881-.571026 1.6863435-.869473 2.635-.847.3512715-.0020778.701603.0365124 1.044.115-3.5726126 3.7568199-8.5296721 5.8840107-13.714 5.885zm17.358-11.308c-.345954-.1524567-.6784612-.3337634-.994-.542-2.228274-1.5358687-5.1742196-1.5334801-7.4.006-1.5728319 1.1274197-3.6891681 1.1274197-5.262 0-2.2259503-1.5411258-5.1740497-1.5411258-7.4 0-1.5730292 1.1268057-3.6889708 1.1268057-5.262 0-1.0759201-.775216-2.3741237-1.1808169-3.7-1.156-1.3251583-.0251899-2.6229765.3785368-3.7 1.151-.3152124.2079121-.6473881.388886-.993.541-3.54713563-7.968763-1.2127892-17.3291261 5.6608429-22.6990923 6.8736322-5.36996613 16.520682-5.36996613 23.3943142 0 6.8736321 5.3699662 9.2079785 14.7303293 5.6608429 22.6990923z"/><path id="Shape" d="m58.2 25.02-2.8-.559c-.6512313-3.0252157-1.8444503-5.9076425-3.522-8.508l1.579-2.369c.1092599-.1645007.1676876-.3575206.168-.555 0-.3-.116-1.945-2.414-4.242s-3.937-2.414-4.242-2.414c-.1975323-.00004431-.3906531.05841388-.555.168l-2.367 1.579c-2.6003597-1.67642326-5.4823715-2.86893315-8.507-3.52l-.56-2.8c-.0385839-.19353984-.1335711-.37133627-.273-.511-.216-.212-1.457-1.289-4.707-1.289s-4.491 1.077-4.707 1.293c-.1394289.13966373-.2344161.31746016-.273.511l-.56 2.796c-3.0246285.65106685-5.9066403 1.84357674-8.507 3.52l-2.369-1.579c-.1643469-.10958612-.3574677-.16804431-.555-.168-.3 0-1.944.116-4.242 2.414s-2.414 3.937-2.414 4.242c.00031242.1974794.05874008.3904993.168.555l1.579 2.369c-1.67684682 2.6005-2.86938496 5.4829189-3.52 8.508l-2.8.559c-.19372441.0380671-.37166323.1331304-.511.273-.212.216-1.289 1.457-1.289 4.707s1.077 4.491 1.293 4.707c.13933677.1398696.31727559.2349329.511.273l2.794.559c.65123131 3.0252157 1.84445027 5.9076425 3.522 8.508l-1.579 2.369c-.10925992.1645007-.16768758.3575206-.168.555 0 .305.116 1.945 2.414 4.242s3.937 2.414 4.242 2.414c.1975323.0000443.3906531-.0584139.555-.168l2.369-1.579c2.6003597 1.6764233 5.4823715 2.8689332 8.507 3.52l.56 2.794c.0385839.1935398.1335711.3713363.273.511.216.218 1.457 1.295 4.707 1.295s4.491-1.077 4.707-1.293c.1394289-.1396637.2344161-.3174602.273-.511l.56-2.794c3.024763-.6516832 5.9067827-1.8448739 8.507-3.522l2.369 1.579c.1643469.1095861.3574677.1680443.555.168.305 0 1.944-.116 4.242-2.414s2.414-3.937 2.414-4.242c-.0003124-.1974794-.0587401-.3904993-.168-.555l-1.579-2.369c1.6768468-2.6005 2.869385-5.4829189 3.52-8.508l2.8-.559c.1937244-.0380671.3716632-.1331304.511-.273.212-.216 1.289-1.457 1.289-4.707s-1.077-4.491-1.293-4.707c-.138254-.1391758-.3147043-.2341875-.507-.273zm-.791 8.08-3.051.61c-.3992049.0799834-.7100632.3940056-.786.794-.6062456 3.219104-1.8721241 6.2779131-3.718 8.984-.2295936.3366384-.2319672.7789167-.006 1.118l1.723 2.586c-.3679709 1.0011851-.9761011 1.8967264-1.771 2.608-.7099529.7939335-1.6022267 1.4034252-2.6 1.776l-2.6-1.728c-.3388799-.2262682-.7811575-.2242902-1.118.005-2.7052697 1.8462317-5.7634334 3.1124654-8.982 3.719-.3999944.0759368-.7140166.3867951-.794.786l-.61 3.051c-.9680858.4473908-2.031186.6503276-3.096.591-1.0655752.0591087-2.1295262-.1420124-3.1-.586l-.611-3.056c-.0799834-.3992049-.3940056-.7100632-.794-.786-3.2189151-.6064028-6.2774317-1.8726417-8.983-3.719-.3368425-.2292902-.7791201-.2312682-1.118-.005l-2.584 1.724c-1.0020097-.3679678-1.8982758-.9764672-2.61-1.772-.79378158-.7098791-1.40296203-1.6021998-1.775-2.6l1.726-2.59c.2259672-.3390833.2235936-.7813616-.006-1.118-1.84653553-2.7085577-3.11211268-5.7701853-3.717-8.992-.0759368-.3999944-.38679511-.7140166-.786-.794l-3.051-.606c-.4482328-.9692338-.65119426-2.0338371-.591-3.1-.05910869-1.0655752.14201236-2.1295262.586-3.1l3.056-.61c.39920489-.0799834.7100632-.3940056.786-.794.60624556-3.219104 1.87212407-6.2779131 3.718-8.984.2295936-.3366384.2319672-.7789167.006-1.118l-1.723-2.584c.36768203-1.001906.9758315-1.8981624 1.771-2.61.7099529-.79393349 1.6022267-1.40342516 2.6-1.776l2.59 1.727c.337862.2277765.780138.2277765 1.118 0 2.7079277-1.84891309 5.7696417-3.1165689 8.992-3.723.3999944-.0759368.7140166-.38679511.794-.786l.61-3.051c.9680858-.44739082 2.031186-.65032759 3.096-.591 1.0655752-.05910869 2.1295262.14201236 3.1.586l.611 3.056c.0799834.39920489.3940056.7100632.794.786 3.2189151.60640285 6.2774317 1.87264167 8.983 3.719.337862.2277765.780138.2277765 1.118 0l2.584-1.719c1.0020097.36796783 1.8982758.97646724 2.61 1.772.7937816.7098791 1.402962 1.6021998 1.775 2.6l-1.727 2.6c-.2259672.3390833-.2235936.7813616.006 1.118 1.8456228 2.7054896 3.111491 5.7635929 3.718 8.982.0759368.3999944.3867951.7140166.786.794l3.051.61c.4475866.9680229.6505328 2.0311724.591 3.096.0601943 1.0661629-.1427672 2.1307662-.591 3.1z"/><path id="Shape" d="m31.22 13.464c-.6975671-.6136987-1.7424329-.6136987-2.44 0-2.039 1.8-6.78 6.586-6.78 12.2-.0010264 2.2682209.9006465 4.4436057 2.506 6.046 1.4556467 1.4610179 3.4316101 2.2846357 5.494 2.29h.1c4.4625244-.1669778 7.9727626-3.8709456 7.9-8.336 0-5.611-4.741-10.401-6.78-12.2zm-1.146 18.536c-1.562662.0167383-3.065123-.6018584-4.163-1.714-1.225867-1.2259317-1.9134577-2.8893183-1.911-4.623 0-4.82 4.46-9.229 6-10.607 1.54 1.378 6 5.79 6 10.608.0772523 3.3724419-2.5559302 6.1878054-5.926 6.336z"/><path id="Shape" d="m29.964 28c-1.0941805-.0109946-1.9728797-.9058003-1.964-2 0-.5522847-.4477153-1-1-1s-1 .4477153-1 1c-.0077545 2.1983031 1.7657166 3.9878805 3.964 4h.036c.2632485-.0007678.5152126-.1069856.6995644-.2949079.1843517-.1879222.2857172-.4418773.2814356-.7050921-.0076707-.5557121-.4612375-1.0016972-1.017-1z"/></g></g></svg>