<svg id="&#x421;&#x43B;&#x43E;&#x439;_1" enable-background="new 0 0 160 160" viewBox="0 0 160 160" xmlns="http://www.w3.org/2000/svg"><g fill="rgb(0,0,0)"><path d="m94.973 142.748c.965-.538 1.312-1.755.775-2.72s-1.756-1.312-2.72-.775c-.368.204-1.343.747-2.028.747h-66c-2.206 0-4-1.794-4-4v-95c0-2.206 1.794-4 4-4h9v4c0 2.757 2.243 5 5 5h38c2.757 0 5-2.243 5-5v-4h9c2.206 0 4 1.794 4 4v19c0 1.104.896 2 2 2s2-.896 2-2v-19c0-4.411-3.589-8-8-8h-9c0-3.86-3.14-7-7-7h-6.045c-.507-5.599-5.226-10-10.955-10s-10.448 4.401-10.955 10h-6.045c-3.86 0-7 3.14-7 7h-9c-4.411 0-8 3.589-8 8v95c0 4.411 3.589 8 8 8h66c1.527 0 2.925-.669 3.973-1.252zm-56.973-109.748c0-1.654 1.346-3 3-3h8c1.104 0 2-.896 2-2v-1c0-3.86 3.14-7 7-7s7 3.14 7 7v1c0 1.104.896 2 2 2h8c1.654 0 3 1.346 3 3v8c0 .551-.449 1-1 1h-38c-.551 0-1-.449-1-1z"/><path d="m89 65v-8c0-2.757-2.243-5-5-5h-52c-2.757 0-5 2.243-5 5v8c0 2.757 2.243 5 5 5h52c2.757 0 5-2.243 5-5zm-58 0v-8c0-.551.449-1 1-1h52c.551 0 1 .449 1 1v8c0 .551-.449 1-1 1h-52c-.551 0-1-.449-1-1z"/><path d="m29.086 103.914 6.5 6.5c.389.39.901.586 1.414.586.479 0 .959-.171 1.341-.517l10.5-9.5c.819-.741.882-2.006.141-2.825s-2.006-.882-2.825-.141l-9.089 8.224-5.155-5.155c-.78-.781-2.048-.781-2.828 0s-.78 2.047.001 2.828z"/><path d="m29.086 124.914 6.5 6.5c.389.39.901.586 1.414.586.479 0 .959-.171 1.341-.517l10.5-9.5c.819-.741.882-2.006.141-2.825s-2.006-.882-2.825-.141l-9.089 8.224-5.155-5.155c-.78-.781-2.048-.781-2.828 0s-.78 2.047.001 2.828z"/><path d="m51.417 110h20.583c1.104 0 2-.896 2-2s-.896-2-2-2h-20.583c-1.104 0-2 .896-2 2s.895 2 2 2z"/><path d="m51.417 130h26.583c1.104 0 2-.896 2-2s-.896-2-2-2h-26.583c-1.104 0-2 .896-2 2s.895 2 2 2z"/><path d="m35.586 89.414c.389.39.901.586 1.414.586.479 0 .959-.171 1.341-.517l10.5-9.5c.819-.741.882-2.006.141-2.825s-2.006-.882-2.825-.141l-9.089 8.224-5.155-5.155c-.78-.781-2.048-.781-2.828 0-.781.781-.781 2.047 0 2.828z"/><path d="m76 84h-24.583c-1.104 0-2 .896-2 2s.896 2 2 2h24.583c1.104 0 2-.896 2-2s-.896-2-2-2z"/><path d="m128.005 43.4c-.637 0-1.599 0-5.977 5.754-2.143 2.817-5.103 7.197-7.035 12.066-.408 1.027.095 2.189 1.121 2.597 1.027.407 2.19-.095 2.597-1.122 2.478-6.243 7.059-12.055 9.283-14.509 3.061 3.41 11.006 13.546 11.006 22.314 0 5.021-3.068 9.423-7.635 10.954-1.047.351-1.612 1.485-1.26 2.532.28.836 1.06 1.365 1.896 1.365.211 0 .425-.034.636-.104 6.198-2.08 10.363-8.006 10.363-14.747 0-6.61-3.626-13.461-6.669-18.043-.246-.371-6.038-9.057-8.326-9.057z"/><path d="m111.925 64.097c-4.517-5.097-5.17-5.097-5.925-5.097s-1.408 0-5.925 5.097c-2.191 2.472-5.54 6.497-9.051 11.633-5.941 8.692-13.024 21.652-13.024 34.038 0 15.567 12.561 28.232 28 28.232s28-12.665 28-28.232c0-12.386-7.083-25.346-13.024-34.038-3.511-5.137-6.86-9.162-9.051-11.633zm-5.925-.482c4.462 4.39 20.938 23.203 23.619 41.313-2.639 3.484-5.63 5.072-9.619 5.072-4.442 0-7.427-2.3-10.884-4.962-3.674-2.83-7.837-6.038-14.116-6.038-5.599 0-9.666 2.247-12.398 4.594 3.261-17.69 19.045-35.697 23.398-39.979zm0 70.385c-13.06 0-23.709-10.589-23.987-23.709.99-1.58 5.116-7.291 12.987-7.291 4.917 0 8.2 2.529 11.675 5.206 3.698 2.849 7.521 5.794 13.325 5.794 3.859 0 7.157-1.19 9.984-3.608-.329 13.073-10.957 23.608-23.984 23.608z"/></g></svg>