<?xml version="1.0" encoding="UTF-8" standalone="no"?>
<!-- Created with Inkscape (http://www.inkscape.org/) -->

<svg
   width="125mm"
   height="75mm"
   viewBox="0 0 125 75"
   version="1.1"
   id="svg1"
   xml:space="preserve"
   inkscape:version="1.4.3 (0d15f75, 2025-12-25)"
   sodipodi:docname="logo-igarashi.svg"
   xmlns:inkscape="http://www.inkscape.org/namespaces/inkscape"
   xmlns:sodipodi="http://sodipodi.sourceforge.net/DTD/sodipodi-0.dtd"
   xmlns="http://www.w3.org/2000/svg"
   xmlns:svg="http://www.w3.org/2000/svg"><sodipodi:namedview
     id="namedview1"
     pagecolor="#505050"
     bordercolor="#eeeeee"
     borderopacity="1"
     inkscape:showpageshadow="0"
     inkscape:pageopacity="0"
     inkscape:pagecheckerboard="0"
     inkscape:deskcolor="#505050"
     inkscape:document-units="mm"
     inkscape:zoom="1.0771772"
     inkscape:cx="334.67103"
     inkscape:cy="208.41511"
     inkscape:window-width="1920"
     inkscape:window-height="1057"
     inkscape:window-x="-8"
     inkscape:window-y="-8"
     inkscape:window-maximized="1"
     inkscape:current-layer="layer1" /><defs
     id="defs1" /><g
     inkscape:label="Camada 1"
     inkscape:groupmode="layer"
     id="layer1"><path
       style="fill:#03675c;stroke-width:0.475383"
       d="m 14.866202,73.166392 c -2.90962,-0.664982 -4.571645,-2.376401 -5.1792218,-5.333151 -0.5106934,-2.485232 -0.2321624,-4.990569 0.7622418,-6.85626 1.264363,-2.372171 3.923431,-3.66848 7.525089,-3.66848 4.414541,0 7.642003,2.025831 7.996536,5.019306 l 0.100009,0.844549 h -2.455085 c -2.310542,0 -2.455079,-0.01904 -2.455079,-0.32251 0,-0.500553 -0.900398,-1.281321 -1.752902,-1.519996 -1.699053,-0.475713 -3.588554,0.139841 -4.300927,1.401096 -0.532305,0.942449 -0.669912,3.602717 -0.244043,4.717839 0.648276,1.697502 2.632664,2.50452 4.662774,1.89627 0.769937,-0.23067 1.635098,-1.018986 1.635098,-1.489854 0,-0.297739 -0.135298,-0.322514 -1.760904,-0.322514 H 17.638883 V 65.93949 64.346291 h 4.19263 4.192621 v 4.444184 4.444181 h -1.319838 -1.319847 l -0.211293,-0.754671 c -0.116213,-0.415062 -0.240841,-0.754673 -0.276949,-0.754673 -0.03613,0 -0.347132,0.186282 -0.691167,0.413946 -0.344031,0.227667 -1.078221,0.574118 -1.631524,0.769883 -1.298516,0.459403 -4.242234,0.592096 -5.707325,0.257251 z m 71.878746,-0.03051 c -1.67109,-0.342657 -2.896441,-0.949366 -3.61657,-1.79066 -0.624078,-0.729099 -1.090743,-1.978658 -1.090743,-2.920603 v -0.556527 h 2.431724 2.431717 v 0.426889 c 0,0.638969 0.668881,1.204168 1.588233,1.342034 1.206011,0.180855 2.466516,-0.01684 2.814026,-0.441347 0.365022,-0.44589 0.364909,-0.531396 -0.0011,-0.983785 -0.226391,-0.279588 -0.926484,-0.51628 -3.013795,-1.018906 -2.918046,-0.702674 -3.833765,-1.071854 -4.713915,-1.900467 -2.204415,-2.075332 -1.585749,-5.696907 1.20656,-7.063054 2.494255,-1.220335 6.740171,-1.216104 8.990989,0.0096 1.577888,0.858787 2.309398,1.859338 2.473102,3.382681 l 0.0946,0.880443 h -2.337633 -2.337644 l -0.206162,-0.570144 c -0.347533,-0.961133 -1.60918,-1.341528 -3.087565,-0.93095 -1.369994,0.380457 -1.126759,1.48229 0.418272,1.894742 0.483709,0.129137 1.858632,0.46837 3.055397,0.753872 3.621553,0.863958 4.858003,2.022558 4.861516,4.555388 0.0034,2.329342 -1.143106,3.863947 -3.515636,4.706342 -1.346756,0.478185 -4.64838,0.593479 -6.445074,0.225069 z M 1.371512,65.352523 v -7.882138 h 2.5994278 2.599428 v 7.882138 7.882133 H 3.9709398 1.371512 Z m 26.497396,7.721146 c 0,-0.09327 0.875338,-2.566868 1.945203,-5.496721 3.05573,-8.368169 3.278722,-8.983054 3.467479,-9.561511 l 0.177857,-0.545052 h 2.970211 2.970205 l 0.203923,0.545052 c 0.112161,0.299764 0.304748,0.809174 0.427982,1.131999 0.123247,0.322828 0.826299,2.247251 1.562366,4.276478 2.458411,6.777535 3.348674,9.221432 3.466945,9.517267 0.108806,0.272177 -0.07775,0.293475 -2.570218,0.293475 h -2.68755 l -0.362758,-1.09008 -0.362756,-1.090082 h -2.738899 -2.738901 l -0.312806,1.048164 -0.312798,1.048148 -2.552742,0.04625 c -1.640865,0.02973 -2.552743,-0.01424 -2.552743,-0.123475 z m 9.865158,-6.672982 c -0.838142,-2.855673 -1.341459,-4.428911 -1.398628,-4.371735 -0.06963,0.06968 -1.590622,5.231052 -1.590622,5.397656 0,0.05835 0.747336,0.10602 1.66075,0.10602 h 1.660746 z m 9.253213,-1.056454 v -7.890427 l 5.660046,0.05019 c 5.498244,0.04876 5.684016,0.06119 6.498569,0.436142 1.764794,0.812242 2.611842,2.078113 2.731574,4.082236 0.06611,1.106647 0.02004,1.404511 -0.336929,2.180165 -0.457315,0.993585 -1.253068,1.856993 -1.994515,2.164107 -0.26619,0.11025 -0.483984,0.279415 -0.483984,0.375898 0,0.165736 1.24698,2.585319 2.719209,5.276227 l 0.665212,1.215852 H 59.568107 56.689749 L 55.32881,70.383639 53.96787,67.532653 h -0.974718 -0.974717 v 2.850986 2.850984 h -2.515581 -2.515575 z m 9.315256,-1.744986 c 0.590137,-0.590143 0.575315,-1.615438 -0.03023,-2.091765 -0.388163,-0.305336 -0.673571,-0.347586 -2.347872,-0.347586 h -1.905992 v 1.425493 1.425493 h 1.936229 c 1.832148,0 1.958361,-0.02201 2.347872,-0.411635 z m 9.591462,2.554033 c 1.428393,-3.899336 2.716238,-7.448165 2.861871,-7.886287 l 0.264795,-0.796608 h 2.970915 2.970916 l 0.251073,0.712756 c 0.315746,0.896345 5.243899,14.360374 5.401784,14.75804 0.108066,0.272148 -0.07886,0.293475 -2.571022,0.293475 h -2.687552 l -0.362757,-1.09008 -0.362754,-1.090082 h -2.721167 -2.721175 l -0.335091,1.048164 -0.335095,1.048148 -2.610911,0.04612 -2.610911,0.04609 z m 6.974766,-1.178087 c -0.897535,-3.083824 -0.883859,-3.042236 -0.971714,-2.95439 -0.07511,0.07519 -1.598766,5.22698 -1.598766,5.405805 0,0.05835 0.745835,0.10602 1.657414,0.10602 h 1.657419 z m 26.274779,0.37733 v -7.882138 h 2.515578 2.51558 v 2.850988 2.850983 h 2.76714 2.76712 v -2.850983 -2.850988 h 2.59944 2.59941 v 7.882138 7.882133 h -2.59941 -2.59944 v -3.01869 -3.018689 h -2.76712 -2.76714 v 3.018689 3.01869 h -2.51558 -2.515578 z m 19.286088,0 v -7.882138 h 2.59943 2.59943 v 7.882138 7.882133 h -2.59943 -2.59943 z M 59.565158,51.321909 c -7.400905,-0.723907 -13.35431,-3.52981 -18.078537,-8.520631 -3.046016,-3.2179 -5.248409,-7.470377 -6.169405,-11.912138 -0.43616,-2.103516 -0.438903,-6.247742 -0.0058,-8.552954 0.905948,-4.820348 3.185249,-9.065005 6.800768,-12.6648063 C 49.484178,2.3314151 60.5057,-0.22997923 70.584137,3.0545112 84.390022,7.5537486 91.761055,21.391442 87.215398,34.276476 c -2.787691,7.90194 -9.647664,13.970748 -18.346949,16.231022 -2.803024,0.728279 -6.698112,1.069255 -9.30345,0.814411 z m 6.537239,-3.823584 c 4.794981,-0.862639 9.059106,-2.997301 12.3962,-6.205652 1.873501,-1.801218 3.137156,-3.453227 4.227536,-5.526747 2.683178,-5.102483 3.03899,-11.021407 0.983025,-16.352704 C 82.304271,15.770224 79.734849,12.457135 76.33566,9.9056106 74.858585,8.796872 71.631581,7.0969729 69.879017,6.504418 63.765171,4.4372802 56.893586,4.8278023 51.068628,7.5734363 44.81962,10.518956 40.300965,15.99045 38.923753,22.279277 c -1.317733,6.017217 0.28214,12.430887 4.274903,17.137528 4.763484,5.615146 11.706682,8.653905 19.217487,8.410701 1.245215,-0.04026 2.904024,-0.188451 3.686254,-0.329181 z M 59.900568,42.363 c -4.075715,-0.454639 -7.919606,-2.324798 -8.98351,-4.370713 -0.583973,-1.122986 -0.461224,-2.402403 0.333875,-3.480107 0.375944,-0.50955 1.56111,-1.511908 1.799645,-1.522054 0.06037,-0.0031 0.339272,0.401991 0.619775,0.899002 0.949524,1.682478 2.987498,2.927902 5.715049,3.492536 2.431066,0.503255 5.110153,0.195309 7.107885,-0.817009 1.033783,-0.523863 2.345199,-1.733689 2.708004,-2.498241 0.150818,-0.31781 0.331062,-0.577846 0.400561,-0.577846 0.322351,0 2.118742,1.819542 2.393436,2.424284 0.908094,1.999184 -0.168321,3.904953 -2.954798,5.2314 -2.229108,1.061125 -6.020643,1.566709 -9.139922,1.218748 z m -0.251556,-6.186511 c -2.275366,-0.48493 -4.020207,-1.563029 -4.68331,-2.893706 -0.538953,-1.081542 -0.582494,-1.97438 -0.09628,-1.97438 0.253205,0 0.336314,0.113104 0.339095,0.461197 0.01731,2.167692 2.950053,3.877254 6.678706,3.893159 1.638022,0.0063 2.802971,-0.293197 4.058619,-1.045823 1.132079,-0.678559 1.669165,-1.445327 1.669165,-2.383009 0,-0.780296 0.08856,-0.945373 0.435661,-0.812163 0.160014,0.06135 0.235156,0.368835 0.235156,0.962096 0,1.37621 -0.776706,2.265604 -2.850983,3.264583 -1.199902,0.577894 -1.346538,0.607274 -3.186396,0.638385 -1.060734,0.01794 -2.230476,-0.03177 -2.599426,-0.110272 z m 0.670821,-2.043053 c -0.531306,-0.290598 -0.755411,-0.667392 -0.64903,-1.091247 0.09259,-0.36885 0.05221,-0.392144 -0.67982,-0.392144 -1.943545,0 -2.952867,-1.321932 -1.815623,-2.377961 0.715492,-0.664387 2.268175,-1.646961 2.602576,-1.646961 0.165607,0 0.560026,0.108215 0.876486,0.240405 l 0.575368,0.240406 0.04814,1.646284 c 0.03887,1.330159 0.09644,1.64627 0.299692,1.64627 0.20383,0 0.26057,-0.320752 0.299037,-1.690564 l 0.04748,-1.690562 0.587103,-0.279964 c 0.322911,-0.153988 0.669294,-0.27998 0.769752,-0.27998 0.100459,0 0.65825,0.33939 1.239546,0.754201 1.780513,1.270545 2.121615,1.984746 1.366938,2.862106 -0.333,0.387142 -0.549323,0.460316 -1.578564,0.53396 -1.191589,0.08526 -1.192775,0.08588 -1.295571,0.633793 -0.07673,0.409085 -0.246734,0.616728 -0.66887,0.81704 -0.650269,0.308576 -1.537432,0.3414 -2.024638,0.07484 z m 13.919516,-0.422172 c -0.577203,-0.126988 -1.319906,-0.429551 -1.901048,-0.774382 l -0.559403,-0.331949 0.81565,-0.28725 C 75.2357,31.387584 76.88745,29.26678 76.907191,26.780368 76.920671,25.10357 76.469572,24.060093 75.163976,22.746546 74.194748,21.771411 73.67445,21.435562 72.158806,20.80669 l -0.403493,-0.167407 0.609157,-0.359412 c 1.04145,-0.614477 2.07769,-0.878525 3.447682,-0.878525 2.821959,0 5.038299,1.390308 6.289347,3.945285 1.955258,3.993147 -0.155984,8.949992 -4.354507,10.223651 -0.765517,0.232227 -2.733533,0.311329 -3.507643,0.140932 z M 45.010734,33.013106 c -3.032271,-1.079497 -4.886862,-3.759553 -4.893266,-7.071263 -0.0068,-3.495521 2.300597,-6.383549 5.716354,-7.154926 1.033459,-0.233391 1.416273,-0.247295 2.35856,-0.08572 1.229317,0.210802 2.790645,0.875442 3.250684,1.383777 0.280034,0.309445 0.276208,0.322592 -0.09378,0.322592 -0.212154,0 -0.931903,0.262697 -1.599442,0.583775 -3.941897,1.895967 -4.857264,6.517215 -1.870146,9.441436 0.835824,0.818235 2.26699,1.71414 2.738228,1.71414 0.485713,0 0.186345,0.311786 -0.653873,0.680997 -1.232244,0.541463 -3.693999,0.633495 -4.953311,0.18518 z M 69.823045,31.29799 c -0.670792,-0.268858 -0.329058,-0.581604 0.5772,-0.528235 0.451223,0.02657 1.141909,-0.04013 1.534845,-0.148002 1.589204,-0.436771 3.132281,-2.533367 3.12937,-4.251893 -0.0038,-2.256453 -2.239827,-4.335275 -4.122543,-3.832757 -0.54738,0.146125 -0.686398,0.13433 -0.762643,-0.06433 -0.15041,-0.391989 0.214304,-0.606251 1.16126,-0.68224 1.750343,-0.140462 3.655518,1.4044 4.260619,3.454783 0.831975,2.81915 -1.774452,6.265784 -4.703854,6.220169 -0.375574,-0.0063 -0.858995,-0.08115 -1.074254,-0.167482 z M 49.886847,30.958632 c -0.828304,-0.410014 -1.727655,-1.355702 -2.251832,-2.367877 -0.564109,-1.089265 -0.543118,-2.922459 0.04789,-4.183063 0.820067,-1.749168 2.454834,-2.982464 3.96357,-2.990204 0.865191,-0.0046 1.940533,0.409211 1.837167,0.706683 -0.07626,0.219486 -0.180334,0.22175 -1.495666,0.03239 -2.458227,-0.353812 -4.79434,2.96938 -3.925742,5.584473 0.714602,2.151477 2.762977,3.353487 4.61469,2.707977 0.549866,-0.191679 0.940683,-0.04074 0.718081,0.27721 -0.451439,0.644945 -2.412271,0.774837 -3.508166,0.232384 z m 3.288397,-1.710869 c -0.313417,-0.210974 -0.720779,-0.623142 -0.905257,-0.91591 -0.213371,-0.33865 -0.47466,-0.534685 -0.71813,-0.538789 -0.647049,-0.01092 -1.543741,-0.474569 -1.691785,-0.87475 -0.264768,-0.715742 0.01707,-1.196443 1.014971,-1.731144 0.516425,-0.276709 1.180512,-0.785062 1.475756,-1.129671 1.199682,-1.400279 3.243047,-1.194369 5.914322,0.595995 0.768483,0.515054 0.911514,0.794594 0.695125,1.358486 -0.08407,0.219077 -0.415032,0.265273 -1.900656,0.265273 -0.989371,0 -1.843974,0.04516 -1.89911,0.100193 -0.05513,0.05506 -0.05964,0.206069 -0.0101,0.33541 0.0698,0.181877 0.505283,0.235152 1.922317,0.235152 1.499078,0 1.85018,0.0472 1.9317,0.25961 0.12838,0.334578 -0.212772,0.587676 -1.87784,1.393123 -1.11963,0.541604 -2.66015,1.030548 -3.246917,1.030548 -0.07406,0 -0.391079,-0.172614 -0.704492,-0.383589 z m 13.852789,-0.02452 c -0.798442,-0.310841 -3.012643,-1.460696 -3.232272,-1.678545 -0.02525,-0.02501 9.49e-4,-0.167234 0.05794,-0.316017 0.08617,-0.224596 0.449953,-0.278502 2.142187,-0.317494 1.679215,-0.03869 2.038377,-0.09123 2.038377,-0.29851 0,-0.204984 -0.372678,-0.267096 -2.012465,-0.335425 -1.956121,-0.08148 -2.014018,-0.09486 -2.0682,-0.477586 -0.07648,-0.540253 0.459121,-1.063029 1.73016,-1.688768 1.260475,-0.620518 2.685232,-0.936976 3.516472,-0.781035 0.645689,0.121113 1.690941,0.928339 1.849661,1.428403 0.05334,0.168066 0.322541,0.350256 0.599282,0.405608 0.690039,0.137947 1.332388,0.818708 1.332388,1.411935 0,0.620217 -0.608187,1.194509 -1.401314,1.323221 -0.452354,0.07347 -0.698736,0.241255 -0.949381,0.646817 -0.720372,1.165583 -1.81849,1.372043 -3.602835,0.677396 z m -6.659818,-1.58718 c -0.450081,-0.402151 -0.543877,-0.607561 -0.543877,-1.191113 0,-0.588949 0.09312,-0.788317 0.565019,-1.209987 0.49014,-0.437933 0.656287,-0.49259 1.253713,-0.412468 1.416801,0.190042 1.96325,1.799725 0.953678,2.809303 -0.667909,0.667911 -1.484033,0.669467 -2.228533,0.0046 z m 2.792304,-3.052509 c -0.06296,-0.101928 -0.366688,-0.290646 -0.674917,-0.419436 l -0.560422,-0.234163 -0.048,-1.633463 c -0.04111,-1.399823 -0.08999,-1.641502 -0.341483,-1.689635 -0.263634,-0.05049 -0.293483,0.11389 -0.293483,1.615 v 1.671169 l -0.461188,0.115131 c -0.253658,0.06338 -0.593996,0.234791 -0.756305,0.381056 -0.382347,0.344579 -0.777806,0.142976 -2.143309,-1.092756 -0.834047,-0.754767 -0.999533,-0.99563 -0.999533,-1.454797 0,-0.30266 0.151849,-0.743332 0.337455,-0.979288 0.330887,-0.420645 0.540765,-0.49679 1.958013,-0.710315 0.604624,-0.09108 0.717233,-0.173918 0.809879,-0.595727 0.150895,-0.68696 0.673192,-0.993459 1.692981,-0.993459 1.071265,0 1.611023,0.376432 1.638918,1.143011 0.01922,0.528108 0.0278,0.533269 0.888935,0.533646 1.508417,4.7e-4 2.217437,0.455957 2.227675,1.430494 0.0068,0.665395 -0.305621,1.086388 -1.46782,1.976741 -1.267066,0.970682 -1.660446,1.174594 -1.807393,0.936833 z m 4.569778,-2.94264 C 67.666887,21.577524 67.615,21.34577 67.615,21.12597 c 0,-1.932321 -3.692829,-3.928344 -6.800128,-3.675544 -3.070753,0.249829 -5.039596,1.472854 -5.435342,3.376421 -0.133166,0.640525 -0.575415,0.66467 -0.647665,0.03539 -0.07081,-0.616899 0.537362,-1.84721 1.180755,-2.388595 1.724295,-1.450893 5.150283,-2.133321 7.55953,-1.50579 1.140756,0.297125 2.711959,1.065058 3.450328,1.686348 0.773127,0.650545 1.396654,1.794642 1.332638,2.445218 -0.05177,0.526143 -0.292165,0.774193 -0.524818,0.541541 z m 1.335479,-2.39561 c -0.968124,-2.194305 -4.152984,-3.77912 -7.572011,-3.767905 -3.43579,0.01092 -6.228019,1.312966 -7.465918,3.480437 l -0.490223,0.858344 -0.978121,-1.005804 c -1.8526,-1.905047 -1.769804,-3.623685 0.266999,-5.542321 0.660114,-0.621823 2.936115,-1.697415 4.474639,-2.11463 1.14176,-0.30962 1.803864,-0.365175 4.444183,-0.37289 3.513911,-0.0103 4.766787,0.225764 7.169431,1.350643 1.472142,0.68923 2.9084,2.024447 3.231834,3.00444 0.31344,0.949747 0.13212,2.079483 -0.475467,2.962584 -0.516248,0.750349 -1.760412,1.806268 -2.128277,1.806268 -0.102429,0 -0.317115,-0.296622 -0.477069,-0.659166 z"
       id="path1" /></g></svg>
