<?xml version="1.0" encoding="UTF-8" standalone="no"?>
<!-- Created with Inkscape (http://www.inkscape.org/) -->

<svg
   width="125mm"
   height="75mm"
   viewBox="0 0 125 75"
   version="1.1"
   id="svg1"
   xml:space="preserve"
   inkscape:version="1.4.3 (0d15f75, 2025-12-25)"
   sodipodi:docname="logo-fepba.svg"
   xmlns:inkscape="http://www.inkscape.org/namespaces/inkscape"
   xmlns:sodipodi="http://sodipodi.sourceforge.net/DTD/sodipodi-0.dtd"
   xmlns="http://www.w3.org/2000/svg"
   xmlns:svg="http://www.w3.org/2000/svg"><sodipodi:namedview
     id="namedview1"
     pagecolor="#505050"
     bordercolor="#eeeeee"
     borderopacity="1"
     inkscape:showpageshadow="0"
     inkscape:pageopacity="0"
     inkscape:pagecheckerboard="0"
     inkscape:deskcolor="#505050"
     inkscape:document-units="mm"
     inkscape:zoom="0.76167929"
     inkscape:cx="396.49233"
     inkscape:cy="141.13552"
     inkscape:window-width="1920"
     inkscape:window-height="1057"
     inkscape:window-x="-8"
     inkscape:window-y="-8"
     inkscape:window-maximized="1"
     inkscape:current-layer="layer1"
     inkscape:lockguides="true" /><defs
     id="defs1" /><g
     inkscape:label="Camada 1"
     inkscape:groupmode="layer"
     id="layer1"><path
       style="fill:#4299c6"
       d="m 27.070479,53.663944 -21.7264759,-0.0632 0.078156,-0.67903 0.078156,-0.67903 55.2959949,-0.0688 c 30.412798,-0.0379 55.5465,-0.008 55.85267,0.0666 0.38111,0.0927 0.55667,0.3189 0.55667,0.71725 0,0.54717 -0.11433,0.59134 -1.91742,0.74065 -1.74754,0.14471 -30.503109,0.1335 -88.217751,-0.0344 z M 6.0553843,51.067494 c -0.064017,-0.1701 0.083615,-1.31127 0.3280694,-2.53595 0.2444548,-1.22468 1.5244559,-7.73773 2.844447,-14.473451 1.6877233,-8.612209 2.5154893,-12.339375 2.7891853,-12.55882 0.301625,-0.241838 2.590639,-0.297509 10.172617,-0.247409 l 9.783415,0.06465 0.08016,0.984326 c 0.07081,0.869513 -0.699553,5.645303 -1.177056,7.297064 -0.220966,0.764357 -0.833202,0.940436 -3.378987,0.9718 -5.544587,0.06831 -9.502745,0.352303 -9.502745,0.681814 0,0.263088 0.748783,0.332485 3.587436,0.332485 3.526145,0 3.587436,0.0093 3.587436,0.541779 0,0.800561 -0.964068,5.877852 -1.506114,7.931992 l -0.244824,0.92779 -3.516048,0.004 c -1.933826,0.002 -3.636453,0.0856 -3.783616,0.18555 -0.147163,0.1 -0.406998,0.96111 -0.57741,1.91364 -0.720725,4.02852 -1.436693,7.20271 -1.761556,7.80972 -0.235531,0.44009 -0.551096,0.47849 -3.9320486,0.47849 -2.7137555,0 -3.706432,-0.081 -3.7923591,-0.30926 z m 6.6594607,-1.21311 c 0.299131,-0.24305 0.725218,-2.0755 1.458161,-6.27103 0.689467,-3.94667 0.248506,-3.58743 4.403588,-3.58743 4.064827,0 4.018748,0.0213 4.354757,-2.01517 0.120228,-0.728673 0.405337,-2.139882 0.633576,-3.136018 0.228239,-0.996136 0.343444,-1.882692 0.25601,-1.970126 -0.08743,-0.08743 -1.740322,-0.163087 -3.673085,-0.168119 l -3.514116,-0.0091 0.07764,-0.989638 c 0.0427,-0.544301 0.240103,-1.240139 0.43867,-1.546309 0.357769,-0.551641 0.414357,-0.556671 6.262859,-0.556671 4.431732,0 5.96011,-0.07703 6.135809,-0.309261 0.12869,-0.170094 0.375931,-1.088602 0.549425,-2.041128 0.173494,-0.952526 0.469584,-2.274442 0.657977,-2.937592 0.188393,-0.66315 0.282216,-1.303321 0.208496,-1.422604 -0.07372,-0.119283 -4.137886,-0.216878 -9.031479,-0.216878 h -8.89744 l -0.232145,0.556672 c -0.294996,0.707383 -5.2002525,25.501972 -5.2002525,26.285702 0,0.34973 0.16645,0.61586 0.4151622,0.66378 0.802177,0.15456 4.4125103,-0.0984 4.6963883,-0.32903 z m 2.495712,1.21311 c -0.09051,-0.27002 0.185248,-1.79911 1.318742,-7.31265 0.21541,-1.0478 0.395396,-1.36067 0.891193,-1.54917 0.831736,-0.31622 21.121639,-0.0694 21.452003,0.26099 0.160239,0.16024 0.103537,0.86026 -0.165329,2.04104 -0.225068,0.98844 -0.52954,2.52083 -0.676606,3.40532 -0.401634,2.41552 -0.689436,3.14541 -1.305388,3.31055 -0.300352,0.0805 -5.240688,0.14794 -10.978524,0.1498 -8.128146,0.003 -10.455325,-0.0649 -10.536091,-0.30588 z m 21.102621,-1.10127 c 0.240091,-0.2593 1.446505,-6.32762 1.305839,-6.56843 -0.05962,-0.10205 -4.430223,-0.18555 -9.712461,-0.18555 -7.646453,0 -9.659242,0.0665 -9.87474,0.32613 -0.148868,0.17938 -0.377956,0.87522 -0.509085,1.54631 -0.670651,3.43228 -0.831568,4.52544 -0.712017,4.83698 0.1089,0.28379 1.758262,0.3333 9.725308,0.29197 5.276792,-0.0274 9.676512,-0.13872 9.777156,-0.24741 z m 2.593642,0.87162 c -0.147853,-0.62537 0.01137,-1.67876 0.853479,-5.64633 0.303256,-1.42879 0.665014,-2.73696 0.803907,-2.90706 0.392766,-0.481 8.995974,-0.43895 9.181634,0.0449 0.155218,0.40449 -0.921982,6.58706 -1.384637,7.9471 l -0.306476,0.90093 -4.506048,0.11747 -4.506048,0.11746 z m 8.224752,-1.0074 c 0.301412,-0.37171 1.264892,-5.86888 1.105757,-6.30894 -0.08188,-0.22642 -0.998191,-0.30926 -3.42068,-0.30926 -3.2273,0 -3.312099,0.0137 -3.440983,0.55667 -0.486308,2.04868 -1.114334,5.31562 -1.114334,5.79667 0,0.57194 0.01254,0.57412 3.309733,0.57412 2.349099,0 3.382518,-0.0898 3.560507,-0.30926 z m 3.937757,1.11334 c -0.148756,-0.25744 0.559741,-4.01996 0.885176,-4.70078 0.229596,-0.48032 0.458039,-0.55667 1.665614,-0.55667 1.166994,0 1.494554,0.10116 1.971495,0.60884 0.518046,0.55143 0.54224,0.68062 0.256604,1.37021 -0.377842,0.91219 -0.918194,1.23295 -2.442441,1.44986 -0.978043,0.13919 -1.157572,0.25287 -1.230649,0.77927 -0.13084,0.94248 -0.800397,1.57781 -1.105799,1.04927 z m 3.397807,-2.93353 c 0.570503,-0.21892 0.496074,-1.2677 -0.10347,-1.45799 -1.003813,-0.31859 -2.083059,0.59235 -1.609529,1.35854 0.171288,0.27715 1.108175,0.33154 1.712999,0.0994 z m 7.400361,2.85426 c -0.296056,-0.29605 0.05117,-2.63613 0.465477,-3.13705 0.711765,-0.86056 0.874124,0.0237 0.36121,1.96729 -0.356344,1.35028 -0.476353,1.5201 -0.826687,1.16976 z m 1.745761,-0.0907 c -0.211347,-0.55076 0.06329,-3.15324 0.412861,-3.91226 0.172342,-0.37421 0.460358,-0.68038 0.640036,-0.68038 0.527836,0 0.6751,1.1626 0.258784,2.04301 -0.574212,1.21433 -0.740388,2.08709 -0.433499,2.27676 0.14932,0.0923 0.207438,0.27143 0.12915,0.3981 -0.218043,0.3528 -0.854245,0.27371 -1.007332,-0.12523 z m 6.668218,0.10848 c -1.128648,-0.45513 -1.016892,-2.30892 0.200972,-3.33368 0.408662,-0.34387 0.840575,-0.62521 0.959807,-0.62521 0.526517,0 1.445368,0.59411 1.55251,1.00382 0.125084,0.47832 -0.454948,0.8673 -0.700597,0.46983 -0.258291,-0.41793 -1.326463,-0.25567 -1.592778,0.24195 -0.659414,1.23212 -0.0077,2.12208 1.024508,1.39908 0.308739,-0.21625 0.647906,-0.39318 0.753703,-0.39318 0.356284,0 0.196075,0.66218 -0.260088,1.075 -0.493171,0.44631 -1.106508,0.4977 -1.938037,0.16239 z m 3.030884,0.0351 c -0.171839,-0.27804 -0.0031,-1.56564 0.342382,-2.61242 0.244203,-0.73995 0.400841,-0.85251 1.393485,-1.00136 1.353644,-0.20299 1.835257,0.11435 1.815729,1.19643 -0.01893,1.04886 -0.528738,2.44367 -0.942692,2.57917 -0.260062,0.0851 -0.309389,-0.11052 -0.213643,-0.84735 0.06847,-0.52692 0.201765,-1.19318 0.296214,-1.48058 0.122384,-0.37241 0.05036,-0.56913 -0.250683,-0.68465 -0.630714,-0.24202 -1.035186,0.2325 -1.468411,1.72274 -0.366868,1.26199 -0.671312,1.61516 -0.972381,1.12802 z m 3.997894,-0.0973 c -0.05705,-0.1701 -0.0015,-0.69893 0.123452,-1.1752 0.124944,-0.47626 0.287128,-1.17767 0.360409,-1.55869 0.09009,-0.46839 0.263409,-0.66769 0.535159,-0.61536 0.305217,0.0588 0.382358,0.30447 0.320615,1.02111 -0.147362,1.71044 -1.031486,3.24695 -1.339635,2.32814 z m 2.004394,-0.22293 c -0.251599,-0.25159 -0.457453,-0.70994 -0.457453,-1.01854 0,-0.72432 1.089118,-2.32753 1.716428,-2.52663 0.578965,-0.18375 1.994713,0.49041 1.994713,0.94986 0,0.55412 -0.29185,0.65034 -0.829779,0.27356 -0.284553,-0.19931 -0.595978,-0.36238 -0.692056,-0.36238 -0.42299,0 -0.952259,0.8392 -0.952259,1.50989 0,0.8754 0.664188,1.24918 1.117685,0.62899 0.173158,-0.23681 0.471444,-0.35132 0.69334,-0.26617 0.433635,0.1664 1.632799,-0.59761 1.644931,-1.04802 0.0043,-0.15875 -0.131393,-0.34602 -0.301487,-0.41615 -0.40621,-0.16747 0.918567,-1.39818 1.505055,-1.39818 0.234285,0 0.673413,0.17331 0.975841,0.38514 0.571422,0.40024 0.678856,1.34233 0.33504,2.93797 -0.149413,0.69342 -0.212947,0.72427 -1.444895,0.70161 -0.733044,-0.0135 -1.527032,-0.1907 -1.84162,-0.41104 -0.467902,-0.32773 -0.612274,-0.33564 -0.938075,-0.0514 -0.653621,0.57029 -2.006856,0.63002 -2.525409,0.11147 z m 5.727781,-0.70486 c 0.213561,-0.39904 0.188153,-0.49482 -0.131265,-0.49482 -0.596985,0 -1.386741,0.48779 -1.221814,0.75464 0.254193,0.4113 1.078634,0.25299 1.353079,-0.25982 z m 0.24741,-1.46985 c 0,-0.12805 -0.112331,-0.30224 -0.249624,-0.38709 -0.349763,-0.21616 -1.272591,0.11123 -1.100119,0.3903 0.185962,0.30089 1.349743,0.29812 1.349743,-0.003 z m 9.217818,2.50848 c -0.954287,-0.055 -1.361337,-0.19479 -1.540217,-0.52903 -0.36751,-0.6867 0.786724,-1.74665 1.902015,-1.74665 0.574649,0 0.817746,-0.10087 0.745303,-0.30926 -0.117769,-0.33877 -0.738402,-0.37283 -1.603739,-0.088 -0.874538,0.28784 -0.703553,-0.50369 0.210964,-0.9766 0.628701,-0.32512 0.895884,-0.34384 1.476229,-0.10345 0.389727,0.16143 0.775004,0.50274 0.856171,0.75848 0.203034,0.63971 -0.121826,2.63895 -0.46728,2.87572 -0.155301,0.10644 -0.866052,0.1599 -1.579446,0.11881 z m 0.534617,-0.69398 c 0.215242,-0.0826 0.391349,-0.3638 0.391349,-0.62488 0,-0.4478 -0.04206,-0.45295 -0.742228,-0.0909 -1.129403,0.58404 -0.84068,1.173 0.350879,0.71576 z m 9.403306,0.57084 c -0.48104,-0.2699 -0.44574,-1.33361 0.0535,-1.61301 0.28137,-0.15747 0.36645,-0.43494 0.27694,-0.9032 -0.11156,-0.58361 -0.0163,-0.72305 0.69731,-1.02124 0.89743,-0.37497 1.93032,-0.11286 2.18656,0.55487 0.12699,0.33094 -0.24937,2.79051 -0.4591,3.00024 -0.19558,0.19558 -2.40038,0.18145 -2.75525,-0.0177 z m 1.87406,-0.91549 c 0,-0.55113 -0.48488,-0.65321 -0.94016,-0.19793 -0.46119,0.46121 -0.35368,0.69275 0.32164,0.69275 0.45358,0 0.61852,-0.13195 0.61852,-0.49482 z m 0.49482,-1.46985 c 0,-0.37482 -0.46062,-0.55362 -0.99185,-0.38502 -0.74443,0.23628 -0.59028,0.61782 0.24962,0.61782 0.40822,0 0.74223,-0.10476 0.74223,-0.2328 z m 1.40368,2.52895 c -0.11368,-0.18394 0.34977,-2.70437 0.78571,-4.27302 0.24183,-0.87017 1.02693,-0.98045 1.02693,-0.14425 0,0.51259 0.11943,0.63667 0.61282,0.63667 0.97212,0 1.3797,0.86534 1.10062,2.33673 -0.23492,1.23851 -0.65878,1.78581 -1.06694,1.37764 -0.13315,-0.13315 -0.0944,-0.68478 0.0957,-1.36398 0.22828,-0.81533 0.24326,-1.21645 0.0526,-1.40714 -0.49225,-0.49226 -0.99389,0.003 -1.45269,1.43472 -0.42807,1.33568 -0.86679,1.86857 -1.15475,1.40263 z m -52.13655,-0.59033 c -0.427562,-0.79891 -0.06728,-2.08831 0.783566,-2.80424 0.893773,-0.75207 1.369326,-0.78491 2.193666,-0.1515 0.776035,0.5963 0.854754,2.1802 0.147211,2.96203 -0.669947,0.74028 -2.727105,0.73614 -3.124443,-0.006 z m 2.486195,-0.71174 c 0.41872,-1.01087 0.171567,-1.54136 -0.672575,-1.44361 -1.243112,0.14395 -1.457278,2.1814 -0.229298,2.1814 0.428468,0 0.682276,-0.20763 0.901873,-0.73779 z m 1.486297,0.72364 c 0,-0.27993 0.105472,-0.97577 0.234383,-1.54631 0.128911,-0.57053 0.300957,-1.45484 0.382325,-1.96512 0.112452,-0.70522 0.263955,-0.92779 0.63155,-0.92779 0.534289,0 0.593401,0.31158 0.262891,1.38569 -0.121394,0.39451 -0.361844,1.35746 -0.534334,2.13989 -0.191409,0.86826 -0.442831,1.42261 -0.645216,1.42261 -0.182379,0 -0.331599,-0.22904 -0.331599,-0.50897 z m 5.566098,0.0135 c -0.392949,-0.4342 -0.411729,-0.61795 -0.151819,-1.48545 0.166289,-0.55503 0.569406,-1.16871 0.917537,-1.39682 0.341516,-0.22377 0.78878,-0.73142 0.99392,-1.12812 0.444931,-0.8604 0.994163,-0.78574 0.884971,0.1203 -0.04821,0.40001 0.115469,0.83611 0.432967,1.15361 0.954446,0.95445 0.473128,1.73052 -1.137151,1.83354 -0.665046,0.0426 -0.972034,0.18638 -1.028989,0.48213 -0.106185,0.55137 0.634119,0.55539 1.240374,0.007 0.595911,-0.53929 1.207257,-0.08 0.702713,0.52797 -0.477376,0.5752 -2.296587,0.50261 -2.854523,-0.1139 z m 2.351002,-1.96399 c 0,-0.35542 -0.405113,-0.52832 -0.843606,-0.36005 -0.604079,0.23181 -0.467004,0.59285 0.225083,0.59285 0.340188,0 0.618523,-0.10476 0.618523,-0.2328 z m 21.044869,1.99283 c -0.357231,-0.66749 -0.330069,-1.15908 0.111194,-2.01239 0.450407,-0.87099 1.244036,-1.33974 2.156678,-1.27382 0.533998,0.0386 0.707355,-0.081 0.830902,-0.57329 0.176208,-0.70207 0.850501,-0.85494 0.83393,-0.18906 -0.0059,0.23813 -0.123411,0.93397 -0.261076,1.54631 -0.137665,0.61233 -0.329101,1.50301 -0.425414,1.97927 -0.173009,0.85553 -0.19199,0.86682 -1.579423,0.93968 -1.190885,0.0625 -1.444201,-7.8e-4 -1.666791,-0.4167 z m 2.191852,-0.60976 c 0.444988,-0.83147 0.260565,-1.76879 -0.348019,-1.76879 -0.59464,0 -1.213564,1.16055 -0.991708,1.85955 0.212428,0.6693 0.960061,0.61865 1.339727,-0.0908 z m 8.057208,0.27234 c 0.10021,-0.44225 0.271014,-1.24942 0.379554,-1.79372 0.454455,-2.27903 0.572545,-2.46796 1.595875,-2.55316 1.36774,-0.11388 2.08839,0.13163 2.40111,0.81799 0.2175,0.47735 0.19079,0.7287 -0.12936,1.21732 -0.24688,0.37678 -0.30851,0.67443 -0.1588,0.76696 0.40805,0.25219 0.274,1.50321 -0.20779,1.93923 -0.33399,0.30225 -0.92508,0.40946 -2.25762,0.40946 h -1.805169 z m 3.093369,-0.0587 c 0.6332,-0.76296 -0.21357,-1.54957 -1.35869,-1.26217 -0.48613,0.12201 -0.61797,0.31245 -0.61797,0.89262 0,0.67284 0.0733,0.73751 0.83564,0.73751 0.4596,0 0.97306,-0.16558 1.14102,-0.36796 z m 0.21252,-2.32512 c 0.18348,-0.11628 0.29329,-0.42075 0.24402,-0.67659 -0.0673,-0.34921 -0.30461,-0.46517 -0.95213,-0.46517 -0.75704,0 -0.87212,0.0832 -0.94083,0.68037 -0.0691,0.60042 0.004,0.67993 0.61852,0.67659 0.38325,-0.002 0.84694,-0.0989 1.03042,-0.2152 z m 9.80125,2.50752 c 0.0949,-0.3742 0.23166,-1.10616 0.304,-1.62657 0.12916,-0.92923 0.55064,-1.35138 1.04449,-1.04616 0.16045,0.0992 0.16771,0.3506 0.0203,0.70229 -0.1263,0.30131 -0.34906,1.02101 -0.49503,1.59933 -0.17181,0.68071 -0.40306,1.05149 -0.65581,1.05149 -0.30279,0 -0.35171,-0.15272 -0.21795,-0.68038 z m 1.92453,0.39404 c -0.42704,-0.42703 -0.38452,-1.18407 0.0764,-1.36096 0.27704,-0.10631 0.34134,-0.34102 0.23101,-0.84333 -0.13194,-0.60071 -0.0455,-0.75154 0.63116,-1.10146 0.64435,-0.33321 0.91028,-0.35315 1.49263,-0.11193 0.87372,0.3619 1.00728,0.76451 0.77734,2.34327 l -0.18017,1.23705 -1.36048,0.0724 c -0.84465,0.045 -1.47705,-0.0442 -1.66792,-0.23504 z m 1.99092,-0.7033 c 0.14381,-0.54994 -0.11147,-0.62334 -0.83018,-0.2387 -0.65823,0.35227 -0.60048,0.73352 0.11111,0.73352 0.3816,0 0.63533,-0.1746 0.71907,-0.49482 z m 0.42313,-1.46985 c 0,-0.37482 -0.46062,-0.55362 -0.99185,-0.38502 -0.74444,0.23628 -0.59028,0.61783 0.24962,0.61783 0.40823,0 0.74223,-0.10477 0.74223,-0.23281 z m -38.218597,-1.98393 c -0.20982,-0.33949 -0.02408,-0.59436 0.34157,-0.46869 0.149747,0.0515 0.168889,0.22613 0.04639,0.4233 -0.154634,0.24889 -0.25494,0.26062 -0.38796,0.0454 z m 34.878577,-0.01 c -0.0988,-0.15979 -0.0682,-0.40186 0.0678,-0.53793 0.16494,-0.16494 0.30726,-0.15057 0.42696,0.0431 0.0988,0.15979 0.0682,0.40186 -0.0679,0.53793 -0.16494,0.16494 -0.30726,0.15057 -0.42696,-0.0431 z m -50.842634,-0.24745 c 0,-0.13607 0.167001,-0.24741 0.371114,-0.24741 0.204113,0 0.371114,0.11134 0.371114,0.24741 0,0.13608 -0.167001,0.24741 -0.371114,0.24741 -0.204113,0 -0.371114,-0.11133 -0.371114,-0.24741 z m 21.882407,-1.01119 c -0.09143,-0.14793 -0.04875,-0.38645 0.09483,-0.53003 0.183148,-0.18315 0.08072,-0.49752 -0.343189,-1.05329 -0.700097,-0.91787 -0.740661,-1.6885 -0.142529,-2.70773 0.770303,-1.31262 3.002004,-1.42121 3.002004,-0.14607 0,0.58413 -0.08464,0.60597 -0.74644,0.19267 -0.929777,-0.58066 -1.84583,0.72976 -1.372469,1.96332 0.128534,0.33495 0.212429,0.33262 0.751974,-0.0209 0.334014,-0.21886 0.828147,-0.39792 1.098074,-0.39792 0.269927,0 0.791106,-0.27833 1.158175,-0.61852 0.387774,-0.35938 0.963236,-0.61853 1.373498,-0.61853 0.752839,0 0.958155,-0.41362 0.325772,-0.65629 -0.209181,-0.0803 -0.571017,0.02 -0.80408,0.22289 -0.59085,0.51428 -1.117259,0.29357 -0.784185,-0.32878 0.139776,-0.26118 0.410349,-0.47486 0.601273,-0.47486 0.225045,0 0.330753,-0.2393 0.300557,-0.68038 -0.04328,-0.63224 0.02782,-0.68576 1.004912,-0.75645 1.242914,-0.0899 1.48845,0.50017 0.371114,0.8919 l -0.680376,0.23854 0.680376,0.27077 c 0.760579,0.3027 0.868405,0.95682 0.422425,2.56262 -0.295484,1.06393 -0.319064,1.08431 -1.514467,1.30857 -0.742384,0.13927 -1.001317,0.0708 -1.457872,-0.38581 -0.669845,-0.66984 -1.145348,-0.46735 -1.768191,0.75298 -0.576626,1.12978 -1.22538,1.53083 -1.571191,0.9713 z m 4.952021,-2.2913 c 0.562008,-0.41095 0.313689,-0.90434 -0.365727,-0.72667 -0.588905,0.154 -0.826964,0.46894 -0.614421,0.81284 0.205184,0.332 0.436026,0.3117 0.980148,-0.0862 z m -21.836759,0.77892 c -0.366258,-0.36626 -0.371645,-0.81465 -0.02898,-2.41244 0.162126,-0.75597 0.400584,-1.24922 0.603922,-1.24922 0.555578,0 0.635824,0.40097 0.318034,1.58915 -0.362361,1.35483 -0.09081,1.82 0.727756,1.24665 0.305759,-0.21416 0.608081,-0.77211 0.702559,-1.2966 0.09121,-0.50638 0.27629,-1.05985 0.411284,-1.22994 0.712247,-0.89744 0.898921,0.292 0.339757,2.16483 -0.272542,0.91284 -0.461234,1.14149 -1.047734,1.26963 -1.166069,0.25476 -1.711874,0.23266 -2.026598,-0.0821 z m 8.358361,-0.20201 c -1.195088,-1.19509 0.15319,-3.93702 1.776307,-3.61239 0.504182,0.10083 0.701863,0.0426 0.701863,-0.20689 0,-0.52626 0.765622,-1.2004 1.045471,-0.92055 0.23567,0.23567 -0.68808,4.64673 -1.015477,4.84908 -0.08661,0.0535 -0.563689,0.17352 -1.060183,0.26667 -0.739056,0.13865 -1.001571,0.0705 -1.447981,-0.37592 z m 2.051298,-1.39535 c 0.170206,-0.89037 -0.01936,-1.32207 -0.580531,-1.32207 -0.538212,0 -0.971872,0.70112 -0.971872,1.57127 0,1.1629 1.323064,0.95052 1.552403,-0.2492 z m 2.096885,1.63324 c -0.537723,-0.32092 -0.584229,-1.67575 -0.06437,-1.87524 0.23669,-0.0908 0.347363,-0.41448 0.309262,-0.9044 -0.05198,-0.66834 0.04103,-0.79253 0.750028,-1.00144 0.554502,-0.16339 1.002469,-0.1505 1.422604,0.0409 0.541069,0.24653 0.61324,0.43461 0.61324,1.59818 0,0.72532 -0.139167,1.49692 -0.309261,1.71466 -0.387573,0.49615 -2.144049,0.77193 -2.721504,0.42731 z m 1.793718,-1.09974 c 0,-0.38815 -0.430011,-0.4754 -1.091686,-0.22149 -0.548839,0.21061 -0.234427,0.5926 0.487764,0.5926 0.37188,0 0.603922,-0.14259 0.603922,-0.37111 z m 0.494819,-1.58169 c 0,-0.31277 -0.672883,-0.53237 -1.113342,-0.36335 -0.628772,0.24128 -0.41091,0.58429 0.371114,0.58429 0.408226,0 0.742228,-0.0994 0.742228,-0.22094 z m 9.704016,2.5573 c -1.214206,-0.85047 -0.407522,-3.348 1.195067,-3.69999 1.204457,-0.26454 1.968032,0.38996 1.958336,1.67859 -0.0085,1.12747 -0.301056,1.666 -1.151061,2.11872 -0.734701,0.3913 -1.347236,0.36153 -2.002342,-0.0973 z m 2.149122,-1.1959 c 0.169348,-0.20405 0.271526,-0.62763 0.227061,-0.94129 -0.116247,-0.82002 -1.146013,-0.91557 -1.727011,-0.16023 -1.131754,1.47135 0.312676,2.5321 1.49995,1.10152 z m 3.665861,1.26641 c -0.231399,-0.60301 0.761946,-4.72875 1.218996,-5.06295 0.485124,-0.35473 2.755149,-0.41668 3.272019,-0.0893 0.61524,0.38968 0.0237,0.7661 -1.20382,0.7661 -1.137075,0 -1.982359,0.42401 -1.982359,0.99438 0,0.11924 0.584514,0.25046 1.298909,0.29159 0.95641,0.0551 1.29891,0.17264 1.29891,0.44589 0,0.2698 -0.33641,0.39234 -1.23227,0.44886 -1.250809,0.0789 -1.602349,0.31866 -1.609169,1.09745 -0.003,0.36102 0.22537,0.43297 1.375119,0.43297 1.17976,0 1.36696,0.0625 1.29628,0.43297 -0.0678,0.35556 -0.39738,0.44585 -1.843335,0.50504 -1.304534,0.0534 -1.794013,-0.0147 -1.88928,-0.263 z m 5.318455,-0.0705 c -0.56383,-0.39492 -0.75206,-1.09931 -0.29376,-1.09931 0.14086,0 0.52023,0.17305 0.84303,0.38456 0.96327,0.63116 1.10876,-0.0861 0.17341,-0.85495 -0.99968,-0.82172 -1.02052,-1.5957 -0.0537,-1.99615 0.85317,-0.35339 1.65224,-0.15786 1.99843,0.48901 0.26103,0.48773 -0.0865,0.95516 -0.36955,0.49711 -0.0855,-0.13829 -0.45499,-0.24812 -0.82117,-0.24406 -0.64952,0.007 -0.63901,0.0305 0.43112,0.95548 l 1.09689,0.94809 -0.65268,0.65268 c -0.7396,0.73961 -1.5469,0.83144 -2.35198,0.26754 z m 3.71793,-0.0291 c -0.86877,-0.60602 -0.77263,-2.12933 0.19547,-3.09743 0.63181,-0.63181 0.8792,-0.72694 1.54631,-0.59462 0.43679,0.0866 0.96624,0.38409 1.17655,0.66099 0.38212,0.50313 0.38268,0.50313 0.82973,0.009 0.55733,-0.61583 1.69831,-0.88469 2.32688,-0.54829 0.26147,0.13993 0.61077,0.58125 0.77623,0.9807 0.24835,0.59958 0.23294,0.85758 -0.0884,1.4789 -0.4241,0.82011 -1.28114,1.52488 -1.85436,1.52488 -0.19944,0 -0.73701,-0.2505 -1.19461,-0.55667 -0.67731,-0.45318 -0.81422,-0.6859 -0.73638,-1.25174 0.0769,-0.55922 -0.0391,-0.76473 -0.59363,-1.05149 -0.37908,-0.19603 -0.85786,-0.35642 -1.06394,-0.35642 -0.70395,0 -1.21976,1.74436 -0.62458,2.1122 0.14429,0.0892 0.59319,0.0251 0.99757,-0.1424 0.40437,-0.1675 0.78995,-0.24982 0.85682,-0.18295 0.24605,0.24605 -0.18215,0.87559 -0.78123,1.14855 -0.79544,0.36242 -1.08954,0.34025 -1.76847,-0.13335 z m 5.42353,-0.73742 c 0.26654,-0.24121 0.45244,-0.7495 0.45244,-1.23704 0,-0.69863 -0.0887,-0.82759 -0.56904,-0.82759 -0.74705,0 -1.16282,0.44231 -1.16282,1.23705 0,0.56861 0.38385,1.23704 0.71037,1.23704 0.0641,0 0.3202,-0.18425 0.56905,-0.40946 z m 3.97803,0.7779 c -0.30617,-0.21807 -0.55667,-0.60654 -0.55667,-0.86325 0,-0.25672 0.2505,-0.65163 0.55667,-0.87757 0.37283,-0.27514 0.45454,-0.44999 0.24741,-0.52946 -0.50317,-0.19307 -0.35436,-0.77871 0.30817,-1.21281 1.37765,-0.90267 3.43827,0.37807 2.64695,1.64517 -0.16251,0.26022 -0.29547,0.68368 -0.29547,0.94101 0,0.61676 -0.42813,0.94445 -1.48446,1.13621 -0.60365,0.10959 -1.03454,0.0371 -1.4226,-0.2393 z m 1.91742,-1.11937 c 0,-0.27155 -0.51172,-0.31163 -1.09942,-0.0861 -0.30469,0.11692 -0.33227,0.23139 -0.11796,0.48962 0.30109,0.3628 1.21738,0.0591 1.21738,-0.40351 z m 0.24741,-1.46115 c 0,-0.35541 -0.40512,-0.52831 -0.84361,-0.36005 -0.60408,0.23181 -0.467,0.59286 0.22508,0.59286 0.34019,0 0.61853,-0.10476 0.61853,-0.23281 z m -55.667115,2.20165 c 0,-1.1845 0.802208,-4.34147 1.176135,-4.62849 0.470887,-0.36145 2.491993,-0.40709 3.027757,-0.0684 0.565108,0.35727 0.03375,0.70644 -1.209782,0.79497 -0.692167,0.0493 -1.184162,0.23071 -1.352001,0.49857 -0.35236,0.56235 -0.141054,0.72344 1.108499,0.84506 1.25335,0.12198 1.37636,0.21208 0.965495,0.70714 -0.193796,0.23351 -0.728301,0.37709 -1.403772,0.37709 -1.116034,0 -1.153237,0.0338 -1.430447,1.2989 -0.172551,0.78748 -0.881884,0.92834 -0.881884,0.17513 z m 8.502476,-0.15223 c 0.07696,-0.3868 0.211051,-1.11681 0.297977,-1.62224 0.183859,-1.06906 0.424411,-1.3048 1.549142,-1.51817 0.874436,-0.16589 1.631765,0.10286 1.843306,0.65412 0.126432,0.32948 -0.431679,2.84585 -0.688046,3.10222 -0.379832,0.37983 -0.603427,-0.45578 -0.405479,-1.51534 0.160446,-0.85883 0.134385,-1.22608 -0.10086,-1.42132 -0.465456,-0.38629 -1.291082,0.60313 -1.535774,1.84045 -0.134785,0.68156 -0.346215,1.03835 -0.649981,1.09685 -0.374249,0.0721 -0.426604,-0.032 -0.310285,-0.61657 z m 42.818459,0.002 c 0.0959,-0.38773 0.27029,-1.26165 0.38763,-1.94202 0.35783,-2.0749 0.53794,-2.5978 0.89477,-2.5978 0.77926,0 -0.21082,4.99698 -1.02205,5.15835 -0.36325,0.0722 -0.40601,-0.0293 -0.26035,-0.61853 z m -85.277872,-2.0101 c -3.2579,-0.057 -3.896697,-0.12861 -3.896697,-0.43703 0,-0.45431 1.108424,-5.966934 1.540066,-7.659343 l 0.315504,-1.237397 7.901192,-0.06539 c 4.589891,-0.03799 7.996815,0.03023 8.129361,0.162779 0.139287,0.139287 0.130856,0.550271 -0.02164,1.055028 -0.137396,0.454772 -0.556268,2.469038 -0.930826,4.476143 -0.380115,2.03689 -0.800786,3.65431 -0.952088,3.66065 -1.686758,0.0707 -9.033825,0.0976 -12.08487,0.0442 z m 11.409734,-1.84929 c 0.439515,-1.39778 1.330614,-6.145231 1.181459,-6.294385 -0.185911,-0.185912 -13.199058,-0.274517 -13.491923,-0.09187 -0.288696,0.180051 -1.571804,6.645215 -1.380329,6.955025 0.08613,0.13936 2.855534,0.23531 6.791695,0.23531 h 6.646264 z m 2.32136,1.59637 c -0.129849,-0.33697 0.01799,-1.47965 0.406607,-3.14267 0.127191,-0.544305 0.419596,-1.935983 0.649788,-3.092622 0.633778,-3.184521 0.257588,-2.945651 4.763209,-3.02451 3.26376,-0.05712 3.891341,-0.127959 3.891341,-0.439221 0,-0.260517 -0.317374,-0.393983 -1.064966,-0.447851 -0.659737,-0.04754 -1.118779,-0.21697 -1.206389,-0.445277 -0.157246,-0.409777 0.151364,-2.129153 1.09057,-6.075939 0.522701,-2.196527 0.715974,-2.662991 1.151847,-2.779978 0.834626,-0.224011 11.622505,-0.161734 11.986799,0.0692 0.407709,0.258455 0.313445,0.972994 -0.983242,7.453162 -0.530961,2.653466 -1.254812,6.327495 -1.608558,8.16451 -0.353745,1.837016 -0.800797,3.507026 -0.993449,3.711146 -0.2986,0.31636 -1.649201,0.37111 -9.155058,0.37111 -6.98779,0 -8.830314,-0.0663 -8.928499,-0.32105 z m 16.959278,-1.10286 c 0.141765,-0.17082 0.76993,-2.815004 1.395922,-5.875973 0.625993,-3.060969 1.359413,-6.567406 1.629822,-7.792083 0.27041,-1.224676 0.490884,-2.477186 0.489943,-2.783355 l -0.0017,-0.556672 h -5.041599 c -3.735016,0 -5.106383,0.08015 -5.291578,0.309262 -0.278617,0.344688 -1.007925,3.97046 -1.107279,5.504859 -0.06174,0.953437 -0.03568,0.990543 0.712269,1.014379 1.625419,0.0518 1.870823,0.507997 1.250814,2.325219 l -0.295298,0.865504 -3.497247,-0.08529 c -3.733726,-0.09106 -4.398408,0.05418 -4.605986,1.006439 -0.919915,4.220111 -1.19041,5.732871 -1.077639,6.026741 0.187108,0.4876 15.0362,0.527 15.439568,0.041 z M 32.281022,30.448682 c -0.304947,-0.304947 -0.202799,-1.586614 0.313743,-3.936575 0.269195,-1.224676 0.612038,-2.839023 0.761875,-3.587436 0.149837,-0.748414 0.400845,-1.442548 0.557796,-1.54252 0.382734,-0.243789 15.789814,-0.234087 16.174274,0.01018 0.230761,0.146617 0.09829,1.181012 -0.560855,4.379542 -0.474635,2.303174 -0.971732,4.296348 -1.104661,4.429276 -0.285566,0.285566 -15.865232,0.524468 -16.142172,0.247528 z m 15.097352,-1.153219 c 0.337829,-0.417632 1.590375,-6.092824 1.409361,-6.385711 -0.233083,-0.377136 -13.894595,-0.302965 -14.140365,0.07677 -0.279621,0.432038 -1.319619,6.160733 -1.164111,6.412351 0.06997,0.113218 3.168711,0.20585 6.886085,0.20585 5.108728,0 6.819939,-0.0755 7.00903,-0.30926 z"
       id="path1" /></g></svg>
