<?xml version="1.0" encoding="UTF-8" standalone="no"?>
<!-- Created with Inkscape (http://www.inkscape.org/) -->

<svg
   width="125mm"
   height="75mm"
   viewBox="0 0 125 75"
   version="1.1"
   id="svg1"
   xml:space="preserve"
   inkscape:version="1.4.3 (0d15f75, 2025-12-25)"
   sodipodi:docname="logo-latapack.svg"
   xmlns:inkscape="http://www.inkscape.org/namespaces/inkscape"
   xmlns:sodipodi="http://sodipodi.sourceforge.net/DTD/sodipodi-0.dtd"
   xmlns="http://www.w3.org/2000/svg"
   xmlns:svg="http://www.w3.org/2000/svg"><sodipodi:namedview
     id="namedview1"
     pagecolor="#505050"
     bordercolor="#eeeeee"
     borderopacity="1"
     inkscape:showpageshadow="0"
     inkscape:pageopacity="0"
     inkscape:pagecheckerboard="0"
     inkscape:deskcolor="#505050"
     inkscape:document-units="mm"
     inkscape:zoom="0.76167929"
     inkscape:cx="397.14878"
     inkscape:cy="456.22876"
     inkscape:window-width="1920"
     inkscape:window-height="1057"
     inkscape:window-x="-8"
     inkscape:window-y="-8"
     inkscape:window-maximized="1"
     inkscape:current-layer="layer1" /><defs
     id="defs1" /><g
     inkscape:label="Camada 1"
     inkscape:groupmode="layer"
     id="layer1"><g
       id="g27"
       transform="matrix(1.1481971,0,0,1.1481971,-17.207084,-3.9491555)"><path
         style="fill:#a0a4cc"
         d="m 68.894457,67.649474 29.549427,-0.09327 -0.09248,-27.320702 c -0.05086,-15.026385 0.02757,-27.200611 0.17431,-27.053835 0.146734,0.146776 0.226109,12.481686 0.176389,27.410912 l -0.0904,27.144045 -29.633335,0.0031 -29.633335,0.0031 z M 64.104914,56.360205 c 3.334464,-0.05793 8.890714,-0.05803 12.347223,-2.19e-4 3.45651,0.05781 0.728312,0.105204 -6.062661,0.105325 -6.790972,1.2e-4 -9.619025,-0.04718 -6.284562,-0.105106 z M 90.6742,52.567179 c 0.658207,-0.679097 1.276115,-1.234722 1.373129,-1.234722 0.09701,0 -0.362144,0.555625 -1.020351,1.234722 -0.658207,0.679098 -1.276115,1.234723 -1.373129,1.234723 -0.09701,0 0.362144,-0.555625 1.020351,-1.234723 z m -20.108816,-3.96875 c -2.64e-4,-0.145521 0.912548,-0.219722 2.028473,-0.164891 3.540027,0.17394 3.887051,0.322049 0.882425,0.376617 -1.600729,0.02907 -2.910633,-0.06621 -2.910898,-0.211726 z m 6.615065,0.01562 c 0.436563,-0.08408 1.150938,-0.08408 1.5875,0 0.436563,0.08409 0.07937,0.152883 -0.79375,0.152883 -0.873125,0 -1.230313,-0.0688 -0.79375,-0.152883 z M 93.171495,47.95167 c 0.01693,-0.410966 0.100521,-0.494559 0.213137,-0.213137 0.101907,0.254662 0.08937,0.558932 -0.02785,0.676158 -0.117225,0.117225 -0.200604,-0.09113 -0.185287,-0.463021 z M 80.97281,47.451901 c 0.351186,-0.388055 0.717894,-0.705556 0.814908,-0.705556 0.09701,0 -0.110944,0.317501 -0.46213,0.705556 -0.351185,0.388056 -0.717894,0.705556 -0.814908,0.705556 -0.09701,0 0.110945,-0.3175 0.46213,-0.705556 z m 12.198685,-1.969676 c 0.01693,-0.410966 0.100521,-0.494559 0.213137,-0.213137 0.101907,0.254662 0.08937,0.558933 -0.02785,0.676158 -0.117225,0.117225 -0.200604,-0.09113 -0.185287,-0.463021 z M 71.327123,44.982456 c 0,-0.485069 0.08007,-0.683507 0.177936,-0.440972 0.09786,0.242535 0.09786,0.63941 0,0.881945 -0.09786,0.242534 -0.177936,0.0441 -0.177936,-0.440973 z M 60.010382,44.423892 c 0.01693,-0.410966 0.100521,-0.494559 0.213137,-0.213137 0.101907,0.254661 0.08937,0.558932 -0.02785,0.676157 -0.117225,0.117226 -0.200604,-0.09113 -0.185286,-0.46302 z m 32.4786,-1.11713 c -0.384952,-0.899599 -0.376244,-0.920347 0.119763,-0.285352 0.294195,0.376633 0.5349,0.813196 0.5349,0.970139 0,0.53619 -0.239301,0.285878 -0.654663,-0.684787 z M 71.652049,43.01278 c 0.01693,-0.410966 0.100521,-0.494559 0.213137,-0.213136 0.101907,0.254661 0.08937,0.558932 -0.02785,0.676157 -0.117225,0.117225 -0.200603,-0.09113 -0.185287,-0.463021 z m 9.452152,-0.0588 c -0.43881,-0.559525 -0.426333,-0.572003 0.133193,-0.133193 0.587639,0.460858 0.774516,0.750554 0.484168,0.750554 -0.07326,0 -0.351069,-0.277812 -0.617361,-0.617361 z m -7.45153,-1.053833 c 1.018646,-0.07126 2.685521,-0.07126 3.704167,0 1.018646,0.07126 0.185208,0.129568 -1.852084,0.129568 -2.037291,0 -2.870729,-0.05831 -1.852083,-0.129568 z m 17.682086,-0.357278 c -0.43881,-0.559525 -0.426332,-0.572003 0.133193,-0.133193 0.339549,0.266292 0.617361,0.544105 0.617361,0.617361 0,0.290348 -0.289696,0.103471 -0.750554,-0.484168 z m -1.916202,-1.885937 c -0.131423,-0.212647 0.04895,-0.649209 0.400832,-0.970139 0.597376,-0.544832 0.609821,-0.543613 0.18776,0.0184 -0.248612,0.331049 -0.349611,0.767612 -0.224442,0.970139 0.125168,0.202527 0.148204,0.368231 0.05119,0.368231 -0.09701,0 -0.283917,-0.173984 -0.41534,-0.386631 z m -16.500838,-3.72911 c -0.129352,-0.129352 -0.232754,-0.407164 -0.229783,-0.617361 0.0033,-0.236706 0.108761,-0.219536 0.276943,0.04511 0.173987,0.273777 1.534489,0.469045 3.786959,0.543528 l 3.515419,0.116246 -3.557176,0.07383 c -1.956447,0.04061 -3.66301,-0.032 -3.792362,-0.161353 z m 19.901474,-0.823148 c 0.514283,-1.079865 0.677231,-1.279998 0.677231,-0.831779 0,0.189282 -0.246882,0.652303 -0.548628,1.028936 -0.517305,0.645691 -0.524648,0.634435 -0.128603,-0.197157 z m -11.317214,0.219584 c 0,-0.07326 0.277813,-0.351068 0.617361,-0.617361 0.559525,-0.43881 0.572003,-0.426332 0.133193,0.133193 -0.460858,0.587639 -0.750554,0.774517 -0.750554,0.484168 z m -8.438816,-1.836483 c 0.01693,-0.410966 0.10052,-0.494559 0.213136,-0.213136 0.101907,0.254661 0.08938,0.558932 -0.02785,0.676157 -0.117225,0.117225 -0.200603,-0.09113 -0.185285,-0.463021 z m 9.905629,-0.852546 c 0,-0.485069 0.08007,-0.683507 0.177936,-0.440972 0.09786,0.242535 0.09786,0.63941 0,0.881944 -0.09786,0.242535 -0.177936,0.0441 -0.177936,-0.440972 z M 73.415938,31.72389 c 0.01693,-0.410966 0.100521,-0.494559 0.213137,-0.213136 0.101907,0.254661 0.08937,0.558932 -0.02785,0.676157 -0.117225,0.117225 -0.200603,-0.09113 -0.185287,-0.463021 z m 20.502036,-0.676157 c 0.0072,-0.582084 0.08625,-0.7775 0.175698,-0.434258 0.08944,0.343241 0.08356,0.819491 -0.01307,1.058333 -0.09663,0.238842 -0.169816,-0.04199 -0.162626,-0.624075 z M 81.501977,30.518566 c -0.317956,-0.205479 -0.361468,-0.34413 -0.109014,-0.347376 0.231084,-0.003 0.518265,0.153348 0.638181,0.347376 0.270688,0.437983 0.148563,0.437983 -0.529167,0 z M 79.649894,29.93215 c 0.242534,-0.09786 0.639409,-0.09786 0.881944,0 0.242535,0.09786 0.0441,0.177937 -0.440972,0.177937 -0.48507,0 -0.683507,-0.08007 -0.440972,-0.177937 z m 11.703161,-4.617057 -0.855244,-0.970139 0.970139,0.855245 c 0.906741,0.799354 1.131919,1.085033 0.855244,1.085033 -0.06319,0 -0.499755,-0.436562 -0.970139,-0.970139 z M 63.53816,23.962778 c 0.01693,-0.410966 0.100521,-0.494558 0.213137,-0.213136 0.101907,0.254661 0.08937,0.558932 -0.02785,0.676157 -0.117225,0.117225 -0.200604,-0.09113 -0.185286,-0.463021 z m 22.483783,-1.446311 c 0.254661,-0.101907 0.558932,-0.08937 0.676157,0.02785 0.117225,0.117225 -0.09113,0.200603 -0.463021,0.185285 -0.410966,-0.01693 -0.494559,-0.10052 -0.213136,-0.213135 z M 69.772115,22.140898 c 2.764896,-0.0596 7.289271,-0.0596 10.054167,0 2.764897,0.0596 0.502709,0.108372 -5.027083,0.108372 -5.529792,0 -7.79198,-0.04877 -5.027084,-0.108372 z M 54.099888,12.967955 c 8.115172,-0.05283 21.291422,-0.05281 29.280557,4.5e-5 7.989135,0.05286 1.349449,0.09609 -14.754858,0.09606 -16.104306,-2.5e-5 -22.640871,-0.04327 -14.525699,-0.09611 z m 5.032194,-1.448429 c -0.102593,-0.166 0.205538,-0.226868 0.684736,-0.135264 0.479198,0.0916 0.871269,0.227422 0.871269,0.301817 0,0.272962 -1.375354,0.125745 -1.556005,-0.166553 z M 97.145936,9.8658495 c -0.114895,-0.2994097 -0.130074,-0.6232062 -0.03373,-0.7195479 0.09634,-0.096342 0.259841,0.14863 0.363332,0.5443814 0.219834,0.840645 -0.02442,0.970453 -0.3296,0.1751665 z m 1.818542,-2.45423 c 0,-1.6121803 0.119063,-2.8576522 0.264584,-2.7677153 0.14552,0.089937 0.264583,1.3354087 0.264583,2.7677153 0,1.4323066 -0.119063,2.6777785 -0.264583,2.7677155 -0.145521,0.08994 -0.264584,-1.1555353 -0.264584,-2.7677155 z m -54.50417,1.940278 c -0.208611,-0.3897924 -0.232579,-0.7055557 -0.05356,-0.7055557 0.178225,0 0.407073,0.3175001 0.508552,0.7055557 0.101479,0.3880555 0.125579,0.7055555 0.05356,0.7055555 -0.07202,0 -0.300871,-0.3175 -0.508552,-0.7055555 z m 46.56667,-0.3735977 c 0,-0.2054788 0.15875,-0.2754848 0.352777,-0.1555691 0.194028,0.1199158 0.352778,0.2880348 0.352778,0.3735977 0,0.085563 -0.15875,0.1555691 -0.352778,0.1555691 -0.194027,0 -0.352777,-0.168119 -0.352777,-0.3735977 z M 88.557533,8.5287492 c 0,-0.2587037 0.235605,-0.4703704 0.523566,-0.4703704 0.396306,0 0.42868,0.1143299 0.133193,0.4703704 -0.214705,0.2587038 -0.45031,0.4703704 -0.523566,0.4703704 -0.07326,0 -0.133193,-0.2116666 -0.133193,-0.4703704 z M 63.863087,8.1171751 c 0,-0.2910417 0.06239,-0.5291667 0.138646,-0.5291667 0.07626,0 0.230022,0.238125 0.341706,0.5291667 0.111683,0.2910417 0.04929,0.5291667 -0.138646,0.5291667 -0.187938,0 -0.341706,-0.238125 -0.341706,-0.5291667 z m 9.458855,0.2881793 c 0.254661,-0.1019072 0.558932,-0.089374 0.676157,0.027851 0.117225,0.1172252 -0.09113,0.2006037 -0.463021,0.1852858 C 73.124112,8.6015633 73.040519,8.5179703 73.321942,8.4053544 Z M 97.065123,6.8150782 c -0.02251,-1.1042089 0.07814,-2.0812439 0.223661,-2.1711889 0.145521,-0.089945 0.217149,0.5753736 0.159174,1.4784858 -0.165384,2.5763037 -0.338072,2.8887653 -0.382835,0.6927031 z M 78.679755,7.4548153 c 0,-0.073256 0.277812,-0.3510688 0.617361,-0.6173612 0.559525,-0.43881 0.572003,-0.4263321 0.133193,0.1331931 -0.460858,0.587639 -0.750554,0.7745163 -0.750554,0.4841681 z M 46.510829,5.9359097 c 0.254661,-0.1019072 0.558932,-0.089374 0.676157,0.027851 0.117225,0.1172251 -0.09113,0.2006037 -0.463021,0.1852857 -0.410966,-0.016928 -0.494559,-0.1005206 -0.213136,-0.2131367 z m 1.411111,0 c 0.254662,-0.1019072 0.558932,-0.089374 0.676158,0.027851 0.117225,0.1172251 -0.09114,0.2006037 -0.463021,0.1852857 C 47.724111,6.1321186 47.640518,6.0485257 47.92194,5.9359097 Z m 7.408334,0 c 0.254661,-0.1019072 0.558932,-0.089374 0.676157,0.027851 0.117225,0.1172251 -0.09113,0.2006037 -0.463021,0.1852857 -0.410966,-0.016928 -0.494558,-0.1005206 -0.213136,-0.2131367 z m 11.994445,0 c 0.254662,-0.1019072 0.558932,-0.089374 0.676158,0.027851 0.117225,0.1172251 -0.09114,0.2006037 -0.463021,0.1852857 C 67.12689,6.1321186 67.043297,6.0485257 67.324719,5.9359097 Z m 24.694446,0 c 0.254662,-0.1019072 0.558933,-0.089374 0.676158,0.027851 0.117225,0.1172251 -0.09114,0.2006037 -0.463021,0.1852857 C 91.821336,6.1321186 91.737743,6.0485257 92.019165,5.9359097 Z M 40.866384,4.5247984 c 0.254662,-0.1019071 0.558932,-0.089374 0.676157,0.027851 0.117226,0.1172251 -0.09113,0.2006037 -0.46302,0.1852857 -0.410966,-0.016928 -0.494559,-0.1005206 -0.213137,-0.2131367 z"
         id="path33" /><path
         style="fill:#9e9da4"
         d="m 82.846942,56.383137 c 0.254662,-0.101907 0.558933,-0.08937 0.676158,0.02785 0.117225,0.117225 -0.09113,0.200603 -0.463021,0.185285 -0.410966,-0.01693 -0.494559,-0.10052 -0.213137,-0.213135 z M 57.893715,55.712782 c 0.01693,-0.410966 0.100521,-0.494559 0.213137,-0.213137 0.101907,0.254661 0.08937,0.558932 -0.02785,0.676157 -0.117225,0.117226 -0.200604,-0.09113 -0.185286,-0.46302 z M 60.36316,41.601669 c 0.01693,-0.410966 0.10052,-0.494559 0.213136,-0.213137 0.101908,0.254662 0.08938,0.558933 -0.02785,0.676158 -0.117226,0.117225 -0.200604,-0.09113 -0.185286,-0.463021 z M 75.425885,29.907027 c 0.829747,-0.07452 2.099747,-0.07347 2.822222,0.0023 0.722476,0.0758 0.04359,0.136777 -1.50863,0.135495 -1.552223,-0.0013 -2.143339,-0.0633 -1.313592,-0.137825 z M 62.832604,27.137779 c 0.01693,-0.410966 0.100521,-0.494559 0.213137,-0.213137 0.101907,0.254662 0.08937,0.558933 -0.02785,0.676158 -0.117225,0.117225 -0.200604,-0.09114 -0.185286,-0.463021 z m 1.317115,-4.97409 c 0.254661,-0.101907 0.558932,-0.08937 0.676157,0.02785 0.117226,0.117225 -0.09113,0.200604 -0.46302,0.185286 -0.410966,-0.01693 -0.494559,-0.100521 -0.213137,-0.213136 z m -3.40593,-11.40068 c 0,-0.48507 0.08007,-0.683507 0.177936,-0.440973 0.09786,0.242535 0.09786,0.63941 0,0.881945 -0.09786,0.242535 -0.177936,0.0441 -0.177936,-0.440972 z M 41.203431,10.154562 c 0.634065,-0.07851 1.586565,-0.0769 2.116667,0.0036 0.530102,0.08049 0.01132,0.144734 -1.152846,0.142754 -1.164167,-0.002 -1.597886,-0.06784 -0.963821,-0.146354 z m 7.559204,0.03685 c 0.394887,-0.11771 0.646416,-0.651199 0.740159,-1.5698632 l 0.141999,-1.3915604 -0.0346,1.4988809 c -0.02832,1.2267081 -0.162721,1.5117707 -0.740159,1.5698627 -0.513244,0.05164 -0.542517,0.02238 -0.107395,-0.10732 z m 2.753229,0.08355 c 0,-0.07439 0.392071,-0.210212 0.871269,-0.3018168 0.479197,-0.091605 0.787328,-0.030736 0.684735,0.1352628 -0.18065,0.292299 -1.556004,0.439516 -1.556004,0.166554 z m 6.066216,-0.08355 c 0.394887,-0.11771 0.646416,-0.651199 0.740159,-1.5698632 l 0.141999,-1.3915604 -0.0346,1.4988809 c -0.02832,1.2267081 -0.162721,1.5117707 -0.740159,1.5698627 -0.513244,0.05164 -0.542517,0.02238 -0.107395,-0.10732 z m 6.996406,-0.2984917 c -0.236129,-0.284518 -0.347475,-0.7210805 -0.247435,-0.9701389 0.112595,-0.2803176 0.1925,-0.2133066 0.209741,0.1758957 0.01532,0.345801 0.385038,0.772301 0.821601,0.9477779 0.537145,0.215906 0.608132,0.326277 0.219584,0.34141 -0.315791,0.0123 -0.767362,-0.210427 -1.003491,-0.4949447 z m 3.587712,0.2983407 c 0.422879,-0.125996 0.640871,-0.6644759 0.741574,-1.8318278 l 0.142632,-1.6533743 -0.03602,1.760716 c -0.03044,1.4880481 -0.145283,1.7717281 -0.741575,1.8318281 -0.514624,0.05187 -0.543475,0.02282 -0.106611,-0.107342 z m 7.625188,-0.02202 c 0.254662,-0.101907 0.558933,-0.08937 0.676158,0.02785 0.117225,0.117225 -0.09113,0.200604 -0.463021,0.185286 -0.410966,-0.01693 -0.494559,-0.100521 -0.213137,-0.213136 z m 2.535591,0.105725 c 0,-0.07439 0.392071,-0.210212 0.871268,-0.3018168 0.479198,-0.091605 0.787329,-0.030736 0.684736,0.1352628 -0.18065,0.292299 -1.556004,0.439516 -1.556004,0.166554 z m 6.090268,-0.117884 c 0.536244,-0.08109 1.329994,-0.07892 1.763889,0.0048 0.433894,0.08374 -0.0049,0.15008 -0.97499,0.147431 -0.970139,-0.0026 -1.325144,-0.07116 -0.788899,-0.152247 z m 8.307476,0.01216 c 0.254661,-0.101907 0.558932,-0.08937 0.676157,0.02785 0.117225,0.117225 -0.09113,0.200604 -0.463021,0.185286 -0.410966,-0.01693 -0.494559,-0.100521 -0.213136,-0.213136 z M 94.712236,9.9590006 C 94.606558,9.6836069 94.576175,8.3627851 94.644718,7.0238409 l 0.124625,-2.4344439 0.06909,2.734028 c 0.06206,2.4557371 0.139402,2.734028 0.759812,2.734028 0.610737,0 0.70522,-0.2961517 0.815977,-2.5576391 l 0.12526,-2.5576391 -0.02223,2.6458336 c -0.02074,2.4689646 -0.07539,2.6533836 -0.817554,2.7587706 -0.447864,0.0636 -0.87927,-0.105816 -0.98747,-0.3877784 z m 3.304152,0.2102424 c 0.254661,-0.101907 0.558932,-0.08937 0.676157,0.02785 0.117225,0.117225 -0.09113,0.200604 -0.463021,0.185286 -0.410966,-0.01693 -0.494559,-0.100521 -0.213136,-0.213136 z M 59.025097,8.1171751 c 0.0026,-0.970139 0.07116,-1.3251437 0.152247,-0.7888995 0.08109,0.5362443 0.07892,1.3299944 -0.0048,1.7638891 -0.08374,0.4338947 -0.15008,-0.00485 -0.147432,-0.9749896 z m -8.595469,0.088514 C 50.324624,7.447311 50.378528,7.015117 50.555985,7.1925742 50.7262,7.3627892 50.808606,7.9579578 50.73911,8.5151712 50.622793,9.4477809 50.5982,9.4231885 50.429628,8.2056891 Z M 41.782302,8.5133235 C 41.679773,8.2461357 41.65614,7.2539481 41.729786,6.3084622 l 0.133902,-1.7190652 0.06359,2.0061209 c 0.06286,1.9831803 0.0767,2.007748 1.210115,2.1484038 l 1.146528,0.1422829 -1.1576,0.056458 C 42.425604,8.9768369 41.895144,8.8073846 41.782302,8.5133235 Z M 52.290193,8.1171751 c 0.0072,-0.5820834 0.08625,-0.7774996 0.175698,-0.4342582 0.08944,0.3432413 0.08356,0.8194914 -0.01307,1.0583334 -0.09663,0.238842 -0.169815,-0.041992 -0.162626,-0.6240752 z m 32.936284,0.5620664 c -0.108733,-0.1759331 0.120024,-0.2367928 0.508347,-0.135244 0.823732,0.2154107 0.927857,0.4551221 0.197695,0.4551221 -0.27959,0 -0.597309,-0.1439451 -0.706042,-0.3198781 z M 60.688087,8.137995 c 0,-0.2795908 0.143945,-0.5973098 0.319878,-0.7060424 0.175933,-0.1087326 0.236793,0.1200235 0.135244,0.5083468 -0.215411,0.8237317 -0.455122,0.9278574 -0.455122,0.1976956 z m 8.847296,-0.050218 c 0.01693,-0.4109661 0.10052,-0.494559 0.213136,-0.2131366 0.101907,0.2546615 0.08938,0.5589323 -0.02785,0.6761574 C 69.603443,8.668023 69.520065,8.4596636 69.535383,8.087777 Z m 1.763889,0 c 0.01693,-0.4109661 0.10052,-0.494559 0.213136,-0.2131366 0.101907,0.2546615 0.08938,0.5589323 -0.02785,0.6761574 C 71.367332,8.668023 71.283954,8.4596636 71.299272,8.087777 Z m 8.819445,0 c 0.01693,-0.4109661 0.10052,-0.494559 0.213136,-0.2131366 0.101907,0.2546615 0.08938,0.5589323 -0.02785,0.6761574 C 80.186777,8.668023 80.103399,8.4596636 80.118717,8.087777 Z M 45.69503,7.5880084 c -0.683039,-0.2935121 -0.681146,-0.3039789 0.05934,-0.3279827 0.420693,-0.013637 1.055693,-0.1349749 1.411111,-0.2696392 0.60528,-0.2293347 0.608704,-0.2069883 0.05405,0.3527778 -0.325689,0.3286921 -0.643189,0.5864641 -0.705555,0.5728268 -0.06237,-0.013637 -0.430893,-0.1612295 -0.818949,-0.3279827 z m 8.643056,0 c -0.431124,-0.2786138 -0.387448,-0.3429747 0.235731,-0.3473758 0.420693,-0.00297 0.976318,-0.058759 1.234722,-0.1239724 0.258404,-0.065214 0.349774,-0.051655 0.203044,0.030131 -0.14673,0.081786 -0.177048,0.2938924 -0.06737,0.4713482 0.264002,0.4271643 -0.933263,0.4047036 -1.606122,-0.030131 z m 10.760413,0.028088 c -0.591897,-0.2310095 -0.507088,-0.3057809 0.529167,-0.4665342 0.678718,-0.1052889 1.392782,-0.040306 1.58681,0.1444065 0.225742,0.2149043 0.109626,0.2432085 -0.322455,0.078601 -0.471277,-0.17954 -0.598185,-0.1325744 -0.420152,0.1554884 0.288206,0.4663268 -0.306442,0.5044461 -1.37337,0.088038 z m 7.43914,0.022873 c -0.102593,-0.1659992 0.205538,-0.2268676 0.684736,-0.1352631 0.479197,0.091604 0.871268,0.2274219 0.871268,0.3018166 0,0.2729619 -1.375354,0.125745 -1.556004,-0.1665535 z m 15.476222,-0.074432 c -0.127894,-0.2069367 -0.156875,-0.4519083 -0.0644,-0.5443814 0.09247,-0.092473 0.262137,0.076839 0.377032,0.3762486 0.238542,0.6216323 0.03523,0.7309762 -0.31263,0.1681328 z m 1.866589,0.1330698 c -0.339549,-0.088733 -0.617361,-0.286429 -0.617361,-0.4393237 0,-0.35979 1.71452,-0.035559 1.966311,0.371847 0.198942,0.3218954 -0.283115,0.3460086 -1.34895,0.067477 z M 63.112533,6.6178694 c -0.43881,-0.5595252 -0.426332,-0.5720031 0.133193,-0.1331931 0.587639,0.4608583 0.774516,0.7505543 0.484168,0.7505543 -0.07326,0 -0.351069,-0.2778125 -0.617361,-0.6173612 z m 6.747777,0.4841681 c 0,-0.073256 0.277812,-0.3510688 0.617361,-0.6173612 0.559525,-0.43881 0.572003,-0.4263321 0.133193,0.1331931 -0.460858,0.587639 -0.750554,0.7745163 -0.750554,0.4841681 z m 3.835557,-0.4841681 c -0.43881,-0.5595252 -0.426332,-0.5720031 0.133193,-0.1331931 0.587639,0.4608583 0.774516,0.7505543 0.484168,0.7505543 -0.07326,0 -0.351069,-0.2778125 -0.617361,-0.6173612 z m 3.219999,0.4841681 c 0,-0.073256 0.277812,-0.3510688 0.617361,-0.6173612 0.559525,-0.43881 0.572003,-0.4263321 0.133193,0.1331931 -0.460858,0.587639 -0.750554,0.7745163 -0.750554,0.4841681 z M 87.935468,5.5558991 C 87.52358,4.6772641 87.53337,4.6487662 88.06461,5.1800054 c 0.31615,0.3161501 0.516704,0.7439705 0.445676,0.950712 -0.07103,0.2067415 -0.329696,-0.051927 -0.574818,-0.5748183 z M 50.604781,5.4713415 c 0.06183,-0.8432079 1.767695,-0.681099 1.856135,0.1763889 0.05656,0.5483405 0.03222,0.5679924 -0.10923,0.088194 C 52.143158,5.0285806 50.935899,4.8985504 50.714012,5.559536 50.628903,5.8130669 50.582473,5.7755786 50.604781,5.4713415 Z M 75.791386,4.5247984 c 0.254662,-0.1019071 0.558933,-0.089374 0.676158,0.027851 0.117225,0.117225 -0.09113,0.2006036 -0.463021,0.1852856 C 75.593557,4.721007 75.509964,4.6374144 75.791386,4.5247984 Z m 9.333278,-0.00348 c 0.343241,-0.089444 0.819491,-0.083562 1.058333,0.013072 0.238842,0.096634 -0.04199,0.1698158 -0.624075,0.1626263 -0.582084,-0.00719 -0.7775,-0.086254 -0.434258,-0.1756983 z m 12.891724,0.00348 C 98.271049,4.4228913 98.57532,4.4354242 98.692545,4.5526493 98.80977,4.6698744 98.601411,4.753253 98.229524,4.737935 97.818558,4.7210074 97.734965,4.6374144 98.016388,4.5247984 Z"
         id="path32" /><path
         style="fill:#5658a2"
         d="m 39.689277,40.396345 c 0,-15.037154 0.04347,-21.188717 0.0966,-13.67014 0.05313,7.518577 0.05313,19.821703 0,27.34028 -0.05313,7.518577 -0.0966,1.367014 -0.0966,-13.67014 z m 31.257217,7.555325 c 0.01693,-0.410966 0.10052,-0.494559 0.213136,-0.213137 0.101908,0.254662 0.08937,0.558932 -0.02785,0.676158 -0.117226,0.117225 -0.200604,-0.09113 -0.185286,-0.463021 z m 9.673539,-0.499769 c 0.351185,-0.388055 0.717894,-0.705556 0.814907,-0.705556 0.09701,0 -0.110944,0.317501 -0.46213,0.705556 -0.351185,0.388056 -0.717894,0.705556 -0.814908,0.705556 -0.09701,0 0.110945,-0.3175 0.462131,-0.705556 z m 12.965354,-0.881944 c 0.0039,-0.776112 0.07616,-1.052073 0.160541,-0.613248 0.08438,0.438824 0.08118,1.073824 -0.0071,1.411111 -0.0883,0.337286 -0.157338,-0.02175 -0.153422,-0.797863 z M 81.104201,43.306762 c -0.43881,-0.559525 -0.426333,-0.572003 0.133193,-0.133193 0.587639,0.460858 0.774516,0.750554 0.484168,0.750554 -0.07326,0 -0.351069,-0.277813 -0.617361,-0.617361 z m 10.230556,-2.116667 c -0.43881,-0.559525 -0.426332,-0.572003 0.133193,-0.133193 0.339549,0.266292 0.617361,0.544105 0.617361,0.617361 0,0.290348 -0.289696,0.103471 -0.750554,-0.484168 z M 73.091012,35.104678 c 0,-0.48507 0.08007,-0.683507 0.177936,-0.440973 0.09786,0.242535 0.09786,0.63941 0,0.881945 -0.09786,0.242535 -0.177936,0.0441 -0.177936,-0.440972 z m 8.410965,-0.133193 c 0,-0.07326 0.277813,-0.351069 0.617361,-0.617362 0.559525,-0.43881 0.572003,-0.426332 0.133193,0.133194 -0.460858,0.587638 -0.750554,0.774516 -0.750554,0.484168 z m 12.375074,-2.189261 c 0.01693,-0.410966 0.100521,-0.494559 0.213137,-0.213137 0.101907,0.254662 0.08937,0.558933 -0.02785,0.676158 -0.117225,0.117225 -0.200604,-0.09113 -0.185287,-0.463021 z M 82.465488,31.957956 c -0.153449,-0.586792 -0.107537,-0.724527 0.154248,-0.462742 0.205,0.205 0.303316,0.580961 0.21848,0.835469 -0.08807,0.264212 -0.247982,0.1043 -0.372728,-0.372727 z m -8.696772,-0.939621 c 0.01693,-0.410966 0.100521,-0.494559 0.213137,-0.213137 0.101907,0.254662 0.08937,0.558932 -0.02785,0.676158 -0.117225,0.117225 -0.200604,-0.09114 -0.185287,-0.463021 z m 17.75391,-5.87963 -0.672037,-0.793751 0.79375,0.672038 c 0.745929,0.631549 0.954349,0.915463 0.672037,0.915463 -0.06694,0 -0.424129,-0.357188 -0.79375,-0.79375 z m -2.259537,-1.499306 c -0.48507,-0.277291 -0.713849,-0.509791 -0.508399,-0.516666 0.20545,-0.0069 0.6817,0.220575 1.058334,0.505446 0.871,0.658792 0.592802,0.664467 -0.549935,0.01122 z M 76.474893,21.790703 c 1.212674,-0.06889 3.197049,-0.06889 4.409723,0 1.212674,0.06889 0.220486,0.125249 -2.204861,0.125249 -2.425348,0 -3.417535,-0.05636 -2.204862,-0.125249 z"
         id="path31" /><path
         style="fill:#4ea554"
         d="m 45.022203,64.085414 c -0.190755,-0.308648 0.0034,-1.675584 1.00943,-7.108512 0.305408,-1.649236 0.791174,-4.308299 1.079481,-5.909028 0.288307,-1.60073 0.762787,-4.220105 1.0544,-5.820834 0.291613,-1.60073 0.935037,-5.132917 1.42983,-7.849307 0.494793,-2.716389 1.217631,-6.764514 1.606307,-8.995834 0.388675,-2.231319 1.05744,-5.88257 1.486143,-8.113889 l 0.77946,-4.056945 8.260425,-0.09485 c 4.543233,-0.05217 8.390825,0.03555 8.550204,0.194928 0.15938,0.159379 0.119508,1.210871 -0.0886,2.336648 -0.208111,1.125777 -0.401049,2.347747 -0.42875,2.71549 -0.04507,0.598338 -0.356974,0.668622 -2.967183,0.668622 -2.735796,0 -2.928101,0.04926 -3.098619,0.79375 -0.09999,0.436562 -0.734252,4.048125 -1.409469,8.025695 -0.675218,3.97757 -1.937109,11.28007 -2.804202,16.227779 -0.867093,4.947709 -1.449268,9.12386 -1.293723,9.280335 0.155545,0.156476 6.222874,0.235851 13.482953,0.176389 l 13.200143,-0.108112 2.284524,-1.135584 c 1.256488,-0.624571 2.775751,-1.601711 3.376141,-2.171423 1.853348,-1.75865 2.067564,-1.090596 1.185332,3.696587 -0.42536,2.308093 -0.958232,4.910907 -1.184161,5.784032 l -0.410779,1.5875 -22.455383,0.0908 C 55.305881,64.349623 45.12597,64.253313 45.022203,64.085414 Z"
         id="path30" /><path
         style="fill:#2c566c"
         d="m 44.460308,63.834687 c 0,-1.065583 8.400815,-47.388057 8.674321,-47.8306 0.285207,-0.461473 17.338647,-0.384627 17.625446,0.07942 0.301897,0.488479 -0.545602,6.010884 -0.889816,5.798148 -0.142026,-0.08778 -0.04152,-1.305663 0.223341,-2.706414 0.264864,-1.400751 0.34948,-2.678909 0.188037,-2.840353 -0.161444,-0.161444 -4.010725,-0.25085 -8.553958,-0.198681 l -8.260425,0.09485 -0.77946,4.056945 c -0.428703,2.231319 -1.097468,5.88257 -1.486143,8.113889 -0.388676,2.23132 -1.111514,6.279445 -1.606307,8.995834 -0.494793,2.71639 -1.138217,6.248577 -1.42983,7.849307 -0.291613,1.600729 -0.779441,4.299479 -1.084063,5.997223 -0.304621,1.697743 -0.852002,4.674306 -1.216402,6.614584 -0.3644,1.940278 -0.710477,4.162778 -0.76906,4.938889 l -0.106514,1.411111 22.617222,0.09077 22.617223,0.09077 0.403755,-2.031048 c 1.627879,-8.188873 1.867396,-9.773165 1.496237,-9.896885 -0.215258,-0.07175 -0.391379,-0.270998 -0.391379,-0.442768 0,-0.171769 0.238125,-0.22093 0.529167,-0.109247 0.291042,0.111683 0.529167,0.528079 0.529167,0.925325 0,1.095524 -1.737815,10.203194 -2.119589,11.1085 l -0.33473,0.79375 H 67.398428 44.460308 Z M 70.168089,9.4400919 c -0.43881,-0.5595252 -0.426332,-0.5720031 0.133193,-0.1331931 0.587639,0.4608582 0.774516,0.7505542 0.484168,0.7505542 -0.07326,0 -0.351069,-0.2778124 -0.617361,-0.6173611 z M 93.585387,8.8227307 c 0.0039,-0.7761111 0.07616,-1.0520728 0.160541,-0.613248 0.08438,0.4388247 0.08118,1.0738248 -0.0071,1.4111112 -0.0883,0.3372865 -0.157338,-0.021752 -0.153422,-0.7978632 z m 3.907352,-1.0583334 c 0.0016,-1.3581946 0.06533,-1.8705913 0.141696,-1.1386594 0.07637,0.7319319 0.07509,1.843182 -0.0028,2.4694447 -0.07793,0.6262626 -0.140415,0.027409 -0.13885,-1.3307853 z m 1.413956,-0.1763889 c 0,-1.4552085 0.06227,-2.050521 0.138382,-1.3229168 0.07611,0.7276042 0.07611,1.9182294 0,2.6458336 -0.07611,0.7276042 -0.138382,0.1322917 -0.138382,-1.3229168 z M 39.989957,7.4116195 c 0.0016,-1.3581946 0.06533,-1.8705913 0.141696,-1.1386594 0.07637,0.7319319 0.07509,1.843182 -0.0028,2.4694447 -0.07793,0.6262626 -0.140416,0.027409 -0.138851,-1.3307853 z m 35.262919,0.7055556 c 0.0026,-0.970139 0.07116,-1.3251437 0.152247,-0.7888995 0.08109,0.5362443 0.07892,1.3299944 -0.0048,1.7638891 -0.08374,0.4338947 -0.15008,-0.00485 -0.147432,-0.9749896 z m 1.310212,1.2555422 c 0,-0.1825768 0.156931,-0.428947 0.348737,-0.5474892 0.199975,-0.1235917 0.259118,0.018012 0.138645,0.331958 -0.234523,0.6111583 -0.487382,0.7229782 -0.487382,0.2155312 z m 6.818539,-1.9610978 c 0.0016,-1.3581946 0.06533,-1.8705913 0.141696,-1.1386594 0.07637,0.7319319 0.07509,1.843182 -0.0028,2.4694447 -0.07793,0.6262626 -0.140415,0.027409 -0.13885,-1.3307853 z m -22.514654,1.591541 c -0.123592,-0.1999757 0.01801,-0.259118 0.331958,-0.1386456 0.611158,0.2345234 0.722978,0.4873826 0.215531,0.4873826 -0.182577,0 -0.428947,-0.1569317 -0.547489,-0.348737 z M 72.618312,8.922229 c 0.188129,-0.1881299 0.636729,-0.2795936 0.996887,-0.2032527 0.485005,0.102804 0.396295,0.1915142 -0.342054,0.3420543 -0.643757,0.1312538 -0.875721,0.082086 -0.654833,-0.1388016 z M 63.566011,8.293564 c 0,-0.4850695 0.08007,-0.683507 0.177936,-0.4409722 0.09786,0.2425347 0.09786,0.6394097 0,0.8819445 -0.09786,0.2425347 -0.177936,0.044097 -0.177936,-0.4409723 z M 81.325588,8.7588648 C 81.713644,8.652086 82.162292,8.3846486 82.322584,8.1645594 82.51515,7.900158 82.565617,7.9439246 82.471341,8.293564 82.392865,8.5846057 81.944216,8.8520431 81.474345,8.8878693 80.800718,8.9392312 80.769256,8.911947 81.325588,8.7588648 Z m 6.907018,-0.31831 c 0.01693,-0.4109661 0.100521,-0.494559 0.213137,-0.2131366 0.101907,0.2546615 0.08937,0.5589323 -0.02785,0.6761575 -0.117225,0.1172251 -0.200604,-0.091134 -0.185287,-0.4630209 z M 62.127049,8.087777 c 0.01693,-0.4109661 0.10052,-0.494559 0.213136,-0.2131366 0.101908,0.2546615 0.08938,0.5589323 -0.02785,0.6761574 C 62.195109,8.668023 62.111731,8.4596636 62.127049,8.087777 Z m 4.492115,0.3175774 c 0.254661,-0.1019072 0.558932,-0.089374 0.676157,0.027851 C 67.412546,8.5504304 67.204187,8.6338089 66.8323,8.618491 66.421334,8.6015633 66.337741,8.5179703 66.619164,8.4053544 Z M 85.669165,7.6997987 c 0.254661,-0.1019071 0.558932,-0.089374 0.676157,0.027851 0.117225,0.1172251 -0.09113,0.2006037 -0.463021,0.1852857 C 85.471335,7.8960077 85.387742,7.8124147 85.669165,7.6997987 Z M 71.530125,7.1914552 c 0.2393,-0.2410949 0.52396,-0.3494869 0.632575,-0.2408711 0.108616,0.1086157 -0.08718,0.3058751 -0.435092,0.4383543 -0.502779,0.1914471 -0.5433,0.1509258 -0.197483,-0.1974832 z m 7.080169,-0.014944 C 78.999873,6.678306 78.972965,6.5634633 78.433905,6.4236837 77.932268,6.2936078 77.965593,6.2500923 78.59156,6.2178199 79.541659,6.1688364 79.615786,6.6153095 78.767949,7.2802293 78.21517,7.7137484 78.198678,7.7028984 78.610294,7.1765112 Z m -1.965361,-0.999614 c 0,-0.6790973 0.0726,-0.9569099 0.161334,-0.6173612 0.08873,0.3395486 0.08873,0.8951737 0,1.2347223 -0.08873,0.3395487 -0.161334,0.061736 -0.161334,-0.6173611 z M 92.790867,6.529675 c -0.317956,-0.2054789 -0.361468,-0.34413 -0.109015,-0.3473758 0.231084,-0.00297 0.518266,0.153348 0.638181,0.3473758 0.270688,0.4379825 0.148563,0.4379825 -0.529166,0 z M 59.563608,6.2886875 c 0.254661,-0.1019072 0.558932,-0.089374 0.676157,0.027851 0.117225,0.1172251 -0.09113,0.2006037 -0.463021,0.1852857 -0.410966,-0.016928 -0.494559,-0.1005206 -0.213136,-0.2131367 z"
         id="path29" /><path
         style="fill:#2b2f90"
         d="M 39.874196,40.396345 V 13.228377 l 29.192364,0.09023 29.192363,0.09023 V 40.39634 67.383842 l -29.192363,0.09023 -29.192364,0.09023 z m 50.797082,23.547919 c 0.383403,-0.909168 2.119589,-10.015138 2.119589,-11.116845 0,-0.401836 -0.1585,-0.783527 -0.352223,-0.848203 -0.197415,-0.06591 -0.0051,-0.815325 0.437545,-1.705092 1.152196,-2.316012 1.094227,-5.312515 -0.143319,-7.408334 -0.515565,-0.873126 -1.412071,-2.03869 -1.992235,-2.590145 l -1.054843,-1.002644 1.355961,-1.225029 C 95.223697,34.269837 95.196227,27.82345 90.983963,24.487278 88.25147,22.323103 86.132377,21.910982 77.687448,21.901368 l -7.518692,-0.0086 0.270019,-1.772539 c 0.14851,-0.974897 0.277546,-2.328164 0.286747,-3.007262 l 0.01673,-1.234722 -8.619,-0.09461 c -4.74045,-0.05204 -8.741141,0.02753 -8.890425,0.176814 -0.309745,0.309744 -8.772521,46.493577 -8.772521,47.874198 v 0.903327 h 22.93812 22.93812 z M 71.280045,47.746029 c 0.0076,-0.726396 0.224975,-1.903383 0.890849,-4.823735 0.184737,-0.81021 0.255826,-0.823228 3.852998,-0.705555 3.052473,0.09985 3.831008,0.243596 4.659632,0.860319 1.439477,1.071366 1.499869,2.584533 0.162918,4.082035 l -1.048806,1.174753 -4.263108,0.117739 -4.263107,0.117739 z m 2.108043,-12.726792 c 0,-0.47037 0.180665,-1.754821 0.401479,-2.854334 l 0.40148,-1.999115 h 2.897267 c 3.562613,0 4.95768,0.440159 5.397948,1.703113 0.394355,1.131248 0.08367,2.102408 -0.978736,3.059388 -0.65455,0.589597 -1.386136,0.725328 -4.451361,0.825861 l -3.668077,0.120307 z"
         id="path28" /><path
         style="fill:#221f21"
         d="M 59.51951,11.240729 C 59.386116,11.107335 59.276976,10.01368 59.276976,8.8103844 V 6.6225748 l 1.47981,-0.1984842 c 1.993839,-0.26743 2.753523,0.1911908 2.753523,1.6623008 0,1.42108 -0.737027,2.1281926 -1.911089,1.8335215 -0.698052,-0.1751999 -0.883364,-0.070571 -0.97472,0.5503351 -0.117131,0.796083 -0.684073,1.191397 -1.10499,0.770481 z m 2.575959,-2.4135057 c 0.5832,-0.7027123 0.197347,-1.5919927 -0.690755,-1.5919927 -0.515567,0 -0.716627,0.230946 -0.716627,0.8231482 0,1.3304474 0.647656,1.6842583 1.407382,0.7688445 z M 40.226974,7.4116195 c 0,-2.4106484 0.06272,-2.6458336 0.705556,-2.6458336 0.62716,0 0.705555,0.2351852 0.705555,2.1166669 v 2.1166668 h 1.234723 c 0.862346,0 1.234722,0.15959 1.234722,0.5291668 0,0.406229 -0.450772,0.5291666 -1.940278,0.5291666 h -1.940278 z m 5.146257,2.3828303 C 44.74183,9.1630492 45.25603,8.3423295 46.461655,8.057206 48.253836,7.6333653 48.560321,6.696579 46.798683,7.0270642 45.340394,7.3006408 45.018141,6.7317804 46.430587,6.3772791 c 1.024327,-0.2570898 2.307853,0.047744 2.698625,0.640916 0.142549,0.2163834 0.261612,0.9561025 0.264583,1.6438203 l 0.0054,1.2503958 -1.9093,0.044703 c -1.050114,0.024586 -2.002614,-0.048612 -2.116666,-0.1626643 z m 2.614855,-1.1913037 c 0,-0.4253022 -0.966062,-0.3915053 -1.234722,0.043196 -0.381303,0.6169605 0.184131,1.1382991 0.736962,0.6794902 0.273768,-0.2272072 0.49776,-0.5524158 0.49776,-0.7226862 z m 3.057408,1.2191218 C 50.916142,9.692916 50.810308,8.9785409 50.810308,8.2347677 c 0,-0.7437732 -0.143814,-1.3523149 -0.319586,-1.3523149 -0.175773,0 -0.136086,-0.3956365 0.08819,-0.8791922 0.22428,-0.4835557 0.645906,-0.8791922 0.936948,-0.8791922 0.291042,0 0.712668,0.3956365 0.936948,0.8791922 0.224279,0.4835557 0.263967,0.8791922 0.08819,0.8791922 -0.436079,0 -0.406824,2.0211112 0.03319,2.2930558 0.194028,0.1199157 0.352778,0.3674097 0.352778,0.5499866 0,0.3770168 -1.522907,0.4553468 -1.881481,0.096773 z m 3.147182,-0.027818 c -0.562524,-0.562524 -0.141003,-1.5019854 0.762771,-1.7000186 1.603777,-0.3514164 1.852084,-0.4672675 1.852084,-0.8641143 0,-0.2430331 -0.4447,-0.296409 -1.234722,-0.1481998 -0.783777,0.1470374 -1.234723,0.094293 -1.234723,-0.144418 0,-0.5698247 2.289335,-0.8820179 3.137854,-0.4279044 0.57662,0.3085977 0.742702,0.7334841 0.742702,1.9000492 v 1.5025672 l -1.9093,0.044703 c -1.050114,0.024586 -2.002614,-0.048612 -2.116666,-0.1626643 z m 2.614855,-1.0094623 c 0,-0.5640577 -0.908738,-0.6660989 -1.234722,-0.1386457 -0.119916,0.1940278 -0.124201,0.5045946 -0.0095,0.6901485 0.290184,0.4695269 1.244245,0.046646 1.244245,-0.5515028 z m 7.864935,0.6814072 c -0.267435,-0.696924 0.766721,-1.5256085 1.903881,-1.5256085 0.499446,0 0.814518,-0.2108759 0.814518,-0.5451522 0,-0.4319668 -0.256355,-0.4970596 -1.234722,-0.3135168 -0.783777,0.1470374 -1.234723,0.094293 -1.234723,-0.144418 0,-0.5698247 2.289335,-0.8820179 3.137854,-0.4279044 0.577823,0.3092412 0.742702,0.7333142 0.742702,1.9102423 v 1.5127602 l -1.955524,0.051451 c -1.506453,0.039635 -2.005691,-0.079285 -2.173986,-0.5178536 z m 2.718399,-0.6814072 c 0,-0.5640577 -0.908738,-0.6660989 -1.234722,-0.1386457 -0.119916,0.1940278 -0.124201,0.5045946 -0.0095,0.6901485 0.290183,0.4695269 1.244244,0.046646 1.244244,-0.5515028 z m 3.011476,0.581125 c -1.37229,-1.5163636 0.480824,-3.6126155 2.576164,-2.9141689 0.492059,0.1640196 0.957491,0.4867331 1.034293,0.7171411 0.18211,0.5463298 -1.06516,0.5429189 -1.612488,-0.00441 -0.590185,-0.5901846 -1.222243,0.1043568 -1.070563,1.1763958 0.104533,0.738816 0.276803,0.8216905 1.5033,0.7231992 1.222792,-0.098194 1.331494,-0.046481 0.926943,0.4409723 -0.648167,0.7809939 -2.59807,0.7001959 -3.357649,-0.1391295 z m 5.102413,-1.954493 c 0,-2.1166669 0.105834,-2.6458336 0.529167,-2.6458336 0.369577,0 0.529167,0.3723766 0.529167,1.2347223 0,1.188762 0.427878,1.6166399 0.881944,0.8819446 0.119916,-0.1940278 0.527505,-0.3527778 0.905754,-0.3527778 0.582326,0 0.624881,0.1006302 0.277668,0.6566056 -0.325432,0.5210993 -0.289647,0.8285154 0.1734,1.4896065 1.081726,1.5443808 0.351896,1.9498498 -1.083105,0.6017361 l -0.830091,-0.7798298 -0.20393,0.7798298 c -0.112162,0.4289065 -0.42354,0.7798297 -0.691952,0.7798297 -0.372131,0 -0.488022,-0.6283085 -0.488022,-2.6458334 z m 8.11389,0 V 4.7657859 l 1.499306,0.024795 c 2.575459,0.042592 2.882703,0.3072366 2.973947,2.5616104 0.09451,2.335119 -0.297153,2.7052617 -2.862561,2.7052617 h -1.610692 z m 3.107841,0.970139 C 86.661094,8.0422098 86.294441,7.7643973 85.9117,7.7643973 c -0.382742,0 -0.749395,0.2778125 -0.814786,0.6173612 -0.08905,0.4624034 0.11546,0.6173611 0.814786,0.6173611 0.699325,0 0.903836,-0.1549577 0.814785,-0.617361 z M 86.397868,6.9164926 C 87.028475,6.517073 86.59497,5.8241194 85.714491,5.8241194 c -0.662905,0 -0.929119,0.6963579 -0.449551,1.1759261 0.307547,0.3075466 0.542856,0.2901927 1.132928,-0.083553 z m 2.969044,2.5499022 c -0.267434,-0.696924 0.766721,-1.5256085 1.903881,-1.5256085 0.499446,0 0.814518,-0.2108759 0.814518,-0.5451522 0,-0.4328564 -0.272507,-0.5010198 -1.322917,-0.3309066 -1.242944,0.201294 -1.28152,0.1809342 -0.638129,-0.3367924 0.79413,-0.6390238 1.723095,-0.7032095 2.689794,-0.185848 0.511772,0.2738922 0.682363,0.7433809 0.682363,1.8779501 v 1.5127602 l -1.955523,0.051451 c -1.506454,0.039635 -2.005692,-0.079285 -2.173987,-0.5178536 z m 2.718399,-0.6814072 c 0,-0.5618409 -0.316064,-0.6155962 -1.015335,-0.1726854 -0.267393,0.1693637 -0.381371,0.4774996 -0.253286,0.6847464 0.308838,0.4997094 1.268621,0.1123063 1.268621,-0.512061 z m 3.064757,1.0446299 C 95.016674,9.6962233 94.907534,8.4906507 94.907534,7.1505671 c 0,-2.1305982 0.07751,-2.4215878 0.617361,-2.3176226 0.516858,0.099538 0.617361,0.5153333 0.617361,2.5541081 0,2.2429617 -0.34427,3.0904834 -0.992188,2.4425649 z m 2.579688,-2.0652201 c 0,-1.2611807 -0.0084,-2.4121183 -0.01863,-2.5576391 -0.01025,-0.1455209 0.227876,-0.3159111 0.529166,-0.378645 0.457035,-0.095162 0.547801,0.328618 0.547801,2.5576392 0,2.1396598 -0.105378,2.6717005 -0.529166,2.6717005 -0.416097,0 -0.529167,-0.489969 -0.529167,-2.2930556 z M 80.530072,8.2053696 c 0.223435,-0.6784551 1.677461,-0.7761701 1.677461,-0.1127305 0,0.3601941 -0.318497,0.5537027 -0.911343,0.5537027 -0.571342,0 -0.857163,-0.1645163 -0.766118,-0.4409722 z"
         id="path27" /></g></g></svg>
