<?xml version="1.0" encoding="UTF-8" standalone="no"?>
<!-- Created with Inkscape (http://www.inkscape.org/) -->

<svg
   width="125mm"
   height="75mm"
   viewBox="0 0 125 75"
   version="1.1"
   id="svg1"
   xml:space="preserve"
   inkscape:version="1.4.3 (0d15f75, 2025-12-25)"
   sodipodi:docname="logo-aiba.svg"
   xmlns:inkscape="http://www.inkscape.org/namespaces/inkscape"
   xmlns:sodipodi="http://sodipodi.sourceforge.net/DTD/sodipodi-0.dtd"
   xmlns="http://www.w3.org/2000/svg"
   xmlns:svg="http://www.w3.org/2000/svg"><sodipodi:namedview
     id="namedview1"
     pagecolor="#505050"
     bordercolor="#eeeeee"
     borderopacity="1"
     inkscape:showpageshadow="0"
     inkscape:pageopacity="0"
     inkscape:pagecheckerboard="0"
     inkscape:deskcolor="#505050"
     inkscape:document-units="mm"
     inkscape:zoom="1.0771772"
     inkscape:cx="253.90437"
     inkscape:cy="-53.380262"
     inkscape:window-width="1920"
     inkscape:window-height="1057"
     inkscape:window-x="-8"
     inkscape:window-y="-8"
     inkscape:window-maximized="1"
     inkscape:current-layer="layer1" /><defs
     id="defs1" /><g
     inkscape:label="Camada 1"
     inkscape:groupmode="layer"
     id="layer1"><path
       style="fill:#007b53;stroke-width:0.148113"
       d="m 43.543436,57.251871 c -3.268931,-0.233801 -5.928722,-1.788729 -6.963511,-4.070896 -0.574196,-1.266363 -0.628932,-3.17744 -0.134781,-4.70568 0.542607,-1.678079 2.152316,-3.283357 4.825453,-4.812192 1.077673,-0.616335 3.8303,-1.923926 6.426842,-3.052954 3.657402,-1.590308 4.912967,-2.33439 5.419943,-3.212009 0.240899,-0.417012 0.310281,-0.749351 0.338144,-1.619772 0.02174,-0.67868 0.009,-0.892013 -0.07905,-1.316825 -0.198948,-0.960758 -0.583496,-1.663137 -1.313547,-2.399227 -0.983145,-0.991263 -2.162147,-1.51907 -3.733577,-1.671439 -1.186922,-0.115088 -2.561976,0.100605 -3.51283,0.551033 -1.974067,0.93512 -3.176843,2.686365 -3.494039,5.087319 -0.04293,0.324777 -0.07802,0.718839 -0.07802,0.875701 v 0.285202 l -2.050842,-0.03334 c -1.127964,-0.01827 -2.06733,-0.04795 -2.08748,-0.06585 -0.04062,-0.03617 0.408871,-1.652588 0.578896,-2.081649 1.077338,-2.71866 3.728169,-4.839316 7.138603,-5.710869 1.979793,-0.505952 3.564863,-0.541718 5.457462,-0.123162 0.764858,0.169147 2.270481,0.66697 2.982343,0.986076 1.605279,0.719604 2.55892,1.429053 3.449216,2.565999 1.048547,1.339028 1.386977,2.019971 1.737101,3.495139 0.111239,0.468651 0.111713,0.502033 0.13984,9.823129 l 0.02823,9.352889 0.150457,0.325744 c 0.218352,0.472745 0.55635,0.772259 0.967253,0.857124 l 0.319184,0.06594 v 0.250799 0.250798 h -2.857293 c -2.791422,0 -2.86249,-0.0028 -3.082854,-0.109197 -0.269595,-0.130504 -0.501979,-0.397405 -0.583803,-0.670505 -0.03952,-0.131948 -0.06095,-0.831194 -0.0635,-2.07403 l -0.0038,-1.874964 -0.150729,0.32716 c -0.626499,1.359796 -1.868924,2.513748 -3.614712,3.357291 -1.796192,0.867901 -4.087639,1.295023 -6.154523,1.147203 z m 3.875199,-1.851756 c 2.424235,-0.422749 4.564995,-2.416847 5.433268,-5.061044 0.43635,-1.328826 0.660615,-2.879616 0.707785,-4.894317 0.02759,-1.178813 -0.0668,-5.844389 -0.119382,-5.899398 -0.01112,-0.01169 -0.143956,0.09515 -0.295146,0.237362 -0.757686,0.712655 -2.046787,1.453631 -4.350454,2.500652 -2.855991,1.298046 -4.131624,2.082415 -5.204449,3.200145 -1.365874,1.423044 -1.986398,3.062023 -1.993239,5.264687 -0.0024,0.753753 0.01437,0.951561 0.110558,1.306266 0.400121,1.475971 1.458941,2.622589 2.90431,3.145135 0.715078,0.258526 1.962905,0.347665 2.806749,0.200512 z m 60.001395,1.850851 c -1.40588,-0.09624 -2.75808,-0.449965 -3.89586,-1.019174 -1.38147,-0.691109 -2.66788,-2.01567 -3.13564,-3.228641 -0.592851,-1.537289 -0.530182,-3.615157 0.15298,-5.072998 0.68838,-1.468975 2.21357,-2.892685 4.51407,-4.213739 1.16196,-0.667262 3.5759,-1.819471 6.36158,-3.036468 2.52463,-1.102953 3.63321,-1.654726 4.5551,-2.267198 0.57341,-0.380954 0.8677,-0.691694 1.08463,-1.14524 0.21957,-0.459062 0.28308,-0.845268 0.28363,-1.724276 4.4e-4,-0.631011 -0.0217,-0.873378 -0.1134,-1.24363 -0.33301,-1.344617 -1.21676,-2.457261 -2.53919,-3.196793 -1.58234,-0.884898 -4.04586,-0.986687 -5.83666,-0.241171 -1.26677,0.527359 -2.45411,1.696117 -3.04882,3.001123 -0.38452,0.843798 -0.65533,2.03717 -0.65533,2.887937 v 0.439434 l -2.05086,-0.03334 c -1.12795,-0.01827 -2.07025,-0.05087 -2.09398,-0.07243 -0.0483,-0.04383 0.25599,-1.190933 0.49805,-1.877092 1.16553,-3.303825 4.64673,-5.713958 9.03124,-6.252588 2.13021,-0.261684 4.72077,0.272653 7.1296,1.470582 1.39148,0.691987 2.09265,1.240416 2.91843,2.282671 1.04705,1.321527 1.45751,2.163919 1.76848,3.629469 l 0.11974,0.564275 0.0264,9.27451 0.0263,9.274507 0.13535,0.287376 c 0.25471,0.540868 0.5573,0.788523 1.05459,0.863096 l 0.24696,0.03699 v 0.25532 0.255318 h -2.87639 c -2.54331,0 -2.89574,-0.0097 -3.04359,-0.08439 -0.23511,-0.118576 -0.44725,-0.326849 -0.5639,-0.553645 -0.0929,-0.180581 -0.0998,-0.329115 -0.10071,-2.168405 l -9.1e-4,-1.974543 -0.22149,0.44413 c -0.34681,0.695402 -0.59043,1.027129 -1.21127,1.649245 -1.32571,1.328451 -3.09307,2.183027 -5.39877,2.610497 -0.59187,0.109727 -2.10666,0.249949 -2.441,0.225946 -0.0574,-0.0045 -0.36314,-0.0252 -0.67926,-0.04685 z m 4.00119,-1.879394 c 1.29783,-0.264479 2.37446,-0.85693 3.36616,-1.852331 2.11407,-2.12197 2.81877,-4.964561 2.64379,-10.664444 -0.0318,-1.032617 -0.0575,-2.200781 -0.0575,-2.595928 7e-5,-0.395149 -0.013,-0.718454 -0.0289,-0.718454 -0.0159,0 -0.19739,0.144962 -0.40323,0.322127 -0.87901,0.756531 -1.84315,1.30055 -4.4177,2.492642 -1.80282,0.834765 -2.66302,1.283698 -3.45797,1.804711 -2.3754,1.556855 -3.49935,3.546549 -3.58885,6.353173 -0.0234,0.732985 -0.0119,0.937522 0.077,1.365321 0.37454,1.802072 1.82493,3.174892 3.716,3.517305 0.61027,0.110493 1.54175,0.10006 2.15107,-0.02411 z m -95.34123,1.829307 c -1.907403,-0.131417 -3.945894,-0.636785 -5.498759,-1.363184 -0.239907,-0.112229 -0.44667,-0.204054 -0.459471,-0.204054 -0.0867,0 -1.3203564,-0.719578 -1.925877,-1.123337 C 7.2695499,53.892616 6.7353852,53.462762 5.9557563,52.707602 3.582943,50.409268 1.9879512,47.522639 1.3508502,44.373612 1.1000353,43.133917 1.0425784,42.525236 1.0425784,41.107937 c 0,-1.417291 0.057457,-2.025972 0.3082718,-3.265667 1.266498,-6.259968 6.2870099,-11.265683 12.5687178,-12.531664 1.502279,-0.302756 3.493503,-0.404043 4.857092,-0.247043 1.667732,0.192008 3.239128,0.596206 4.636545,1.192613 0.451413,0.192665 0.459998,0.199762 0.605865,0.500864 0.08138,0.167989 0.209116,0.53243 0.283852,0.809887 0.122388,0.454341 0.135979,0.597888 0.136802,1.444973 9.14e-4,1.072411 -0.08219,1.574463 -0.436987,2.635467 -0.52072,1.557238 -1.368369,3.104758 -2.977423,5.43576 -2.442181,3.537946 -3.763926,6.5201 -3.763926,8.49225 0,0.85863 0.250638,1.798801 0.668386,2.507191 1.108677,1.880023 3.979969,3.150788 6.663589,2.949146 2.390559,-0.179631 5.050579,-1.372747 6.91941,-3.103615 0.20835,-0.192968 0.378817,-0.33983 0.378817,-0.326358 0,0.0652 -0.386668,0.860694 -0.63054,1.297134 -2.322626,4.156655 -6.311733,7.083161 -10.921362,8.012171 -1.299715,0.261932 -2.992735,0.377129 -4.259698,0.289833 z m 46.064774,-0.306957 v -0.255647 l 0.246969,-0.03699 c 0.508878,-0.07635 0.851841,-0.368771 1.073427,-0.915348 l 0.116502,-0.287374 V 43.588796 31.779031 L 63.40949,31.429294 C 63.157865,30.918182 62.786326,30.65784 62.30852,30.65784 h -0.163756 v -0.313507 -0.313506 h 2.838297 2.838298 l 0.283359,0.143693 c 0.185592,0.09412 0.337558,0.221864 0.440437,0.370251 l 0.157077,0.226558 0.02611,12.339746 c 0.02535,11.978675 0.02904,12.347282 0.125725,12.597468 0.0575,0.148797 0.21209,0.373393 0.365757,0.531388 0.234483,0.241106 0.305302,0.281685 0.595138,0.341051 l 0.328982,0.06741 -0.01547,0.237233 -0.01547,0.237236 -3.98412,0.01333 -3.984118,0.01334 z m 10.450149,-2.93e-4 v -0.255326 l 0.246963,-0.03699 c 0.508884,-0.07635 0.851845,-0.368762 1.073427,-0.915338 l 0.116503,-0.287378 v -17.94816 c 0,-17.47845 -0.0024,-17.955568 -0.09897,-18.23246 -0.06515,-0.187211 -0.181228,-0.366596 -0.339805,-0.525177 -0.231239,-0.231234 -0.347016,-0.284124 -0.854438,-0.390306 -0.135614,-0.02832 -0.143687,-0.04622 -0.143687,-0.316457 v -0.28638 l 2.80848,3.01e-4 c 1.832633,1.37e-4 2.878397,0.01964 3.00971,0.05617 0.26396,0.07334 0.618617,0.431033 0.701144,0.707239 0.04964,0.166132 0.06483,2.121944 0.0668,8.595244 l 0.0024,8.380185 0.151405,-0.407395 c 1.180507,-3.176444 3.572021,-5.04454 7.000497,-5.468338 0.664298,-0.08211 2.221945,-0.06795 2.868451,0.02603 2.157048,0.313644 4.106157,1.299838 5.675908,2.871834 2.18171,2.184835 3.484397,5.085347 3.954027,8.803838 0.107771,0.853397 0.09243,3.501806 -0.02548,4.389059 -0.472607,3.557674 -1.687441,6.292445 -3.692827,8.313074 -2.364326,2.382295 -5.350359,3.357273 -9.414671,3.074015 -3.283488,-0.22884 -4.920259,-1.254352 -6.247845,-3.914543 l -0.326295,-0.653818 0.03388,1.855884 c 0.03727,2.039827 0.0298,2.109513 -0.261585,2.441359 -0.340288,0.387568 -0.241874,0.376763 -3.443462,0.378041 l -2.860733,9.14e-4 z m 15.140663,-2.020911 c 1.637947,-0.243209 2.981744,-1.063571 3.743019,-2.285045 0.585883,-0.940053 1.134698,-2.431084 1.515564,-4.117501 0.638931,-2.829146 0.681949,-6.902133 0.107571,-10.184339 -0.473173,-2.703875 -0.947601,-3.820537 -2.080372,-4.896556 -1.108138,-1.052619 -2.499504,-1.638339 -4.088081,-1.720949 -1.116352,-0.05808 -2.175326,0.146103 -3.135449,0.604472 -0.750016,0.358066 -1.279433,0.731807 -1.851302,1.306932 -0.982564,0.988168 -1.563956,2.102572 -1.810196,3.469813 -0.17836,0.990275 -0.13528,9.047364 0.05773,10.798966 0.202887,1.841226 0.463518,3.074565 0.813043,3.84737 0.547974,1.211601 1.828087,2.294196 3.344225,2.828249 1.126463,0.396784 2.267882,0.514356 3.384248,0.348588 z M 23.139595,48.102113 c -1.163729,-0.14782 -2.110548,-0.661782 -2.587026,-1.404293 -0.556064,-0.866549 -0.580617,-2.173409 -0.06674,-3.552102 0.46475,-1.246892 1.029092,-2.180095 2.970194,-4.91157 1.284904,-1.808091 1.744888,-2.521329 2.184515,-3.387285 1.025221,-2.019423 1.51132,-3.69405 1.592802,-5.487262 l 0.03407,-0.749562 0.59127,0.395239 c 1.596161,1.066959 2.825831,2.428801 3.709585,4.108296 0.958891,1.822311 1.436156,4.124589 1.267297,6.113344 -0.282645,3.328959 -1.87939,6.022787 -4.57539,7.719005 -1.439715,0.905822 -3.474555,1.365267 -5.120569,1.15619 z M 65.133959,26.29354 c -1.115969,-0.242322 -2.150639,-1.173753 -2.517517,-2.266303 -0.619711,-1.845482 0.352783,-3.78699 2.230975,-4.453978 0.477083,-0.16942 1.383737,-0.193459 1.948984,-0.05169 0.694744,0.174269 1.053761,0.381247 1.598096,0.92132 0.392179,0.389103 0.513747,0.550339 0.690154,0.915348 0.49968,1.033878 0.502876,1.994069 0.01,3.003343 -0.375855,0.769636 -0.916234,1.317956 -1.646431,1.670617 -0.66036,0.318931 -1.573926,0.4221 -2.314255,0.261337 z"
       id="path1" /></g></svg>
