<?xml version="1.0" encoding="UTF-8" standalone="no"?>
<!-- Created with Inkscape (http://www.inkscape.org/) -->

<svg
   width="125mm"
   height="75mm"
   viewBox="0 0 125 75"
   version="1.1"
   id="svg1"
   xml:space="preserve"
   inkscape:version="1.4.3 (0d15f75, 2025-12-25)"
   sodipodi:docname="logo-sykue.svg"
   xmlns:inkscape="http://www.inkscape.org/namespaces/inkscape"
   xmlns:sodipodi="http://sodipodi.sourceforge.net/DTD/sodipodi-0.dtd"
   xmlns="http://www.w3.org/2000/svg"
   xmlns:svg="http://www.w3.org/2000/svg"><sodipodi:namedview
     id="namedview1"
     pagecolor="#505050"
     bordercolor="#eeeeee"
     borderopacity="1"
     inkscape:showpageshadow="0"
     inkscape:pageopacity="0"
     inkscape:pagecheckerboard="0"
     inkscape:deskcolor="#505050"
     inkscape:document-units="mm"
     inkscape:zoom="0.76167929"
     inkscape:cx="395.83589"
     inkscape:cy="561.25984"
     inkscape:window-width="1920"
     inkscape:window-height="1057"
     inkscape:window-x="-8"
     inkscape:window-y="-8"
     inkscape:window-maximized="1"
     inkscape:current-layer="g1" /><defs
     id="defs1" /><g
     inkscape:label="Camada 1"
     inkscape:groupmode="layer"
     id="layer1"><g
       id="g1"
       transform="matrix(1.1500616,0,0,1.1500616,-61.303669,-112.29621)"><path
         style="fill:#b7b8b9"
         d="m 140.13923,150.55294 c -0.43122,-0.30205 -0.78405,-0.7783 -0.78405,-1.05834 0,-0.68286 0.21988,-0.64206 1.05834,0.1964 1.25373,1.25373 2.92794,0.68832 3.36804,-1.13743 0.23148,-0.96032 0.23087,-0.96065 -0.8105,-0.44115 -2.25601,1.12545 -4.30081,-0.80379 -3.84821,-3.63072 0.35693,-2.22932 2.31973,-3.20364 4.03439,-2.00264 0.43947,0.30781 0.78405,0.38533 0.78405,0.17639 0,-0.20503 0.15875,-0.37279 0.35278,-0.37279 0.21178,0 0.35278,1.41646 0.35278,3.54382 0,3.29219 -0.0615,3.60529 -0.86591,4.40972 -0.99879,0.99879 -2.48356,1.12793 -3.64171,0.31674 z m 3.05122,-3.4532 c 0.21663,-0.26103 0.4866,-0.93822 0.59993,-1.50488 0.23962,-1.1981 -0.913,-2.95942 -1.93668,-2.95942 -1.56506,0 -2.58224,3.03363 -1.46754,4.37676 0.56866,0.68519 2.26435,0.73812 2.80429,0.0875 z m 4.6314,3.29681 c 0,-0.19402 0.24153,-0.35277 0.53673,-0.35277 0.2952,0 0.70453,-0.36829 0.90962,-0.81841 0.30396,-0.66713 0.14464,-1.38447 -0.86186,-3.88056 -0.85245,-2.11403 -1.09279,-3.06215 -0.77625,-3.06215 0.25218,0 0.82003,0.99219 1.26189,2.20487 0.44186,1.21267 0.91089,2.32909 1.04229,2.48094 0.13141,0.15185 0.619,-0.84034 1.08355,-2.20486 0.46455,-1.36452 1.04276,-2.48095 1.2849,-2.48095 0.30262,0 0.1237,0.85482 -0.57223,2.73403 -2.04589,5.52446 -2.15719,5.73264 -3.065,5.73264 -0.464,0 -0.84364,-0.15875 -0.84364,-0.35278 z m -60.795369,-1.99907 c -0.129352,-0.12935 -0.235186,-2.11373 -0.235186,-4.40972 v -4.17454 h 2.767546 c 2.233129,0 2.880287,0.12458 3.351389,0.64514 0.717916,0.79329 0.759059,2.29805 0.07828,2.86305 -0.433243,0.35956 -0.408012,0.51713 0.176389,1.10153 0.993734,0.99373 0.880014,2.59161 -0.24757,3.47856 -0.730251,0.57442 -1.43611,0.73116 -3.292592,0.73116 -1.29969,0 -2.468907,-0.10583 -2.598258,-0.23518 z m 4.651061,-0.85766 c 0.876472,-0.30554 1.110976,-0.5885 1.110976,-1.34056 0,-1.41331 -0.621352,-1.79993 -2.892778,-1.79993 h -2.046111 v 1.76389 1.76389 h 1.358468 c 0.747158,0 1.858408,-0.17428 2.469445,-0.38729 z m 0.637932,-4.74508 c 0.44447,-0.60785 0.261762,-1.56437 -0.383169,-2.00598 -0.20818,-0.14255 -1.211947,-0.26161 -2.230593,-0.26458 l -1.852083,-0.005 v 1.63686 1.63685 l 2.020631,-0.20854 c 1.277182,-0.13182 2.176847,-0.42219 2.445214,-0.7892 z m 4.353599,2.69232 c 0,-2.6492 0.09406,-3.2044 0.542901,-3.2044 0.454773,0 0.526356,0.49646 0.440973,3.05834 -0.06855,2.05691 -0.246322,3.10616 -0.542902,3.2044 -0.331133,0.10968 -0.440972,-0.6521 -0.440972,-3.05834 z m 4.852717,2.44799 c -1.05024,-0.82612 -1.36705,-2.11889 -0.91791,-3.74554 0.62288,-2.25589 2.98256,-2.95154 4.77677,-1.40822 0.81216,0.69858 0.98981,1.13671 0.98981,2.44102 0,2.9324 -2.67019,4.42633 -4.84867,2.71274 z m 3.32159,-0.59178 c 0.89615,-0.81101 0.8619,-3.07996 -0.0604,-4.00227 -0.91046,-0.91046 -1.69565,-0.89265 -2.71129,0.0615 -2.232287,2.09713 0.50636,5.99089 2.77171,3.94078 z m 4.90408,0.35987 c -1.06711,-1.3566 -1.00079,-3.77181 0.13474,-4.90734 1.39053,-1.39053 3.3865,-1.12341 4.26242,0.57043 0.97061,1.87696 0.7703,2.09143 -1.95333,2.09143 -2.65714,0 -2.93187,0.24113 -1.92027,1.6854 0.72159,1.0302 2.39836,1.05168 3.10711,0.0398 0.28671,-0.40933 0.70398,-0.68335 0.92727,-0.60892 0.26083,0.0869 0.13553,0.47913 -0.35051,1.09702 -1.05827,1.34539 -3.16182,1.36147 -4.20743,0.0322 z m 3.85495,-3.36423 c 0,-0.64062 -1.10055,-1.70347 -1.76389,-1.70347 -0.32791,0 -0.83479,0.27781 -1.12639,0.61736 -1.18774,1.38304 -1.11569,1.49931 0.92918,1.49931 1.26338,0 1.9611,-0.14701 1.9611,-0.4132 z m 3.70705,1.8531 c -0.27951,-2.78324 -0.0557,-3.85754 0.80728,-3.87559 0.33052,-0.007 1.12314,-0.11565 1.76139,-0.24163 1.96302,-0.38749 2.54372,0.47779 2.54372,3.79033 0,1.60984 -0.14757,2.76754 -0.35278,2.76754 -0.20124,0 -0.35278,-1.04993 -0.35278,-2.44424 0,-3.27686 -0.9184,-4.28232 -2.74372,-3.00381 -0.68221,0.47784 -0.78405,0.86735 -0.78405,2.99861 0,1.3472 -0.14264,2.44944 -0.31698,2.44944 -0.17433,0 -0.42727,-1.09829 -0.56208,-2.44065 z m 9.00192,1.74407 c -2.12567,-2.12567 -0.74283,-6.00619 2.14033,-6.00619 0.99173,0 2.43681,1.55952 2.43681,2.62979 0,0.87002 -0.0714,0.89798 -2.29306,0.89798 -1.99366,0 -2.29305,0.085 -2.29305,0.65088 0,0.83405 1.08359,1.81857 2.00157,1.81857 0.39121,0 0.99863,-0.3175 1.34981,-0.70556 0.35119,-0.38805 0.77267,-0.70555 0.93663,-0.70555 0.51957,0 0.32305,0.6806 -0.40746,1.41111 -0.93115,0.93115 -2.94474,0.93581 -3.87158,0.009 z m 3.87158,-3.53675 c 0,-0.56675 -1.35786,-1.76389 -2.00069,-1.76389 -0.73089,0 -1.87986,1.00371 -1.87986,1.64218 0,0.33995 0.55014,0.47449 1.94027,0.47449 1.06716,0 1.94028,-0.15875 1.94028,-0.35278 z m 3.52778,1.05833 c 0,-1.88148 0.14372,-3.175 0.35278,-3.175 0.19402,0 0.35277,0.16283 0.35277,0.36184 0,0.20741 0.44422,0.13213 1.04082,-0.17639 1.28433,-0.66415 1.42863,-0.66754 1.42863,-0.0336 0,0.27754 -0.35321,0.55536 -0.78492,0.61736 -1.06484,0.15293 -1.67308,1.50343 -1.67932,3.7287 -0.003,1.01865 -0.16396,1.85208 -0.35798,1.85208 -0.20906,0 -0.35278,-1.29351 -0.35278,-3.175 z m 21.72103,2.62064 c -1.33216,-1.33216 -0.30677,-2.9687 2.02473,-3.23149 1.4282,-0.16098 1.65424,-0.29555 1.65424,-0.98478 0,-1.33876 -2.15227,-1.7249 -2.90409,-0.52103 -0.51629,0.8267 -0.97647,0.91925 -0.97647,0.19639 0,-0.76377 1.41943,-1.6075 2.70433,-1.6075 1.61953,0 2.23456,1.04112 2.23456,3.78266 0,1.24119 0.15506,2.21456 0.35278,2.21456 0.19403,0 0.35278,0.15875 0.35278,0.35278 0,0.55805 -0.99114,0.4102 -1.33189,-0.19868 -0.27986,-0.5001 -0.35124,-0.5001 -0.76628,0 -0.59151,0.71272 -2.63083,0.71095 -3.34469,-0.003 z m 3.05798,-0.59216 c 0.54565,-0.42052 0.75425,-1.01948 0.66279,-1.90313 -0.0288,-0.27816 -0.42912,-0.31647 -1.28652,-0.12309 -1.75556,0.39594 -2.35775,0.9629 -1.91046,1.79868 0.40857,0.76342 1.68959,0.87844 2.53419,0.22754 z m -61.820677,-7.14375 c 0,-0.29105 0.238125,-0.52917 0.529167,-0.52917 0.291041,0 0.529166,0.23812 0.529166,0.52917 0,0.29104 -0.238125,0.52916 -0.529166,0.52916 -0.291042,0 -0.529167,-0.23812 -0.529167,-0.52916 z m 3.762967,-2.52824 c -0.12936,-0.12936 -0.23519,-0.52623 -0.23519,-0.88195 0,-0.48584 0.2678,-0.64676 1.07634,-0.64676 0.89595,0 1.1625,-0.20623 1.59049,-1.23057 0.4997,-1.19594 0.45949,-1.36681 -1.42911,-6.07286 -1.0688,-2.66327 -1.943275,-5.04639 -1.943275,-5.29583 0,-0.24943 0.380769,-0.45352 0.846155,-0.45352 0.73611,0 0.97333,0.35556 1.82405,2.73403 0.53784,1.50372 1.24545,3.43765 1.57246,4.29763 l 0.59456,1.5636 1.40096,-4.20943 c 1.29199,-3.88204 1.47429,-4.21812 2.34388,-4.32106 0.51862,-0.0614 0.94294,-0.0403 0.94294,0.0469 0,0.0872 -1.1165,3.07433 -2.4811,6.63802 -2.55796,6.68017 -3.42858,8.06693 -5.0645,8.06693 -0.44191,0 -0.90931,-0.10583 -1.03866,-0.23518 z m -33.971808,-3.24857 c -3.093453,-1.04724 -4.847917,-2.79246 -5.984575,-5.95306 -0.532379,-1.48033 -0.214439,-1.44757 1.287408,0.13265 2.538031,2.67048 5.853383,3.28744 10.089853,1.87763 1.423012,-0.47355 3.28818,-0.79933 4.645317,-0.81137 1.971719,-0.0175 2.355757,0.0887 2.943035,0.81397 0.772289,0.95374 0.720862,1.02864 -1.578604,2.2992 -3.846323,2.12529 -8.144587,2.74387 -11.402434,1.64098 z m 22.167925,-1.09968 c -1.200541,-0.54487 -1.665185,-1.02796 -2.24123,-2.3302 -0.59534,-1.34587 -0.640416,-1.69751 -0.249361,-1.94531 0.866801,-0.54927 1.293685,-0.32858 1.947592,1.00685 0.788289,1.60987 1.879223,2.19561 4.102034,2.20244 1.330045,0.004 1.876857,-0.17992 2.557639,-0.8607 1.761635,-1.76164 0.733004,-3.41055 -2.542111,-4.07504 -2.731892,-0.55428 -4.90978,-1.53006 -5.381254,-2.41101 -0.535623,-1.00082 -0.476897,-2.73196 0.132665,-3.91073 1.549453,-2.99631 8.23977,-2.65988 9.551831,0.48033 0.723165,1.73077 0.659015,1.96291 -0.542445,1.96291 -0.719389,0 -1.058333,-0.17461 -1.058333,-0.5452 0,-0.29986 -0.389659,-0.93486 -0.865909,-1.41111 -1.22342,-1.22342 -3.747539,-1.22342 -4.970959,0 -1.715026,1.71502 -0.894379,2.8083 2.82278,3.76055 3.679069,0.94249 4.731887,1.52707 5.330503,2.95975 1.719566,4.1155 -3.695341,7.3395 -8.593442,5.11647 z m 35.481683,0.17469 c -1.30151,-0.73347 -1.73654,-2.56495 -1.61261,-6.78903 0.10005,-3.40989 0.10937,-3.44251 0.98295,-3.44251 h 0.88195 l 0.10777,4.04439 c 0.0593,2.22441 0.27715,4.24847 0.48417,4.49792 0.5594,0.67403 2.56338,0.54881 3.51411,-0.21958 0.75871,-0.61319 0.84854,-1.01354 1.00923,-4.49791 0.16768,-3.63604 0.21556,-3.83038 0.97013,-3.93755 0.79302,-0.11263 0.79375,-0.10784 0.79375,5.20347 0,5.1084 -0.028,5.31621 -0.71662,5.31621 -0.39415,0 -0.81064,-0.24498 -0.92553,-0.5444 -0.18564,-0.48375 -0.28106,-0.4791 -0.85656,0.0417 -0.90228,0.81656 -3.44569,0.99623 -4.63274,0.32727 z m 12.80098,-0.0897 c -2.5063,-1.27799 -3.47501,-4.33947 -2.3255,-7.34942 0.75319,-1.97219 2.20823,-2.96561 4.34641,-2.96747 2.80473,-0.002 4.2238,1.37698 4.80733,4.67299 l 0.23421,1.32292 h -4.02401 -4.02401 l 0.17011,0.88988 c 0.42509,2.22374 3.64797,3.04462 5.2341,1.33314 1.56605,-1.68979 2.77382,-1.26303 1.67757,0.59277 -1.17607,1.99092 -3.84925,2.65094 -6.09621,1.50519 z m 4.90259,-6.52585 c -0.0161,-0.63286 -0.7419,-1.49181 -1.68517,-1.99433 -1.06388,-0.56677 -2.7445,-0.18436 -3.41845,0.77785 -1.01397,1.44764 -0.72374,1.65746 2.29262,1.65746 2.02857,0 2.81906,-0.12401 2.811,-0.44098 z m -30.32767,-0.44097 v -7.23194 h 0.87075 c 0.86936,0 0.87091,0.006 0.97014,4.04167 l 0.0994,4.04168 2.29305,-2.08605 c 1.60255,-1.45788 2.5852,-2.09068 3.2632,-2.1014 0.53357,-0.008 0.97014,0.11313 0.97014,0.27015 0,0.15702 -0.87467,1.04062 -1.94371,1.96356 l -1.94371,1.67808 2.1201,3.09542 c 1.16605,1.70248 2.12009,3.20013 2.12009,3.3281 0,0.12797 -0.46941,0.23268 -1.04313,0.23268 -0.9113,0 -1.25844,-0.33411 -2.74679,-2.64369 -1.65898,-2.57436 -1.72414,-2.62934 -2.48464,-2.09666 -0.65717,0.46029 -0.78099,0.87943 -0.78099,2.64368 0,2.00126 -0.0401,2.09667 -0.88195,2.09667 h -0.88194 z m -36.422107,1.35313 c 0.243743,-0.0983 0.337354,-0.36355 0.208024,-0.58951 -0.129331,-0.22596 -0.102409,-0.29033 0.05983,-0.14303 0.162234,0.1473 0.703623,-0.0902 1.203087,-0.52789 0.737652,-0.64633 0.71362,-0.58071 -0.128025,0.34956 -0.569877,0.62988 -1.204877,1.13271 -1.411111,1.11739 -0.206234,-0.0153 -0.175544,-0.10825 0.0682,-0.20652 z m -20.638928,-2.41146 c 0.0039,-0.77611 0.07616,-1.05207 0.160541,-0.61325 0.08438,0.43883 0.08118,1.07383 -0.0071,1.41111 -0.0883,0.33729 -0.157337,-0.0218 -0.153422,-0.79786 z m 21.811108,-1.08773 c 0.01693,-0.41097 0.100521,-0.49456 0.213137,-0.21314 0.101907,0.25466 0.08937,0.55893 -0.02785,0.67616 -0.117225,0.11722 -0.200604,-0.0911 -0.185287,-0.46302 z m -17.286111,-1.05836 c 0.01693,-0.41096 0.100521,-0.49456 0.213137,-0.21313 0.101907,0.25466 0.08937,0.55893 -0.02785,0.67615 -0.117225,0.11723 -0.200604,-0.0911 -0.185286,-0.46302 z m 19.783406,-1.20532 c 0,-0.48507 0.08007,-0.68351 0.177937,-0.44097 0.09786,0.24253 0.09786,0.63941 0,0.88194 -0.09786,0.24254 -0.177937,0.0441 -0.177937,-0.44097 z m 59.682292,-1.67569 c 0.64262,-1.01888 1.09921,-1.34904 1.98669,-1.43655 l 1.1523,-0.11362 -1.1878,1.43018 c -0.74119,0.89244 -1.48818,1.43257 -1.98668,1.43654 l -0.79889,0.006 z m -59.710142,-1.7051 c 0.01693,-0.41096 0.10052,-0.49456 0.213136,-0.21313 0.101907,0.25466 0.08937,0.55893 -0.02785,0.67615 -0.117225,0.11723 -0.200603,-0.0911 -0.185285,-0.46302 z m -16.961184,-2.08727 c 0.455699,-0.48507 0.907918,-0.88194 1.004932,-0.88194 0.09701,0 -0.196456,0.39687 -0.652155,0.88194 -0.455699,0.48507 -0.907918,0.88195 -1.004932,0.88195 -0.09701,0 0.196456,-0.39688 0.652155,-0.88195 z m 10.573142,-1.4993 -2.282865,-2.38125 2.38125,2.28286 c 2.211807,2.12042 2.542515,2.47964 2.282865,2.47964 -0.05411,0 -1.125675,-1.07156 -2.38125,-2.38125 z m -14.453698,1.14653 c 0.455699,-0.48507 0.907919,-0.88195 1.004933,-0.88195 0.09701,0 -0.196456,0.39688 -0.652155,0.88195 -0.455699,0.48507 -0.907919,0.88194 -1.004933,0.88194 -0.09701,0 0.196456,-0.39687 0.652155,-0.88194 z m 9.647194,-2.34034 c 0.466816,-0.27134 0.761666,-0.2683 1.040694,0.0107 0.283927,0.28393 0.10758,0.38643 -0.65136,0.37861 -0.912323,-0.009 -0.960348,-0.0574 -0.389334,-0.38933 z m 9.005029,-0.2173 c -0.43881,-0.55953 -0.426332,-0.57201 0.133194,-0.1332 0.587638,0.46086 0.774516,0.75056 0.484167,0.75056 -0.07326,0 -0.351068,-0.27781 -0.617361,-0.61736 z m -1.576019,-1.94028 -0.672037,-0.79375 0.79375,0.67204 c 0.745929,0.63155 0.954348,0.91546 0.672037,0.91546 -0.06694,0 -0.42413,-0.35719 -0.79375,-0.79375 z m -5.70547,-1.6757 c 0,-0.67909 0.0726,-0.95691 0.161334,-0.61736 0.08873,0.33955 0.08873,0.89518 0,1.23473 -0.08873,0.33954 -0.161334,0.0617 -0.161334,-0.61737 z m 3.753712,0.0882 c -0.43881,-0.55953 -0.426332,-0.572 0.133193,-0.13319 0.587639,0.46085 0.774516,0.75055 0.484168,0.75055 -0.07326,0 -0.351069,-0.27781 -0.617361,-0.61736 z"
         id="path2" /><path
         style="fill:#5b9468"
         d="m 54.488885,129.35085 c -0.500163,-0.80928 0.4719,-7.07695 1.427994,-9.20741 2.043725,-4.55402 6.941711,-7.21291 11.079801,-6.0147 0.812327,0.23521 0.826251,0.27213 0.176389,0.46766 -0.388055,0.11676 -1.212299,0.31411 -1.831653,0.43856 -1.633579,0.32824 -3.809933,2.03698 -4.814801,3.78028 -0.480039,0.8328 -1.121947,2.74356 -1.426463,4.24612 -0.557301,2.74987 -1.532046,5.11037 -2.396438,5.80335 -0.751695,0.60263 -1.976661,0.8715 -2.214829,0.48614 z m 21.29795,-2.49659 c 0.936418,-2.06452 0.945669,-4.96775 0.02231,-7.00261 -0.383371,-0.84486 -1.787858,-2.67049 -3.121082,-4.05695 -1.333224,-1.38646 -2.60357,-2.86758 -2.822992,-3.29139 -0.49721,-0.96035 -0.521764,-3.16884 -0.03855,-3.46748 0.520824,-0.32189 4.671015,2.74336 6.137544,4.53306 3.719949,4.53971 3.797619,10.37399 0.184191,13.83587 l -1.080772,1.03544 z"
         id="path1" /></g></g></svg>
