<?xml version="1.0" encoding="UTF-8" standalone="no"?>
<!-- Created with Inkscape (http://www.inkscape.org/) -->

<svg
   width="126mm"
   height="75mm"
   viewBox="0 0 126.00001 74.999999"
   version="1.1"
   id="svg1"
   sodipodi:docname="logo-grupocivil.svg"
   xml:space="preserve"
   inkscape:version="1.4.3 (0d15f75, 2025-12-25)"
   xmlns:inkscape="http://www.inkscape.org/namespaces/inkscape"
   xmlns:sodipodi="http://sodipodi.sourceforge.net/DTD/sodipodi-0.dtd"
   xmlns="http://www.w3.org/2000/svg"
   xmlns:svg="http://www.w3.org/2000/svg"><sodipodi:namedview
     id="namedview1"
     pagecolor="#505050"
     bordercolor="#eeeeee"
     borderopacity="1"
     inkscape:showpageshadow="0"
     inkscape:pageopacity="0"
     inkscape:pagecheckerboard="0"
     inkscape:deskcolor="#505050"
     inkscape:document-units="mm"
     inkscape:zoom="0.76167929"
     inkscape:cx="-1.3128885"
     inkscape:cy="196.27683"
     inkscape:window-width="1920"
     inkscape:window-height="1057"
     inkscape:window-x="-8"
     inkscape:window-y="-8"
     inkscape:window-maximized="1"
     inkscape:current-layer="layer1"
     inkscape:lockguides="true" /><defs
     id="defs1" /><g
     inkscape:label="Camada 1"
     inkscape:groupmode="layer"
     id="layer1"
     transform="translate(-32.343138,-109.39928)"><path
       style="fill:#df0a16;stroke-width:0.86255"
       d="m 54.738386,165.80628 v -0.11342 h -0.806949 -0.806938 v -0.11332 -0.11331 H 52.54406 51.963624 v -0.11262 -0.11261 l -0.460101,-0.006 -0.460102,-0.006 -0.009,-0.10615 -0.009,-0.10615 h -0.164018 c -0.0902,0 -0.242341,-0.006 -0.338059,-0.0183 -0.173294,-0.018 -0.174038,-0.0187 -0.174038,-0.10913 v -0.091 l -0.191119,-0.018 c -0.105111,-0.0108 -0.264383,-0.0181 -0.353925,-0.0182 l -0.162802,-2.1e-4 v -0.11331 -0.11332 h -0.339693 -0.339765 v -0.11204 -0.11203 l -0.233591,-0.009 -0.233589,-0.009 -0.009,-0.10615 -0.009,-0.10615 h -0.224619 -0.224802 v -0.1089 -0.10891 l -0.219433,-0.0255 -0.219435,-0.0255 -0.0141,-0.0991 -0.0141,-0.0991 -0.23359,-0.009 -0.233588,-0.009 v -0.11204 c 0,-0.11192 -1.94e-4,-0.11204 -0.113266,-0.11204 -0.11307,0 -0.113267,-1.9e-4 -0.113267,-0.11204 v -0.11203 l -0.232205,-0.009 -0.232208,-0.009 -0.0014,-0.0991 -0.0014,-0.0991 -0.23359,-0.009 -0.233592,-0.009 v -0.11204 c 0,-0.11192 -1.92e-4,-0.11204 -0.113266,-0.11204 -0.112988,0 -0.113265,-2.8e-4 -0.113265,-0.11168 0,-0.11123 -5.85e-4,-0.1117 -0.120327,-0.12043 -0.116394,-0.009 -0.120623,-0.0122 -0.12901,-0.11308 l -0.0086,-0.10442 -0.224912,-0.0196 -0.224908,-0.0196 v -0.1096 c 0,-0.10891 -6.3e-4,-0.1096 -0.113266,-0.1096 h -0.113116 v -0.11332 -0.11331 h -0.113265 c -0.112757,0 -0.113267,-4.9e-4 -0.113267,-0.11029 v -0.1103 l -0.22651,-0.02 -0.226511,-0.02 v -0.1103 c 0,-0.1096 -7.83e-4,-0.1103 -0.111538,-0.1103 -0.108453,0 -0.111782,-0.001 -0.120326,-0.10615 -0.0084,-0.10301 -0.01235,-0.10647 -0.129114,-0.11482 -0.119752,-0.009 -0.120327,-0.009 -0.120327,-0.12041 0,-0.11134 -2.73e-4,-0.11158 -0.113266,-0.11158 h -0.113266 v -0.1133 -0.11332 h -0.113266 -0.113266 v -0.11331 -0.11332 h -0.113314 c -0.112988,0 -0.113266,-2.9e-4 -0.113266,-0.11157 0,-0.11099 -5.85e-4,-0.11169 -0.120343,-0.12041 -0.119753,-0.009 -0.120379,-0.009 -0.129044,-0.12911 -0.0086,-0.11972 -0.0092,-0.12042 -0.120327,-0.12042 -0.111353,0 -0.111619,-2.6e-4 -0.111619,-0.11331 v -0.11331 h -0.113267 -0.113266 v -0.11332 -0.11331 h -0.113266 -0.113266 v -0.22488 -0.2249 l -0.120326,-0.009 c -0.116446,-0.009 -0.120622,-0.0122 -0.129026,-0.11331 -0.0081,-0.0984 -0.01497,-0.10507 -0.113267,-0.11332 -0.101186,-0.009 -0.10484,-0.0122 -0.113266,-0.12911 -0.0086,-0.11972 -0.0092,-0.1204 -0.120327,-0.1204 -0.111364,0 -0.111619,-2.8e-4 -0.111619,-0.11332 v -0.11331 h -0.113092 -0.113266 v -0.2265 -0.2265 h -0.11329 -0.113265 v -0.12739 -0.12738 h -0.110309 -0.110297 l -0.02005,-0.22649 -0.02005,-0.22651 h -0.110308 c -0.10981,0 -0.110297,-5.2e-4 -0.110297,-0.11332 0,-0.10995 -0.0028,-0.11331 -0.09655,-0.11331 h -0.09656 l -0.02004,-0.24066 -0.02005,-0.24066 H 40.0115 39.901597 v -0.22651 -0.22653 h -0.11328 -0.113255 v -0.22651 -0.22651 h -0.109613 -0.109612 l -0.01976,-0.22649 -0.01976,-0.22653 h -0.09381 -0.09381 l -0.02005,-0.24066 -0.02004,-0.24067 H 39.07788 38.967154 v -0.22651 -0.22651 H 38.8539 38.740633 v -0.24068 -0.24066 h -0.113282 -0.113265 v -0.35393 -0.35392 h -0.113255 -0.113266 v -0.27898 c 0,-0.15347 -0.0081,-0.35731 -0.01818,-0.45303 l -0.0182,-0.17402 h -0.09506 -0.09506 v -0.17673 c 0,-0.099 -0.0081,-0.25819 -0.01818,-0.35393 -0.01811,-0.17313 -0.01864,-0.17403 -0.108906,-0.17403 h -0.0907 l -0.01852,-0.34422 c -0.01005,-0.1893 -0.01851,-0.50147 -0.01851,-0.69367 v -0.34951 h -0.113262 -0.113266 v -0.92017 -0.92021 h -0.113266 -0.113266 v -1.40156 -1.40153 h 0.112825 0.112826 l 0.0075,-0.81329 0.0075,-0.81331 0.09679,-0.006 c 0.05324,-0.004 0.100063,-0.0108 0.104106,-0.0156 0.0039,-0.004 0.01081,-0.25883 0.01513,-0.56622 l 0.0079,-0.55892 h 0.104062 0.104051 l 0.02053,-0.46563 0.02054,-0.46566 0.103219,-0.009 0.10323,-0.009 0.008,-0.34684 0.008,-0.34687 h 0.112373 0.112397 v -0.33975 -0.33977 h 0.113265 0.113266 v -0.35392 -0.35392 h 0.110309 0.110309 l 0.02004,-0.22651 0.02005,-0.22652 h 0.0932 0.09319 l 0.01992,-0.22497 0.01992,-0.22497 0.10336,-0.009 0.103359,-0.009 0.0081,-0.23358 0.0081,-0.23359 h 0.112106 0.112118 v -0.22654 -0.2265 h 0.113267 0.113265 v -0.2265 -0.22651 h 0.113266 0.113267 v -0.12737 -0.12736 h 0.110309 0.110307 l 0.02005,-0.22651 0.02004,-0.22653 h 0.110308 0.110309 v -0.22651 -0.22652 h 0.113267 0.113265 v -0.12738 -0.12735 h 0.113266 0.113267 v -0.11332 -0.11331 h 0.113266 0.113255 v -0.11331 c 0,-0.11274 4.93e-4,-0.11331 0.110307,-0.11331 h 0.110309 l 0.02004,-0.22652 0.02005,-0.2265 h 0.110309 0.110308 v -0.12738 -0.12737 h 0.113267 0.113266 v -0.11332 -0.11331 h 0.113266 0.113266 v -0.11332 -0.1133 h 0.113266 0.113266 v -0.11331 c 0,-0.11297 2.72e-4,-0.11332 0.111631,-0.11332 0.111085,0 0.111654,-5.6e-4 0.120326,-0.12041 0.0086,-0.11971 0.0092,-0.1204 0.129045,-0.1291 0.11975,-0.009 0.120343,-0.009 0.120343,-0.12042 0,-0.11134 2.74e-4,-0.11168 0.113266,-0.11168 h 0.113266 v -0.11332 -0.11331 h 0.113266 0.113267 v -0.11332 -0.1133 h 0.113265 0.113266 v -0.11332 -0.11331 h 0.113267 c 0.112987,0 0.113266,-2.7e-4 0.113266,-0.11168 0,-0.11101 5.83e-4,-0.1117 0.120345,-0.12042 0.11702,-0.009 0.120726,-0.0122 0.134488,-0.12059 0.01339,-0.10604 0.01938,-0.11204 0.113266,-0.11332 0.0961,-0.001 0.09936,-0.005 0.107803,-0.12163 l 0.0086,-0.12042 h 0.224885 0.224882 v -0.11332 -0.1133 h 0.113266 0.113265 v -0.11332 -0.11331 h 0.127409 0.127408 v -0.1103 -0.11029 l 0.22651,-0.0201 0.226512,-0.02 v -0.1103 c 0,-0.10983 5.04e-4,-0.1103 0.113267,-0.1103 h 0.113266 v -0.11331 -0.11331 h 0.226512 0.226511 v -0.11331 -0.11332 h 0.12741 0.127407 v -0.11331 -0.11331 h 0.22651 0.226513 v -0.10961 -0.10959 l 0.226511,-0.0197 0.226513,-0.0197 v -0.0947 -0.0946 l 0.240667,-0.0201 0.240668,-0.02 v -0.10995 -0.10995 h 0.226512 0.226511 v -0.11331 -0.11331 h 0.240667 0.24067 v -0.11331 -0.11332 h 0.339766 0.339768 v -0.11204 -0.11203 l 0.23359,-0.009 0.233589,-0.009 0.0084,-0.10226 0.0084,-0.10226 0.172566,-0.0181 c 0.09491,-0.0108 0.247136,-0.018 0.338288,-0.018 h 0.165725 v -0.095 -0.095 l 0.174035,-0.0183 c 0.09572,-0.0108 0.305953,-0.0182 0.467181,-0.0182 h 0.293143 v -0.11331 -0.11332 h 0.46718 0.467181 v -0.11539 c 0,-0.11238 0.0028,-0.1154 0.09198,-0.1103 0.05061,0.001 0.311806,0.004 0.580439,0.001 l 0.488406,-0.001 v -0.11331 -0.11332 h 2.661512 2.661512 v 0.11332 0.11331 l 0.62998,0.004 c 0.346491,0.001 0.655469,0.005 0.686617,0.006 0.04437,0.001 0.05857,0.026 0.06538,0.10914 l 0.0084,0.10614 h 0.465471 0.465472 v 0.11331 0.11331 h 0.353919 0.353929 v 0.11332 0.11331 h 0.165719 c 0.09111,0 0.244052,0.006 0.339776,0.0182 0.173307,0.018 0.174034,0.0185 0.174034,0.10926 0,0.0907 7.2e-4,0.091 0.174037,0.10925 0.09573,0.0108 0.254981,0.0182 0.35392,0.0182 H 63.5711 v 0.11332 0.11331 h 0.22652 0.226509 v 0.11239 0.11239 l 0.346842,0.006 0.346853,0.006 0.0084,0.10615 0.0084,0.10614 h 0.224806 0.224799 v 0.1103 0.1103 l 0.224975,0.0201 0.224978,0.02 0.0084,0.10334 c 0.0084,0.0999 0.01222,0.10366 0.128943,0.11203 0.115886,0.009 0.120416,0.0122 0.120416,0.10323 v 0.0945 l 0.226502,0.0201 0.226509,0.0201 v 0.11028 0.1103 h 0.220729 0.220729 l 0.0066,0.10367 c 0.0084,0.1418 0.02299,0.15557 0.132424,0.13503 l 0.09519,-0.0178 0.0084,0.12319 c 0.0084,0.12303 0.0084,0.1232 0.129113,0.13191 l 0.120417,0.009 v 0.21075 0.21071 h 0.113278 0.113277 v 0.12739 0.12737 h 0.113278 0.113277 v 0.22653 0.22649 h 0.111712 c 0.111016,0 0.111712,5.7e-4 0.120418,0.12024 0.0084,0.11675 0.01221,0.12059 0.114844,0.12912 l 0.106148,0.009 v 0.16409 c 0,0.0901 0.0084,0.24166 0.01807,0.33656 l 0.01807,0.17262 0.102322,0.009 0.102321,0.009 v 1.50061 1.50066 l -0.106148,0.009 -0.106148,0.009 v 0.16408 c 0,0.0903 -0.0084,0.24235 -0.01827,0.33807 -0.01826,0.17401 -0.01826,0.17402 -0.110668,0.17402 h -0.09254 l -0.01996,0.24067 -0.01995,0.24067 h -0.109718 -0.109972 v 0.22651 0.2265 H 67.61909 67.505801 v 0.11332 0.1133 h -0.113277 -0.113279 v 0.12737 0.12739 h -0.113103 -0.113278 v 0.11331 0.11331 h -0.113289 -0.113277 v 0.11331 0.11332 h -0.127382 -0.127371 v 0.11331 0.11331 h -0.113277 -0.113279 v 0.11331 0.11332 h -0.11323 c -0.112582,0 -0.113278,6.1e-4 -0.113278,0.10959 v 0.10961 l -0.22492,0.0197 -0.224903,0.0195 -0.0084,0.10442 c -0.0084,0.10096 -0.01221,0.10464 -0.128942,0.11308 -0.115713,0.009 -0.120238,0.0122 -0.120238,0.10323 v 0.0946 l -0.2265,0.0201 -0.226521,0.0201 v 0.1103 0.1103 H 64.490883 64.0237 v 0.11331 0.11332 h -1.047877 -1.047614 v -0.11332 -0.11331 h -0.45303 -0.453019 v -0.11332 -0.1133 h -0.35392 -0.353929 v -0.1103 -0.1103 l -0.224968,-0.0198 -0.224967,-0.02 -0.0084,-0.10333 -0.0084,-0.10334 -0.233587,-0.009 -0.233588,-0.009 v -0.11204 -0.11204 h -0.35399 -0.353929 v -0.11331 -0.11331 H 57.86544 57.058491 v -0.11331 -0.11332 h -0.452589 -0.45302 v 0.11332 0.11331 h -0.821103 -0.821105 v 0.11331 0.11331 H 54.17091 53.831136 v 0.11332 0.11331 h -0.238943 -0.238962 l -0.0084,0.10615 c -0.0084,0.0985 -0.01533,0.10637 -0.100128,0.10788 -0.05023,8.3e-4 -0.100138,0.0108 -0.1109,0.0212 -0.01081,0.0108 -0.0684,0.0197 -0.128081,0.0197 -0.104613,0 -0.108544,0.004 -0.108544,0.0966 v 0.0966 l -0.240674,0.0201 -0.240666,0.0201 v 0.10996 0.10994 h -0.226512 -0.22651 v 0.11331 0.11332 h -0.113267 -0.113266 v 0.1133 0.11332 h -0.113266 c -0.112755,0 -0.113266,5.1e-4 -0.113266,0.1103 v 0.1103 l -0.224969,0.0198 -0.224971,0.02 -0.0086,0.10334 c -0.0083,0.0998 -0.01287,0.10366 -0.128957,0.11204 -0.119751,0.009 -0.120341,0.009 -0.120341,0.12041 0,0.11135 -2.77e-4,0.11169 -0.113266,0.11169 h -0.113346 v 0.12738 c 0,0.0943 -0.01102,0.12737 -0.04247,0.12737 -0.02359,0 -0.04247,0.0253 -0.04247,0.0566 0,0.0312 -0.0127,0.0567 -0.02831,0.0567 -0.01549,0 -0.02831,-0.0254 -0.02831,-0.0567 0,-0.0312 -0.01165,-0.0566 -0.02591,-0.0566 -0.01427,0 -0.03485,0.0956 -0.0458,0.21234 l -0.0199,0.21237 h -0.108302 c -0.107165,0 -0.108384,8.3e-4 -0.117002,0.12041 -0.0083,0.11623 -0.01236,0.12058 -0.112083,0.12894 l -0.10336,0.009 -0.01993,0.22496 -0.01992,0.22499 h -0.110313 c -0.109821,0 -0.110309,5.1e-4 -0.110309,0.1133 v 0.11332 h -0.112407 -0.113266 v 0.24067 0.24067 h -0.113267 -0.113266 v 0.16566 c 0,0.0911 -0.0081,0.24405 -0.01818,0.33976 -0.01815,0.17367 -0.01842,0.17404 -0.109904,0.17404 h -0.09172 l -0.02004,0.24068 -0.02005,0.24067 h -0.09354 -0.09356 l -0.02061,0.46717 -0.0206,0.46719 h -0.09325 -0.09324 l -0.01808,0.20526 c -0.0098,0.11297 -0.01427,0.68309 -0.0095,1.26706 l 0.0084,1.06177 0.106181,0.009 0.106181,0.009 v 0.22037 c 0,0.12127 0.0083,0.37522 0.01851,0.56456 l 0.01852,0.3442 h 0.0922 0.0922 l 0.02005,0.24067 0.02004,0.24067 h 0.109903 0.109903 v 0.33976 0.33977 h 0.113265 0.113266 v 0.12737 0.12739 h 0.113267 0.113266 v 0.22649 0.22652 h 0.110297 0.110308 l 0.02005,0.22651 0.02005,0.22649 h 0.110297 0.110309 v 0.12738 0.12736 h 0.113266 0.113265 v 0.11332 0.11331 h 0.113267 0.113266 v 0.11331 0.11331 h 0.113266 0.113266 v 0.11332 0.11331 h 0.113254 0.113267 v 0.11331 c 0,0.11309 9.1e-5,0.11331 0.11272,0.11331 0.09421,0 0.115424,0.0108 0.129166,0.0655 0.0091,0.0361 0.0141,0.0774 0.01125,0.0921 -0.01496,0.0774 0.0084,0.0973 0.114866,0.0973 h 0.113266 v 0.1133 0.11332 h 0.113267 0.113266 v 0.11331 0.11332 h 0.226512 0.22651 v 0.11331 0.11331 h 0.127408 0.12741 v 0.11331 0.11332 h 0.226513 0.22651 v 0.1103 0.11029 l 0.22651,0.02 0.226509,0.0201 v 0.0921 c 0,0.0921 2.56e-4,0.0922 0.174038,0.1103 0.09572,0.0108 0.254989,0.0183 0.353928,0.0183 h 0.179884 v 0.11332 0.1133 l 0.37516,0.001 c 0.206338,0.001 0.410197,6.9e-4 0.453021,-0.001 0.07304,-0.005 0.07787,0.001 0.07787,0.1103 v 0.1154 h 1.628053 1.628053 v -0.0686 c 0,-0.15852 -0.0018,-0.158 0.484366,-0.158 h 0.450286 v -0.11331 -0.11331 l 0.191113,-2.6e-4 c 0.105121,-1.4e-4 0.258017,-0.009 0.339775,-0.0181 0.145084,-0.0174 0.148651,-0.0201 0.148651,-0.1096 v -0.0919 l 0.240665,-0.0201 0.240674,-0.0201 v -0.11064 -0.11065 h 0.226509 0.226511 v -0.11331 -0.11332 h 0.353928 0.353921 v -0.11331 -0.11331 h 1.385069 c 0.761779,0 1.405215,0.006 1.429853,0.0174 0.0246,0.009 0.04475,0.0294 0.04475,0.0442 0,0.0156 -0.01268,0.0191 -0.02829,0.009 -0.01598,-0.0108 -0.02829,0.0139 -0.02829,0.055 0,0.0607 0.01268,0.072 0.07787,0.0702 0.04287,-8.2e-4 0.06197,-0.009 0.04248,-0.0158 -0.04986,-0.02 -0.044,-0.085 0.0095,-0.10561 0.06906,-0.0266 0.07314,-0.0226 0.0634,0.0607 l -0.0095,0.0779 0.247751,0.006 0.247743,0.006 v 0.11204 0.11227 h 0.226509 0.22651 v 0.10995 0.10996 l 0.240664,0.0201 0.240675,0.0201 v 0.11064 c 0,0.1103 4.35e-4,0.11065 0.113278,0.11065 h 0.113277 v 0.11331 0.11332 h 0.226509 0.226521 v 0.1133 0.11332 h 0.113278 c 0.112929,0 0.113277,2.9e-4 0.113277,0.11169 0,0.11099 5.77e-4,0.11168 0.120418,0.12042 0.119717,0.009 0.120408,0.009 0.129113,0.1291 0.0084,0.11972 0.0084,0.12043 0.120407,0.12043 0.111364,0 0.111538,2.6e-4 0.111538,0.11332 v 0.1133 h 0.113278 0.113277 v 0.22652 0.22651 h 0.113279 0.113277 v 0.11332 0.1133 h 0.113278 0.113289 v 0.24067 0.24068 h 0.109277 0.109275 l 0.01807,0.17403 c 0.01049,0.0957 0.01826,0.24862 0.01826,0.33978 v 0.16565 h 0.113278 0.113277 v 1.45401 c 0,0.7997 -0.0084,1.53233 -0.01827,1.62804 -0.01807,0.17332 -0.01844,0.17405 -0.109276,0.17405 h -0.09121 l -0.02526,0.23358 -0.02507,0.23361 -0.08922,-0.009 -0.08932,-0.009 -0.02016,0.2425 -0.02016,0.24253 h -0.109983 -0.109973 v 0.22651 0.22651 h -0.113337 -0.113289 v 0.11332 0.11331 H 67.39472 67.281443 v 0.12737 0.12738 h -0.115366 c -0.102138,0 -0.114669,0.006 -0.110146,0.0637 0.01221,0.15105 0.0038,0.16287 -0.114322,0.16287 h -0.113277 v 0.11331 0.11332 h -0.12739 -0.127372 v 0.11331 0.11331 h -0.113278 -0.113277 v 0.11331 0.11332 h -0.226757 -0.22651 v 0.11168 c 0,0.111 -5.87e-4,0.11169 -0.120408,0.12041 -0.116244,0.009 -0.120587,0.0122 -0.128942,0.11203 l -0.0084,0.10333 -0.224968,0.0198 -0.224959,0.02 v 0.1103 0.11029 h -0.339809 -0.339765 v 0.11331 0.11332 h -0.240728 -0.240664 v 0.11204 0.11203 l -0.233588,0.009 -0.233598,0.009 -0.0084,0.10615 -0.0084,0.10615 h -0.163893 c -0.09017,0 -0.242339,0.006 -0.338062,0.0182 -0.173308,0.018 -0.174035,0.0187 -0.174035,0.10925 0,0.0907 -7.2e-4,0.0911 -0.174037,0.10926 -0.09572,0.0108 -0.299581,0.0182 -0.45302,0.0182 h -0.278985 v 0.11332 0.11331 h -0.354022 -0.353919 v 0.11331 0.11331 h -0.580439 -0.58044 v 0.11273 0.11273 l -0.814016,0.006 -0.814027,0.006 -0.0018,0.0991 -0.0018,0.0991 -1.860192,0.006 -1.860183,0.006 z m 4.195829,-5.08961 0.0084,-0.10615 0.240674,-0.004 c 0.132367,-10e-4 0.383231,-0.005 0.557484,-0.006 l 0.316821,-10e-4 0.0084,-0.10615 0.0084,-0.10615 0.297303,-0.006 c 0.408748,-0.0108 0.42471,-0.0139 0.42471,-0.13504 v -0.0985 h 0.165719 c 0.09111,0 0.243807,-0.006 0.339236,-0.0181 0.168122,-0.0176 0.174026,-0.0209 0.19066,-0.1096 0.01618,-0.086 0.02592,-0.0925 0.163334,-0.10914 0.08042,-0.0108 0.225821,-0.0176 0.323151,-0.0178 l 0.17696,-2.5e-4 v -0.11203 -0.11204 l 0.233588,-0.009 0.233587,-0.009 0.0084,-0.10614 0.0084,-0.10615 h 0.224808 0.224797 v -0.11332 c 0,-0.11273 4.25e-4,-0.11331 0.110715,-0.11331 h 0.110902 l 0.01911,-0.23358 c 0.01059,-0.12843 0.01477,-0.28457 0.0095,-0.34687 -0.0095,-0.1089 -0.01391,-0.11378 -0.122783,-0.12736 -0.107468,-0.0139 -0.113696,-0.0195 -0.122045,-0.12042 l -0.0084,-0.10615 h -0.223095 -0.223094 l -0.0084,0.10615 -0.0084,0.10615 -0.226519,0.0139 -0.22651,0.0139 -0.0084,0.10614 -0.0084,0.10615 -0.189411,0.001 c -0.104181,0.001 -0.253115,0.0108 -0.330985,0.0212 -0.146513,0.0195 -0.142576,0.0139 -0.152709,0.18156 -0.0028,0.0428 -0.03368,0.0495 -0.225905,0.0495 h -0.222887 l -0.01798,0.11239 -0.01798,0.11238 -0.332498,0.006 -0.332499,0.006 -0.0084,0.0881 c -0.0084,0.0858 -0.01324,0.0885 -0.181113,0.10615 -0.09489,0.0108 -0.253476,0.018 -0.352415,0.018 -0.123881,0 -0.180564,0.0108 -0.182059,0.0352 -0.0048,0.0699 -0.02224,0.14007 -0.04049,0.15834 -0.01016,0.0108 -0.364772,0.0252 -0.787837,0.0328 l -0.769207,0.0139 -0.0084,0.0881 c -0.0084,0.0858 -0.01324,0.0886 -0.181113,0.10615 -0.0949,0.0108 -0.769501,0.0181 -1.49913,0.0181 h -1.326606 v -0.1001 c 0,-0.055 -0.01598,-0.10539 -0.03539,-0.11226 -0.0195,-0.006 -0.328449,-0.0156 -0.686617,-0.0204 l -0.65122,-0.006 -0.0084,-0.10615 -0.0084,-0.10614 H 53.137792 52.67233 v -0.11331 -0.11331 h -0.223929 c -0.284067,0 -0.306809,-0.009 -0.291336,-0.11436 0.01027,-0.0696 0.0021,-0.0844 -0.04754,-0.0873 -0.03293,-0.001 -0.0694,-0.005 -0.08108,-0.009 -0.01165,-0.001 -0.132715,-0.0157 -0.268983,-0.0274 l -0.247746,-0.022 v -0.0939 -0.0939 l -0.240669,-0.02 -0.240668,-0.0201 v -0.10996 -0.10994 h -0.224803 -0.2248 l -0.009,-0.10615 -0.009,-0.10615 -0.226511,-0.0139 -0.226511,-0.0139 -0.009,-0.10615 -0.009,-0.10615 H 49.867161 49.64236 v -0.1133 -0.11332 h -0.113267 c -0.112755,0 -0.113265,-5e-4 -0.113265,-0.1103 v -0.1103 l -0.224972,-0.02 -0.224969,-0.0198 -0.0086,-0.10333 c -0.0083,-0.0999 -0.01287,-0.10367 -0.128957,-0.11204 -0.119752,-0.009 -0.120345,-0.009 -0.120345,-0.12042 0,-0.1088 -0.0025,-0.11158 -0.09948,-0.11158 -0.05471,0 -0.127982,-0.0139 -0.162802,-0.0327 -0.03484,-0.0181 -0.08242,-0.0416 -0.105803,-0.0524 -0.02336,-0.0108 -0.04656,-0.0472 -0.05153,-0.0806 -0.0077,-0.0516 -0.02784,-0.0608 -0.134491,-0.0608 h -0.125441 v -0.1103 c 0,-0.11624 -0.03071,-0.1446 -0.156329,-0.1446 -0.05672,0 -0.06807,-0.0157 -0.07555,-0.10615 -0.0083,-0.10042 -0.01463,-0.10668 -0.114971,-0.11505 -0.09018,-0.006 -0.106181,-0.0188 -0.106181,-0.0754 0,-0.12564 -0.0284,-0.15626 -0.1446,-0.15626 -0.109717,0 -0.110216,-5.3e-4 -0.110216,-0.11332 v -0.11331 h -0.11427 -0.113266 v -0.11332 -0.1133 h -0.113146 -0.113267 v -0.11332 c 0,-0.11297 -2.71e-4,-0.11331 -0.111619,-0.11331 -0.111086,0 -0.111677,-5.8e-4 -0.120328,-0.12041 -0.0083,-0.11606 -0.01235,-0.12059 -0.111701,-0.12895 l -0.103003,-0.009 -0.01961,-0.20926 -0.01961,-0.20925 -0.103922,-0.009 c -0.10016,-0.009 -0.104203,-0.0122 -0.112535,-0.12736 -0.0083,-0.11471 -0.01218,-0.11904 -0.113266,-0.1274 -0.09865,-0.009 -0.105132,-0.0139 -0.113417,-0.11482 -0.0084,-0.10323 -0.01182,-0.10615 -0.120327,-0.10615 h -0.111538 v -0.12737 -0.12736 H 45.5925 45.479234 v -0.22653 -0.22652 h -0.110298 -0.110308 l -0.01992,-0.22495 -0.01992,-0.22498 -0.103359,-0.009 -0.10336,-0.009 -0.0083,-0.2178 -0.0083,-0.2178 -0.105014,-0.009 -0.105002,-0.009 -0.0081,-0.2336 -0.0081,-0.23359 H 44.658168 44.54721 l -0.0081,-0.23359 -0.0081,-0.23359 -0.09909,-0.0139 c -0.08722,-0.0122 -0.09947,-0.0242 -0.102052,-0.0991 -0.01954,-0.5604 -0.02484,-0.58043 -0.153753,-0.58043 -0.08236,0 -0.08396,-0.001 -0.08415,-0.14862 -1.09e-4,-0.0816 -0.0083,-0.23397 -0.01811,-0.33824 -0.01766,-0.18704 -0.0191,-0.18974 -0.105975,-0.19821 -0.0827,-0.006 -0.08921,-0.0174 -0.10683,-0.15017 -0.01027,-0.0779 -0.01987,-0.28355 -0.02124,-0.45708 -0.0027,-0.3332 -0.0095,-0.34987 -0.146358,-0.34987 -0.04903,0 -0.05445,-0.0226 -0.05574,-0.2336 -7.8e-4,-0.12843 -0.0095,-0.35463 -0.01965,-0.50256 -0.02454,-0.36228 -0.01992,-3.87142 0.0053,-4.14217 l 0.02016,-0.21493 0.08976,-0.009 0.08976,-0.009 0.01778,-0.39639 c 0.0097,-0.21802 0.01932,-0.42506 0.02124,-0.4601 0.0028,-0.0528 0.01985,-0.0637 0.09845,-0.0637 h 0.09501 l 0.01804,-0.19112 c 0.0099,-0.10507 0.01813,-0.26279 0.01825,-0.35037 1.94e-4,-0.15454 0.0028,-0.15975 0.08582,-0.1764 0.07334,-0.014 0.08319,-0.0268 0.06868,-0.0845 -0.01165,-0.0466 -0.0031,-0.0728 0.02764,-0.0845 0.03542,-0.014 0.04458,-0.0637 0.04458,-0.24419 v -0.22705 l 0.113267,-0.018 0.113265,-0.018 v -0.21929 -0.21927 l 0.11206,-0.0178 0.11206,-0.0178 0.0083,-0.21928 0.0083,-0.21927 0.10618,-0.009 0.106181,-0.009 v -0.22307 -0.22312 l 0.106181,-0.009 0.106181,-0.009 0.02562,-0.21943 0.02562,-0.21944 h 0.107327 0.107327 l 0.0086,-0.13138 c 0.008,-0.12146 0.0148,-0.13207 0.08961,-0.1399 0.04455,-0.004 0.08657,-0.0139 0.09338,-0.0209 0.0068,-0.006 0.02002,-0.10301 0.0293,-0.21395 l 0.01688,-0.20156 h 0.104333 0.104332 l 0.02605,-0.20528 0.02605,-0.20526 0.09909,-0.0139 c 0.08521,-0.0122 0.100441,-0.026 0.108685,-0.0991 0.01236,-0.10994 0.04773,-0.15035 0.141138,-0.16113 0.06522,-0.006 0.07776,-0.0246 0.08995,-0.12199 0.0079,-0.0623 0.03009,-0.11482 0.04956,-0.11674 0.01947,-10e-4 0.06724,-0.005 0.106181,-0.006 0.06311,-0.004 0.07079,-0.0156 0.07079,-0.11675 v -0.11331 h 0.113266 0.113265 v -0.11332 -0.11331 h 0.113267 0.113266 v -0.11331 -0.11331 h 0.113266 0.113266 v -0.11332 -0.11331 h 0.113266 c 0.112744,0 0.113266,-5e-4 0.113266,-0.11018 0,-0.11955 0.02985,-0.14459 0.172199,-0.14459 0.07753,0 0.08262,-0.006 0.08262,-0.11332 v -0.11331 h 0.113266 0.113267 v -0.11332 -0.1133 h 0.113265 0.113266 v -0.11332 -0.11331 h 0.226511 0.226512 v -0.11332 c 0,-0.11273 5.03e-4,-0.1133 0.110227,-0.1133 0.116584,0 0.144601,-0.0306 0.144601,-0.158 0,-0.0611 0.01235,-0.0686 0.113265,-0.0686 0.112501,0 0.113267,-7.5e-4 0.113267,-0.10891 v -0.1089 l 0.219433,-0.0255 0.219432,-0.0255 0.0084,-0.10215 0.0084,-0.10215 0.196772,-0.0156 c 0.237259,-0.0198 0.253308,-0.0284 0.253308,-0.13471 0,-0.0797 0.0053,-0.0831 0.125702,-0.0831 0.124816,0 0.125774,-7.4e-4 0.134492,-0.10615 l 0.009,-0.10615 0.217793,-0.009 0.217791,-0.009 0.0086,-0.10496 0.0086,-0.10496 0.226511,-0.0139 0.226511,-0.0139 0.0141,-0.0991 c 0.01357,-0.095 0.02007,-0.0999 0.155719,-0.1178 0.07787,-0.0108 0.221205,-0.0199 0.318531,-0.0212 0.17435,-0.001 0.176964,-0.004 0.176964,-0.0816 0,-0.13174 0.04045,-0.14722 0.386192,-0.14722 h 0.31824 l 0.0084,-0.10615 0.0084,-0.10614 0.338677,-0.006 c 0.359039,-0.009 0.382106,-0.0176 0.382891,-0.15051 l 4.35e-4,-0.0736 0.555708,-0.004 c 0.305636,-0.001 0.566832,-0.0122 0.580428,-0.0201 0.01353,-0.009 0.02469,-0.0384 0.02469,-0.0668 0,-0.12911 -0.0057,-0.12877 1.795181,-0.13816 0.935873,-0.005 1.792722,-7.7e-4 1.904114,0.009 l 0.202534,0.0183 0.01816,0.097 0.01816,0.097 h 0.57744 0.577439 l 0.0084,0.10463 0.0084,0.10464 0.240674,0.009 c 0.132368,0.005 0.333037,0.0157 0.445943,0.0253 l 0.205268,0.0156 v 0.0968 0.0967 h 0.210038 c 0.272844,0 0.301502,0.0122 0.280697,0.11587 -0.01702,0.0856 -0.01684,0.0858 0.132178,0.096 0.03889,0.001 0.1759,0.0139 0.304379,0.0268 l 0.233588,0.022 v 0.0922 c 0,0.0902 0.0038,0.0925 0.14865,0.10994 0.08174,0.0108 0.190065,0.0178 0.240673,0.0181 0.08846,2.3e-4 0.09206,0.004 0.09206,0.11343 v 0.1133 h 0.194246 c 0.10684,0 0.253362,0.006 0.325611,0.0181 0.126671,0.0174 0.131355,0.0213 0.131355,0.11331 v 0.0952 h 0.338101 c 0.185946,0 0.344749,-0.0108 0.352897,-0.024 0.03131,-0.0508 0.05166,-0.48732 0.03227,-0.69385 l -0.02025,-0.21657 h -0.208231 -0.20823 l -0.0084,-0.10615 c -0.0084,-0.10323 -0.0124,-0.10647 -0.136201,-0.12041 -0.123851,-0.0139 -0.127645,-0.0174 -0.136188,-0.12042 l -0.0084,-0.10615 h -0.221936 -0.221988 l -0.02479,-0.10496 c -0.02223,-0.0939 -0.035,-0.10561 -0.123142,-0.11192 -0.05413,-0.004 -0.197084,-0.0158 -0.317776,-0.0249 l -0.219434,-0.0178 v -0.0925 -0.0925 l -0.191122,-0.0181 c -0.105122,-0.0108 -0.264376,-0.0181 -0.353921,-0.0182 l -0.162805,-2e-4 v -0.0952 c 0,-0.0937 -0.0018,-0.0956 -0.148651,-0.11309 -0.08174,-0.0108 -0.234657,-0.0178 -0.339764,-0.018 -0.190386,-2.5e-4 -0.191123,-5.4e-4 -0.191123,-0.0795 0,-0.13746 -0.03311,-0.1472 -0.501153,-0.1472 h -0.432872 v -0.0967 -0.0967 l -0.205278,-0.0156 c -0.112895,-0.009 -0.574771,-0.0228 -1.026372,-0.0317 -0.45161,-0.009 -0.935779,-0.0211 -1.075933,-0.0269 -0.140164,-0.005 -0.313575,-0.0122 -0.385388,-0.0139 -0.123569,-0.001 -0.129851,-0.005 -0.11704,-0.0731 0.01344,-0.0699 0.01113,-0.0706 -0.166732,-0.0665 -0.09916,0.001 -0.145226,0.009 -0.102398,0.0156 0.05403,0.006 0.07787,0.0286 0.07787,0.0667 0,0.0495 -0.02148,0.0547 -0.224844,0.0547 -0.123673,0 -0.232717,0.0122 -0.242339,0.0284 -0.01113,0.018 -0.388512,0.0283 -1.03892,0.0283 -1.123295,0 -1.231253,0.0122 -1.245937,0.13851 l -0.0084,0.0737 -0.368085,0.0139 -0.368083,0.0139 -0.0084,0.0881 c -0.0084,0.0838 -0.01618,0.0891 -0.155719,0.10604 -0.0809,0.0108 -0.219348,0.0178 -0.30762,0.0179 -0.182402,2.6e-4 -0.250062,0.0191 -0.250062,0.0697 0,0.0192 -0.02548,0.0582 -0.05662,0.0863 -0.03114,0.0282 -0.05662,0.0414 -0.05662,0.0292 0,-0.0122 -0.01618,-0.009 -0.03587,0.006 -0.01974,0.0156 -0.14714,0.0387 -0.283139,0.0497 l -0.24727,0.02 v 0.0811 c 0,0.0739 -0.009,0.0811 -0.09909,0.0811 -0.0545,0 -0.09909,0.0122 -0.09909,0.0284 0,0.0156 -0.09381,0.0283 -0.224802,0.0283 h -0.224803 l -0.009,0.10615 -0.009,0.10615 -0.23359,0.009 -0.23359,0.009 v 0.11203 0.11204 h -0.225933 -0.226515 v 0.10996 0.10994 l -0.240666,0.0201 -0.240669,0.02 v 0.11065 c 0,0.10995 -7.12e-4,0.11064 -0.111538,0.11064 -0.108465,0 -0.111781,10e-4 -0.120327,0.10615 l -0.009,0.10615 -0.219432,0.009 c -0.217522,0.006 -0.219438,0.009 -0.219867,0.085 -6.41e-4,0.11307 -0.03032,0.14216 -0.155669,0.15242 -0.115957,0.009 -0.113985,0.006 -0.124032,0.17192 -0.0027,0.042 -0.03238,0.0494 -0.199499,0.0494 h -0.196487 l -0.009,0.10615 c -0.0084,0.10302 -0.01235,0.10647 -0.129114,0.11482 -0.11942,0.009 -0.120344,0.0108 -0.120344,0.11865 0,0.10915 -9.11e-4,0.11018 -0.120325,0.11868 -0.116446,0.009 -0.120622,0.0122 -0.129025,0.1133 -0.0081,0.0984 -0.01496,0.10507 -0.113267,0.11332 -0.09417,0.006 -0.107088,0.0189 -0.130001,0.11157 -0.02354,0.0953 -0.03485,0.10432 -0.152604,0.12041 -0.06995,0.0108 -0.163619,0.0174 -0.208162,0.0174 -0.07561,0 -0.08101,0.006 -0.08101,0.11332 v 0.1133 h -0.113266 c -0.112745,0 -0.113266,4.8e-4 -0.113266,0.11018 0,0.11624 -0.03071,0.1446 -0.15633,0.1446 -0.05672,0 -0.06807,0.0156 -0.07555,0.10615 -0.0083,0.10009 -0.0148,0.10669 -0.113347,0.11482 -0.09825,0.006 -0.105089,0.0157 -0.113266,0.11331 -0.0083,0.10129 -0.01253,0.10474 -0.129027,0.11331 -0.110876,0.006 -0.120327,0.0156 -0.120327,0.0882 0,0.0436 -0.0081,0.1385 -0.01801,0.21073 -0.01548,0.11262 -0.02722,0.13138 -0.08262,0.13138 -0.118952,0 -0.154187,0.0299 -0.154187,0.13051 0,0.096 -0.03165,0.11516 -0.162802,0.0982 -0.02381,-0.004 -0.0354,0.0376 -0.0354,0.12406 v 0.12859 h -0.11163 c -0.111087,0 -0.111678,5.8e-4 -0.120326,0.12043 -0.0083,0.11622 -0.01236,0.12057 -0.112061,0.12893 -0.110621,0.009 -0.115284,0.0201 -0.143713,0.33116 -0.0068,0.0734 -0.0211,0.0869 -0.106851,0.0991 -0.09348,0.0139 -0.09958,0.0209 -0.107737,0.13294 -0.0083,0.1147 -0.01218,0.11903 -0.113266,0.12738 l -0.104625,0.009 -0.0083,0.21779 -0.0083,0.21779 -0.105014,0.009 c -0.100441,0.009 -0.105413,0.0139 -0.113996,0.12198 -0.0048,0.0623 -0.02086,0.12528 -0.0354,0.14008 -0.01463,0.0156 -0.02642,0.0552 -0.02642,0.0898 0,0.0469 -0.02166,0.0676 -0.08495,0.0814 -0.07369,0.0156 -0.08494,0.0313 -0.08494,0.11331 0,0.14878 -0.02432,0.18411 -0.127113,0.18411 h -0.09265 l -0.02048,0.21942 c -0.02105,0.22559 -0.04077,0.26073 -0.146722,0.26149 -0.05466,3.8e-4 -0.0633,0.02 -0.07821,0.17739 -0.0092,0.0973 -0.01978,0.24067 -0.0235,0.31854 -0.0068,0.14147 -0.0068,0.14164 -0.111805,0.15034 l -0.105067,0.009 -0.0081,0.23195 -0.0081,0.23193 -0.105316,0.009 -0.105316,0.009 -0.008,0.34519 c -0.0065,0.28236 -0.01567,0.34588 -0.05042,0.34898 -0.02336,0.001 -0.07113,0.005 -0.106181,0.006 -0.06153,0.004 -0.06371,0.0122 -0.06371,0.28226 0,0.15348 -0.008,0.35604 -0.01789,0.45022 -0.01653,0.15801 -0.02387,0.17246 -0.09517,0.1867 -0.09616,0.0192 -0.109208,0.0879 -0.130107,0.68384 -0.01918,0.54666 -0.02169,0.55826 -0.118847,0.54691 -0.06054,-0.006 -0.07723,0.004 -0.07859,0.0477 -9.12e-4,0.0312 -0.0107,0.0757 -0.02149,0.0991 -0.01081,0.0233 -0.01653,0.87066 -0.01236,1.88288 l 0.0074,1.8404 0.08826,0.009 c 0.08371,0.006 0.08916,0.0156 0.105932,0.15574 0.0097,0.0809 0.0179,0.24908 0.01812,0.37364 2.47e-4,0.1246 0.0084,0.31252 0.0185,0.41765 l 0.01806,0.19111 h 0.09502 c 0.07859,0 0.09561,0.0108 0.09856,0.0637 0.0018,0.0349 0.01148,0.24848 0.02124,0.47426 l 0.01768,0.41055 0.08976,0.009 0.08976,0.009 0.01688,0.20365 c 0.0092,0.11204 0.01985,0.26735 0.0235,0.34522 0.0063,0.13103 0.01235,0.14216 0.08371,0.1505 0.09819,0.0108 0.134942,0.13018 0.135167,0.43709 l 1.59e-4,0.21942 h 0.113267 0.113266 v 0.22617 0.22619 l 0.113266,0.018 0.113266,0.0181 0.0021,0.1875 c 0.0012,0.10323 0.01081,0.24485 0.02124,0.31491 0.01792,0.11937 0.02545,0.12825 0.118237,0.14165 0.09348,0.0139 0.09958,0.0209 0.107738,0.13293 0.0083,0.11471 0.01218,0.11903 0.113266,0.12738 l 0.104624,0.009 0.0083,0.2178 0.0083,0.2178 0.105013,0.009 c 0.103781,0.009 0.105187,0.0108 0.119177,0.15016 0.01305,0.13033 0.0207,0.14252 0.09784,0.15574 0.09346,0.0158 0.121178,0.0769 0.12586,0.27613 l 0.0028,0.1204 h 0.11163 c 0.111086,0 0.111655,5.9e-4 0.120326,0.12043 0.0084,0.11693 0.01165,0.12058 0.115713,0.12911 0.06284,0.005 0.104798,0.0226 0.101674,0.0426 -0.0029,0.0185 0.0048,0.11261 0.01688,0.20907 l 0.02213,0.17546 0.1027,0.009 c 0.09899,0.009 0.102992,0.0122 0.1114,0.12894 0.0086,0.11972 0.0092,0.12041 0.120327,0.12041 0.111364,0 0.111631,2.8e-4 0.111631,0.11332 v 0.11331 h 0.113265 0.113266 v 0.12738 c 0,0.12667 5.24e-4,0.12737 0.09909,0.12737 0.07905,0 0.09981,0.0122 0.102635,0.0567 0.0084,0.13659 0.03836,0.16982 0.152153,0.16982 0.09017,0 0.09623,0.005 0.104505,0.10615 0.008,0.0964 0.01844,0.10856 0.113544,0.13206 0.09397,0.0232 0.105619,0.0363 0.113267,0.1274 0.008,0.0952 0.01531,0.10215 0.114692,0.1103 0.09968,0.009 0.10618,0.0139 0.10618,0.10323 0,0.10258 0.03513,0.12877 0.172198,0.12877 0.07527,0 0.08262,0.009 0.08262,0.0974 0,0.0921 0.0058,0.0978 0.106181,0.10615 0.100095,0.009 0.106667,0.0139 0.114867,0.11332 0.0081,0.0984 0.01496,0.10506 0.113265,0.11331 0.09888,0.009 0.105316,0.0156 0.118727,0.12196 0.01374,0.1103 0.01722,0.11343 0.134489,0.12199 0.11951,0.009 0.120327,0.009 0.120327,0.11919 v 0.11053 l 0.219432,0.009 0.219433,0.009 0.009,0.10615 c 0.0084,0.10323 0.01183,0.10615 0.120343,0.10615 0.111259,0 0.111538,2.9e-4 0.111538,0.11331 v 0.11331 h 0.127409 0.127408 v 0.10821 0.10821 l 0.201529,0.005 c 0.110842,0.001 0.212771,0.0122 0.226512,0.0209 0.01375,0.009 0.02498,0.0593 0.02498,0.11297 0,0.0949 0.0031,0.0974 0.113266,0.0974 0.06229,0 0.113266,0.0122 0.113266,0.0284 0,0.0156 0.04379,0.0283 0.09731,0.0283 0.0891,0 0.09805,0.006 0.106181,0.0921 l 0.009,0.0921 0.231947,0.009 0.231947,0.009 0.0086,0.10507 0.0086,0.10507 0.226514,0.0139 0.22651,0.0139 0.009,0.10615 0.009,0.10615 h 0.224802 0.224802 v 0.11332 0.11331 h 0.223046 c 0.242218,0 0.298067,0.0292 0.281593,0.14704 -0.009,0.0639 -0.0017,0.0661 0.301824,0.086 0.171033,0.0122 0.327113,0.0269 0.346846,0.0345 0.01974,0.006 0.03588,0.0507 0.03588,0.0957 0,0.0776 0.0077,0.0828 0.148655,0.0998 0.08176,0.0108 0.285618,0.0178 0.453021,0.018 l 0.30438,2.5e-4 v 0.11332 0.11331 h 0.467183 0.467174 v 0.11332 0.1133 h 2.433291 2.433288 z m -15.493083,-13.3865 v -0.4683 l 0.05768,0.0538 c 0.05363,0.0499 0.0567,0.0783 0.04373,0.40458 -0.0077,0.19297 -0.01444,0.37953 -0.01514,0.41456 -7.48e-4,0.0373 -0.01897,0.0637 -0.04375,0.0637 -0.03605,0 -0.04247,-0.0707 -0.04247,-0.46828 z m 0,-0.5652 c 0,-0.0234 0.0051,-0.0426 0.01113,-0.0426 0.0061,0 0.01846,0.0191 0.02742,0.0426 0.0091,0.0234 0.0039,0.0425 -0.01113,0.0425 -0.01513,0 -0.02742,-0.0191 -0.02742,-0.0425 z m 4.34e-4,-0.16269 c 3.49e-4,-0.0515 0.0058,-0.0556 0.02787,-0.0212 0.03548,0.0547 0.03548,0.0849 0,0.0849 -0.01549,0 -0.02813,-0.0286 -0.02787,-0.0637 z m -4.34e-4,-0.14861 c 0,-0.0235 0.0051,-0.0425 0.01113,-0.0425 0.0061,0 0.01846,0.0191 0.02742,0.0425 0.0091,0.0234 0.0039,0.0426 -0.01113,0.0426 -0.01513,0 -0.02742,-0.0191 -0.02742,-0.0426 z m 0,-0.14322 c 0,-0.0242 0.0127,-0.0363 0.02831,-0.0266 0.01548,0.0108 0.02831,0.0296 0.02831,0.0442 0,0.0139 -0.0127,0.0266 -0.02831,0.0266 -0.0155,0 -0.02831,-0.02 -0.02831,-0.0442 z m 4.34e-4,-0.18942 c 3.49e-4,-0.0514 0.0058,-0.0556 0.02787,-0.0212 0.03548,0.0548 0.03548,0.0849 0,0.0849 -0.01549,0 -0.02813,-0.0286 -0.02787,-0.0637 z m 12.969579,-13.26035 c 9.12e-4,-0.033 0.0084,-0.0397 0.01702,-0.0174 0.0084,0.0203 0.0076,0.0449 -0.0018,0.0543 -0.0095,0.009 -0.01618,-0.006 -0.01477,-0.0373 z m -13.366843,18.0737 c 2.39e-4,-0.0122 -0.01235,-0.0212 -0.02787,-0.0212 -0.01549,0 -0.02813,0.0286 -0.02787,0.0637 3.49e-4,0.0515 0.0058,0.0556 0.02787,0.0212 0.01514,-0.0234 0.02765,-0.0521 0.02787,-0.0637 z m 6.418723,-0.22476 c -0.0091,-0.0226 -0.01584,-0.0156 -0.01705,0.0174 -0.0013,0.0298 0.0053,0.0466 0.01479,0.0373 0.0094,-0.009 0.01049,-0.0338 0.0022,-0.0543 z m 6.626758,-17.90618 c -0.0095,-0.009 -0.03379,-0.0108 -0.05431,-0.001 -0.02261,0.009 -0.0158,0.0156 0.01703,0.0174 0.0298,8.2e-4 0.04656,-0.005 0.03718,-0.0157 z m 77.502887,32.77633 v -0.11332 h -0.45302 -0.45303 v -0.11331 -0.11332 h -0.24065 -0.24068 v -0.1103 -0.11029 l -0.22653,-0.0201 -0.22649,-0.0201 v -0.0933 -0.0933 l -0.22651,-0.0201 -0.22652,-0.0201 v -0.1103 c 0,-0.10983 -5e-4,-0.1103 -0.11332,-0.1103 h -0.11331 v -0.11331 -0.11331 h -0.12736 -0.12738 v -0.11331 -0.11332 h -0.11331 -0.11332 v -0.11331 -0.11332 h -0.1133 -0.11331 v -0.12737 -0.12737 h -0.11332 -0.11331 v -0.22653 -0.2265 h -0.11331 -0.11331 v -0.11331 c 0,-0.11274 -4.3e-4,-0.11331 -0.11065,-0.11331 h -0.11064 l -0.0201,-0.24067 -0.02,-0.24066 h -0.10994 -0.10995 v -0.33979 -0.33976 h -0.11332 -0.11331 v -0.46717 -0.46718 h -0.11331 -0.11331 v -13.80304 -13.80304 h 0.11331 0.11331 v -0.46719 -0.46718 h 0.11331 0.11332 v -0.33976 -0.33976 h 0.10959 0.10961 l 0.0197,-0.2249 0.0195,-0.22492 0.10442,-0.009 c 0.10085,-0.009 0.10463,-0.0122 0.11308,-0.12911 0.009,-0.11971 0.009,-0.12023 0.12041,-0.12023 0.11134,0 0.11158,-2.9e-4 0.11158,-0.11332 v -0.11331 h 0.1133 0.11332 v -0.22653 -0.22649 h 0.11331 c 0.11296,0 0.11332,-2.9e-4 0.11332,-0.11158 0,-0.11099 5.8e-4,-0.11169 0.1204,-0.12042 0.11955,-0.009 0.12041,-0.009 0.12894,-0.12789 l 0.009,-0.1192 0.2165,-0.009 0.21649,-0.009 0.001,-0.0991 c 0.001,-0.096 0.005,-0.0993 0.12163,-0.10776 0.11972,-0.009 0.12042,-0.009 0.12042,-0.12041 v -0.11158 h 0.22649 0.22653 v -0.10994 -0.10995 l 0.24066,-0.0201 0.24067,-0.0201 v -0.0925 c 0,-0.0924 7e-5,-0.0925 0.17404,-0.11065 0.0957,-0.0108 0.24784,-0.0182 0.33805,-0.0182 h 0.1641 l 0.009,-0.10614 0.009,-0.10615 h 1.50062 1.50065 l 0.009,0.10615 0.009,0.10614 h 0.16409 c 0.0903,0 0.24166,0.006 0.33657,0.0181 l 0.17261,0.0181 0.009,0.10225 0.009,0.10226 0.23358,0.009 0.23359,0.009 v 0.11203 0.11203 h 0.22652 0.22652 v 0.11332 0.11331 h 0.11332 0.11331 v 0.11331 0.11331 h 0.12738 0.12738 v 0.11332 0.11331 h 0.11331 0.11332 v 0.11331 0.11331 h 0.11331 0.11331 v 0.12737 0.12739 h 0.11331 0.11332 v 0.1133 c 0,0.11273 4.8e-4,0.11332 0.1103,0.11332 h 0.11028 l 0.0198,0.22495 0.0198,0.22497 0.10334,0.009 c 0.0998,0.009 0.10366,0.0122 0.11203,0.12894 0.009,0.11552 0.0122,0.12042 0.10215,0.12042 h 0.0935 l 0.0183,0.17404 c 0.0108,0.0957 0.0183,0.2486 0.0183,0.33976 v 0.16566 h 0.1133 0.11332 v 0.35394 0.35391 h 0.11331 0.11332 v 10.90085 10.90087 h 0.1133 0.11332 v 0.11332 0.11331 h 4.30372 4.3037 v 0.1133 0.11332 h 0.33977 0.33978 v 0.11331 0.11332 h 0.16565 c 0.0911,0 0.24338,0.006 0.33827,0.018 l 0.17263,0.0181 0.009,0.10226 0.009,0.10226 0.23359,0.009 0.2336,0.009 v 0.11204 c 0,0.11192 2e-4,0.11204 0.11332,0.11204 h 0.11331 v 0.11332 0.1133 h 0.12737 0.12738 v 0.11332 c 0,0.11307 1e-4,0.11331 0.11273,0.11331 0.0942,0 0.1154,0.0108 0.1291,0.0655 0.009,0.0361 0.0122,0.0774 0.009,0.0921 -0.0108,0.0303 0.0122,0.0411 0.0831,0.0399 0.0452,-7.8e-4 0.0449,-0.004 -0.004,-0.0317 -0.0428,-0.0249 -0.0455,-0.0355 -0.0139,-0.0554 0.0731,-0.0463 0.11677,-0.0286 0.10334,0.0415 -0.0139,0.0774 0.0514,0.13138 0.16148,0.13138 0.0522,0 0.0711,0.0158 0.0711,0.0567 0,0.0312 -0.0156,0.0571 -0.0352,0.0574 -0.0196,4.7e-4 -0.0139,0.0139 0.0139,0.0298 0.0355,0.0207 0.0494,0.0648 0.0494,0.15485 v 0.126 h 0.11332 0.11331 v 0.1133 c 0,0.11275 5e-4,0.11332 0.1103,0.11332 h 0.11029 l 0.02,0.22651 0.0201,0.22651 h 0.0933 0.0933 l 0.02,0.22498 0.0198,0.22496 0.10334,0.009 0.10334,0.009 0.009,0.23361 0.009,0.23358 h 0.11203 0.11204 v 0.46718 0.46719 h 0.11332 0.11331 v 0.80695 0.80694 h -0.11331 -0.11332 v 0.58044 0.58043 h -0.10994 -0.10996 l -0.02,0.24067 -0.0201,0.24067 h -0.0936 -0.0936 l -0.0201,0.22651 -0.0201,0.22652 h -0.11029 c -0.10983,0 -0.1103,4.9e-4 -0.1103,0.11331 v 0.1133 h -0.11331 -0.11332 v 0.22653 0.2265 h -0.11331 -0.1133 v 0.12737 0.12737 h -0.12739 -0.12737 v 0.11332 0.11331 h -0.11332 -0.1133 v 0.11332 0.1133 h -0.2265 -0.22652 v 0.11332 0.11331 h -0.11582 c -0.11273,0 -0.11332,4.4e-4 -0.11332,0.11065 v 0.11064 l -0.24068,0.0201 -0.24066,0.0201 v 0.10996 0.10995 h -0.22479 -0.22481 l -0.009,0.10615 c -0.009,0.0914 -0.0188,0.10647 -0.0795,0.10844 -0.0389,8.2e-4 -0.24599,0.004 -0.46009,0.006 l -0.38934,0.005 v 0.11331 0.11332 h -7.65891 -7.65893 z m 14.39893,-4.97332 c 0.0249,-0.26486 -0.005,-0.66552 -0.0521,-0.69487 -0.0188,-0.0122 -2.56796,-0.0219 -5.66476,-0.0225 -3.09679,-5.6e-4 -5.64187,-0.006 -5.65569,-0.0174 -0.0139,-0.009 -0.0253,-0.0521 -0.0253,-0.0966 0,-0.0789 -0.005,-0.0816 -0.17696,-0.0978 -0.0973,-0.009 -0.24067,-0.0198 -0.31854,-0.0235 -0.14095,-0.006 -0.14164,-0.006 -0.15016,-0.10983 -0.006,-0.0937 -0.0187,-0.10561 -0.11903,-0.1312 -0.0793,-0.0201 -0.11412,-0.0189 -0.12371,0.004 -0.006,0.0175 -0.0139,-0.0221 -0.0158,-0.0881 l -0.001,-0.12042 h -0.11331 -0.11331 v -0.12738 c 0,-0.12633 -8.3e-4,-0.12736 -0.0973,-0.12736 -0.0919,0 -0.1413,-0.0512 -0.12702,-0.13155 0.004,-0.0139 0.004,-0.14129 8.2e-4,-0.28438 l -0.004,-0.26019 -0.10615,-0.009 -0.10615,-0.009 -0.006,-12.28115 -0.006,-12.28116 h -0.0827 c -0.13764,0 -0.17209,-0.026 -0.17209,-0.1305 0,-0.0908 -0.005,-0.096 -0.0991,-0.096 -0.0937,0 -0.0991,0.005 -0.0991,0.0957 v 0.0957 l -0.24068,0.0201 -0.24067,0.0201 v 12.62377 12.62375 l 0.10615,0.009 0.10615,0.009 0.024,0.2336 0.024,0.23358 h 0.0963 c 0.0935,0 0.0963,0.004 0.0963,0.11331 0,0.11296 2.7e-4,0.11331 0.11157,0.11331 0.11099,0 0.1117,5.9e-4 0.12042,0.12041 0.009,0.11729 0.0122,0.12078 0.12197,0.13451 0.10756,0.0139 0.11366,0.0195 0.12198,0.12024 0.009,0.10042 0.0139,0.10615 0.10615,0.10615 0.084,0 0.0974,0.009 0.0974,0.0686 0,0.12649 0.0282,0.15799 0.14164,0.15799 0.11332,0 0.14164,0.0316 0.14164,0.158 0,0.0651 0.009,0.0686 0.17695,0.0686 0.0973,1.2e-4 0.24386,0.009 0.32562,0.018 0.14635,0.0176 0.14861,0.0192 0.14861,0.11297 v 0.0952 h 5.9152 5.91519 z m -73.291889,4.74834 v -0.11482 h -0.353929 -0.35392 v -0.11331 -0.11331 h -0.165653 c -0.09121,0 -0.244043,-0.006 -0.339764,-0.0183 l -0.174046,-0.0182 v -0.10926 -0.10926 h -0.127371 c -0.126332,0 -0.127373,-8.3e-4 -0.127373,-0.0971 v -0.0971 l -0.22651,-0.0197 -0.226519,-0.0196 v -0.10961 c 0,-0.1089 -6.24e-4,-0.10959 -0.113289,-0.10959 h -0.113278 v -0.11332 -0.11331 h -0.224874 -0.224881 l -0.0084,-0.12041 c -0.0084,-0.11624 -0.01222,-0.1206 -0.11206,-0.12895 l -0.10336,-0.009 -0.01988,-0.22498 -0.01987,-0.22498 h -0.110319 c -0.109799,0 -0.110321,-4.9e-4 -0.110321,-0.1133 v -0.11332 H 71.330779 71.2175 v -0.22652 -0.2265 h -0.113277 -0.113289 v -0.24067 -0.24067 h -0.113278 -0.113277 v -0.16565 c 0,-0.0911 -0.0084,-0.24405 -0.01807,-0.33978 -0.01808,-0.17329 -0.01864,-0.17403 -0.109102,-0.17403 h -0.09103 l -0.01808,-0.19111 c -0.01049,-0.10507 -0.01807,-0.31535 -0.01826,-0.46718 l -2.08e-4,-0.27606 h -0.09918 c -0.09536,0 -0.09919,-0.004 -0.100409,-0.10615 -0.0018,-0.22731 -0.0038,-27.03975 -0.0018,-27.15306 0.0038,-0.11817 0.0057,-0.12043 0.101781,-0.12043 h 0.09919 v -0.23621 c 0,-0.12998 0.0084,-0.39111 0.01845,-0.58044 l 0.01845,-0.34421 h 0.108929 0.108929 v -0.22651 -0.22651 h 0.113278 0.113277 v -0.24067 -0.24068 h 0.113278 0.113277 l 0.0038,-0.1345 c 0.0018,-0.074 0.0038,-0.1759 0.0038,-0.22651 -2.18e-4,-0.0879 0.0057,-0.0921 0.108765,-0.0921 0.108396,0 0.109103,-7.2e-4 0.109103,-0.1133 0,-0.11297 2.66e-4,-0.11331 0.111712,-0.11331 0.111016,0 0.111712,-6e-4 0.120237,-0.12042 0.0084,-0.11641 0.01221,-0.12059 0.113279,-0.12912 0.09831,-0.006 0.105099,-0.0156 0.113277,-0.11331 0.0084,-0.10118 0.01221,-0.10496 0.129113,-0.11331 0.119717,-0.009 0.120418,-0.009 0.120418,-0.12043 0,-0.11133 2.74e-4,-0.11157 0.113278,-0.11157 h 0.113277 v -0.11331 -0.11331 h 0.113278 0.113289 v -0.11332 -0.11331 h 0.226502 0.226528 v -0.11332 -0.1133 h 0.127372 0.127371 v -0.11331 -0.11332 l 0.120238,-0.004 c 0.06613,-0.001 0.158528,-0.006 0.205279,-0.009 0.04664,-0.001 0.151913,-0.006 0.233587,-0.0108 l 0.148602,-0.005 v -0.0952 c 0,-0.0936 0.0018,-0.0953 0.148605,-0.11296 0.08174,-0.0108 0.285616,-0.0178 0.45301,-0.0181 l 0.304379,-2.3e-4 v -0.11332 -0.11331 h 0.934367 0.934349 v 0.11331 0.11332 l 0.417629,2.3e-4 c 0.22969,1.4e-4 0.484534,0.009 0.56628,0.0181 0.145119,0.0174 0.148599,0.0201 0.148599,0.1096 v 0.0919 l 0.240672,0.0201 0.240671,0.02 v 0.0936 0.0937 l 0.226516,0.0201 0.226507,0.0201 v 0.1103 0.11029 h 0.226509 0.226525 v 0.11332 0.11331 h 0.127375 0.127368 v 0.11332 0.1133 h 0.113289 0.113266 v 0.11332 c 0,0.11296 2.66e-4,0.11331 0.11155,0.11331 0.111004,0 0.111712,5.7e-4 0.120232,0.12041 0.0085,0.11641 0.01218,0.12059 0.113277,0.12911 0.09832,0.006 0.105111,0.0158 0.113278,0.11331 0.0085,0.098 0.01558,0.10507 0.11206,0.11309 l 0.10336,0.009 0.01989,0.22497 0.01989,0.22495 h 0.110331 0.11032 v 0.12738 0.12737 h 0.113266 0.113289 v 0.33978 0.33976 h 0.11206 0.112049 l 0.0085,0.23358 0.0085,0.2336 0.10162,0.009 0.101619,0.009 0.01865,0.68266 c 0.01049,0.37546 0.01865,5.54142 0.01865,11.47987 v 10.79717 h 0.09919 c 0.09571,0 0.09919,0.004 0.09919,0.10647 0,0.10129 -0.0058,0.10648 -0.09206,0.10615 -0.08809,-2.8e-4 -0.09244,0.005 -0.100755,0.12007 l -0.0085,0.12041 H 81.5353 c 0.09867,0 0.100754,0.001 0.100754,0.11331 0,0.11053 -0.0016,0.11332 -0.09919,0.11332 -0.09676,0 -0.09919,0.001 -0.09919,0.11331 0,0.11053 0.0016,0.11331 0.09919,0.11331 0.0964,0 0.09919,0.001 0.09919,0.11157 0,0.10507 -0.0058,0.11192 -0.09205,0.12026 -0.0863,0.009 -0.09254,0.0157 -0.100754,0.12928 l -0.0085,0.1204 h 0.100755 0.100754 v 1.6139 1.6139 h -0.09919 c -0.09851,0 -0.09919,6.7e-4 -0.09919,0.12737 0,0.12667 5.22e-4,0.12738 0.09919,0.12738 0.09673,0 0.09919,0.001 0.09919,0.11331 0,0.1096 -0.0042,0.11332 -0.09467,0.11332 h -0.09484 l -0.01847,0.34419 c -0.01049,0.18933 -0.01847,0.45052 -0.01847,0.58044 v 0.23622 h -0.09502 -0.095 l -0.01824,0.17404 c -0.01048,0.0957 -0.01807,0.24862 -0.01807,0.33976 v 0.16566 h -0.113398 -0.113278 l 1.7e-5,0.23358 1.6e-5,0.2336 h -0.106149 c -0.104754,0 -0.106321,0.001 -0.114843,0.12041 -0.0085,0.11972 -0.0085,0.12041 -0.120415,0.12041 h -0.111587 v 0.2265 0.22651 h -0.111538 c -0.111016,0 -0.111712,6e-4 -0.120241,0.12041 -0.0085,0.11642 -0.01218,0.12059 -0.113265,0.12913 -0.09831,0.006 -0.105111,0.0156 -0.11329,0.1133 -0.0085,0.10129 -0.01218,0.10496 -0.129108,0.11332 -0.119717,0.009 -0.120423,0.009 -0.120423,0.12043 0,0.11133 -2.73e-4,0.11168 -0.113266,0.11168 h -0.11329 v 0.11331 0.11332 H 79.45633 79.343052 v 0.1133 0.11332 h -0.226524 -0.226501 v 0.10995 0.10994 l -0.24068,0.0201 -0.240661,0.0201 v 0.11064 0.11065 h -0.226451 -0.226508 v 0.11331 0.1133 h -0.465472 -0.465473 l -0.0085,0.10615 -0.0085,0.10615 -1.153793,0.009 -1.15379,0.009 z m 1.623056,-5.30333 c 0.02282,-0.42185 0.02327,-26.17048 6.07e-4,-26.41527 l -0.01761,-0.1898 -0.102322,-0.009 c -0.0964,-0.006 -0.10284,-0.0157 -0.11119,-0.11712 l -0.0084,-0.10844 -0.217578,0.0122 -0.217598,0.0122 -0.0038,0.0845 c -0.0038,0.12145 -0.03047,0.14965 -0.14042,0.14965 h -0.09745 l -0.0066,12.87574 c -0.0038,7.08167 -0.0038,13.08205 9.12e-4,13.33417 l 0.0084,0.45839 0.09064,0.009 c 0.07277,0.006 0.09235,0.0228 0.09918,0.0795 0.01741,0.1427 0.01391,0.14164 0.368877,0.14164 h 0.336644 z m 20.858185,5.29966 c 0,-0.10821 -0.0054,-0.11505 -0.07794,-0.1103 -0.04281,10e-4 -0.246703,0.004 -0.453033,10e-4 l -0.375159,-10e-4 v -0.11029 -0.1103 l -0.224975,-0.0198 -0.224959,-0.02 -0.0085,-0.10334 c -0.0085,-0.0998 -0.01218,-0.10366 -0.128942,-0.11204 -0.115886,-0.009 -0.120413,-0.0122 -0.120413,-0.10323 v -0.0946 l -0.2265,-0.0201 -0.226525,-0.0201 v -0.1103 -0.1103 H 94.98663 94.859254 v -0.11331 -0.11332 h -0.113266 -0.113289 v -0.1133 -0.11332 h -0.113266 -0.113289 v -0.11331 -0.11332 h -0.113303 -0.113289 v -0.12738 -0.12735 h -0.113265 -0.11329 v -0.11332 -0.1133 H 93.83972 93.726441 v -0.22651 -0.2265 h -0.110668 -0.110657 l -0.02005,-0.24068 -0.02005,-0.24068 h -0.109975 -0.109984 v -0.22651 -0.22652 h -0.113278 -0.113277 v -0.35391 -0.35392 h -0.113278 -0.113278 v -0.33976 -0.33979 h -0.113355 -0.113289 v -0.17988 c 0,-0.099 -0.0085,-0.25819 -0.01807,-0.35392 -0.01807,-0.17333 -0.01865,-0.17403 -0.109276,-0.17403 -0.09065,0 -0.09121,-7.2e-4 -0.109276,-0.17404 -0.01049,-0.0957 -0.01824,-0.24785 -0.01824,-0.33804 v -0.16409 l -0.106159,-0.009 -0.106137,-0.009 -0.0085,-0.34684 -0.0085,-0.34685 h -0.112408 -0.112408 v -0.22651 c 0,-0.22068 -0.0016,-0.22651 -0.06837,-0.22651 -0.154343,0 -0.157998,-0.009 -0.157998,-0.37111 v -0.33673 h -0.113277 -0.113278 l -0.0058,-0.27608 c -0.0042,-0.1519 -0.0058,-0.30471 -0.0058,-0.33977 -4.57e-4,-0.0543 -0.01558,-0.0637 -0.103706,-0.0637 h -0.103338 l -0.01807,-0.23359 c -0.01048,-0.1284 -0.01823,-0.28773 -0.01847,-0.35392 l -1.74e-4,-0.12043 H 91.03477 90.921493 v -0.33976 -0.33976 h -0.113279 -0.113277 v -0.24067 -0.24067 h -0.113278 -0.113277 v -0.35393 -0.35392 h -0.113279 -0.113277 v -0.33978 -0.33975 h -0.113285 -0.113277 l -2e-4,-0.16286 c -1.16e-4,-0.0896 -0.0085,-0.2488 -0.01824,-0.35393 l -0.01807,-0.19112 h -0.109115 -0.109102 v -0.33976 -0.33976 h -0.113265 -0.113291 v -0.24067 -0.24067 h -0.113265 -0.113278 v -0.35393 -0.35393 h -0.113277 -0.113279 v -0.33977 -0.33975 h -0.113269 -0.113278 v -0.16565 c 0,-0.0912 -0.0085,-0.24406 -0.01824,-0.33976 -0.01807,-0.17366 -0.01847,-0.17405 -0.109972,-0.17405 h -0.09168 l -0.02005,-0.24067 -0.02005,-0.24065 h -0.09253 c -0.09254,0 -0.09254,-1.1e-4 -0.11068,-0.17405 -0.01049,-0.0957 -0.01824,-0.25498 -0.01824,-0.35391 v -0.17989 h -0.113275 -0.113277 v -0.33976 -0.33978 h -0.113272 -0.113277 v -0.33977 -0.33976 h -0.113277 -0.113278 v -0.24067 -0.24068 H 87.57997 87.466681 l -2.06e-4,-0.16287 c -1.08e-4,-0.0894 -0.0085,-0.24879 -0.01824,-0.3539 l -0.01807,-0.19111 h -0.09103 c -0.09045,0 -0.09101,-7.5e-4 -0.109103,-0.17405 -0.01049,-0.0957 -0.01824,-0.24861 -0.01824,-0.33976 v -0.16566 h -0.113277 -0.113278 v -0.35395 -0.3539 H 86.871959 86.75867 v -0.22652 -0.22651 h -0.112396 -0.11242 l -0.0085,-0.3596 -0.0085,-0.35959 -0.09519,-0.001 c -0.08838,-0.001 -0.09571,-0.009 -0.101965,-0.10052 -0.0042,-0.0545 -0.01558,-0.20353 -0.02784,-0.33116 l -0.02121,-0.23205 -0.103359,-0.009 c -0.117638,-0.0108 -0.11032,0.0178 -0.11467,-0.42626 l -0.0042,-0.27605 h -0.113307 -0.113289 v -0.33978 -0.33976 h -0.113266 -0.113289 v -0.35393 -0.35393 h -0.11206 -0.112049 l -0.0085,-0.23358 -0.0085,-0.23359 -0.10616,-0.009 -0.106148,-0.009 v -0.16408 c 0,-0.0902 -0.0085,-0.24234 -0.01823,-0.33805 -0.01807,-0.17332 -0.01865,-0.17405 -0.109277,-0.17405 -0.09064,0 -0.09121,-7.2e-4 -0.109277,-0.17404 -0.01048,-0.0957 -0.01807,-0.25499 -0.01807,-0.3539 v -0.17993 H 84.773647 84.66037 v -0.33975 -0.33975 h -0.113449 -0.113277 v -0.24068 -0.24066 h -0.113279 -0.113277 v -0.33976 -0.33976 H 84.09381 83.980545 v -0.17989 c 0,-0.099 -0.0085,-0.25821 -0.01807,-0.35393 -0.01807,-0.17331 -0.01865,-0.17404 -0.109287,-0.17404 -0.09064,0 -0.09121,-7.2e-4 -0.109265,-0.17402 -0.01049,-0.0957 -0.01824,-0.30356 -0.01824,-0.46187 0,-0.24865 -0.0066,-0.29605 -0.0566,-0.34855 -0.03116,-0.0334 -0.0566,-0.079 -0.0566,-0.10118 0,-0.0222 -0.02535,-0.047 -0.0566,-0.0552 -0.05496,-0.0139 -0.0566,-0.0386 -0.0566,-0.82441 v -0.8096 h 0.113277 0.11329 v -0.29314 c 0,-0.16112 0.0085,-0.37145 0.01807,-0.46718 0.01824,-0.17401 0.01824,-0.17403 0.110669,-0.17403 h 0.09254 l 0.02005,-0.24067 0.02005,-0.24069 h 0.09376 0.09376 l 0.01989,-0.22651 0.01989,-0.2265 h 0.109635 0.109625 v -0.22652 -0.2265 h 0.113278 0.113277 v -0.11331 c 0,-0.11297 2.82e-4,-0.11332 0.111712,-0.11332 0.111016,0 0.111712,-5.9e-4 0.120415,-0.12042 0.0085,-0.11639 0.01218,-0.12059 0.113266,-0.12892 0.09832,-0.006 0.1051,-0.0158 0.113289,-0.11331 0.0085,-0.10129 0.01218,-0.10496 0.129116,-0.11332 0.119719,-0.009 0.120232,-0.009 0.120232,-0.12041 0,-0.11134 2.74e-4,-0.11169 0.113279,-0.11169 h 0.113277 v -0.11331 -0.11331 h 0.226525 0.226508 v -0.11331 -0.11332 h 0.127368 0.127375 v -0.1103 -0.11029 l 0.226508,-0.0201 0.226517,-0.02 v -0.0933 -0.0933 l 0.226516,-0.02 0.2265,-0.0201 v -0.0962 c 0,-0.0707 0.01218,-0.0974 0.04956,-0.10096 0.02735,-0.001 0.0687,-0.006 0.09206,-0.0108 0.02329,-0.004 0.211293,-0.006 0.41763,-0.009 l 0.375166,-0.001 v -0.11332 -0.11331 h 0.93435 0.934367 v 0.11331 0.11332 l 0.41763,2.6e-4 c 0.22969,1.4e-4 0.484533,0.009 0.566279,0.0181 0.145118,0.0174 0.148599,0.02 0.148599,0.1096 v 0.0919 l 0.240671,0.0201 0.240672,0.0201 v 0.11064 0.11065 h 0.226499 0.226525 v 0.11331 0.11331 h 0.127376 0.127366 v 0.11331 0.11332 h 0.226518 0.226499 v 0.11331 0.11332 h 0.113278 0.113278 v 0.12737 0.12737 h 0.113278 0.113277 v 0.11332 c 0,0.11273 4.89e-4,0.1133 0.110321,0.1133 h 0.11032 l 0.01998,0.22651 0.02005,0.2265 h 0.110331 c 0.109798,0 0.11032,5.1e-4 0.11032,0.11332 v 0.11331 h 0.113267 0.113289 v 0.24068 0.24065 h 0.113266 0.113289 v 0.22654 0.2265 h 0.112396 0.112408 l 0.0085,0.34686 0.0085,0.34682 0.106149,0.009 0.106148,0.009 v 0.1641 c 0,0.0901 0.0085,0.24166 0.01807,0.33655 l 0.01807,0.17262 0.100051,0.009 c 0.113801,0.0108 0.108755,-0.005 0.126847,0.4034 l 0.01049,0.25328 0.0964,0.001 0.0964,0.001 0.0085,0.24775 0.0085,0.24776 h 0.112222 0.112233 v 0.35391 0.35393 h 0.113291 0.113265 v 0.33978 0.33976 h 0.11329 0.113265 v 0.17988 c 0,0.0988 0.0085,0.25822 0.01824,0.35393 0.01807,0.17331 0.01865,0.17403 0.109276,0.17403 0.09064,0 0.09121,7.3e-4 0.109288,0.17402 0.01038,0.0957 0.01824,0.24863 0.01824,0.33979 v 0.16565 h 0.113267 0.113289 v 0.35393 0.35393 h 0.113266 0.113292 v 0.22651 0.22651 h 0.113261 0.113294 v 0.35392 0.35393 h 0.113261 0.113293 v 0.16566 c 0,0.0911 0.0065,0.24403 0.01827,0.33974 0.01805,0.17332 0.0187,0.17406 0.10911,0.17406 h 0.09102 l 0.01805,0.19111 c 0.01081,0.10507 0.01805,0.26438 0.01827,0.35394 l 2.05e-4,0.16287 h 0.113283 0.113272 v 0.24067 0.24067 h 0.113282 0.113269 v 0.33976 0.33976 h 0.11329 0.11326 v 0.35396 0.3539 h 0.1133 0.11327 v 0.33976 0.33977 h 0.11328 0.11332 v 0.11332 0.11331 h 0.12736 0.12737 v -0.11331 -0.11332 h 0.11332 0.1133 v -0.35393 -0.35391 h 0.11332 0.11331 v -0.33976 -0.33979 h 0.11239 0.11238 l 0.006,-0.34683 0.009,-0.34686 0.10225,-0.009 0.10226,-0.009 0.0181,-0.17263 c 0.0108,-0.0949 0.018,-0.24636 0.018,-0.33657 v -0.16409 l 0.10615,-0.009 c 0.0967,-0.006 0.10637,-0.0156 0.10788,-0.0937 8.3e-4,-0.0469 0.004,-0.19642 0.006,-0.33268 l 0.005,-0.24775 h 0.11331 0.11332 v -0.24067 -0.24065 h 0.113309 0.11332 v -0.35393 -0.35392 h 0.1133 0.11332 v -0.33979 -0.33976 h 0.11331 0.11332 l 10e-4,-0.20528 c 0.001,-0.11297 0.0108,-0.26834 0.0212,-0.34545 0.0185,-0.13747 0.0207,-0.14025 0.11781,-0.14164 l 0.0991,-0.001 0.009,-0.23361 0.009,-0.23359 h 0.0939 0.0939 l 0.0182,-0.17403 c 0.0108,-0.0957 0.0182,-0.25499 0.0182,-0.35393 v -0.17989 h 0.11332 0.11331 v -0.33976 -0.33977 h 0.11332 0.11331 v -0.35392 -0.35393 h 0.11331 0.11331 v -0.16565 c 0,-0.0911 0.006,-0.24406 0.0182,-0.33977 0.0182,-0.17402 0.0182,-0.17405 0.11065,-0.17405 h 0.0925 l 0.0201,-0.24067 0.0201,-0.24065 h 0.0918 c 0.0916,0 0.0917,-4.3e-4 0.10995,-0.17404 0.0108,-0.0957 0.0182,-0.24862 0.0182,-0.33976 v -0.16566 h 0.11332 0.11332 v -0.35393 -0.35393 h 0.11331 0.11331 v -0.22651 -0.2265 h 0.10995 0.10995 l 0.0201,-0.24067 0.0201,-0.24067 h 0.11065 c 0.1103,0 0.11064,-4.4e-4 0.11064,-0.11332 0,-0.11261 7.2e-4,-0.11331 0.10915,-0.11331 h 0.10913 l 0.0174,-0.20285 c 0.0176,-0.20999 0.0415,-0.24898 0.15398,-0.24974 0.0553,-3.9e-4 0.0637,-0.0156 0.0637,-0.11366 0,-0.11296 2.5e-4,-0.11331 0.11156,-0.11331 0.111,0 0.1117,-6e-4 0.12042,-0.12043 0.006,-0.11204 0.0139,-0.12058 0.0936,-0.12354 0.0468,-0.001 0.10085,-0.005 0.1204,-0.006 0.0218,-0.001 0.0352,-0.0475 0.0352,-0.1171 v -0.11332 h 0.22652 0.22649 v -0.1096 -0.1096 l 0.22654,-0.0197 0.2265,-0.0198 v -0.0971 c 0,-0.0945 0.004,-0.0971 0.11331,-0.0971 0.11261,0 0.11332,-6.7e-4 0.11332,-0.10914 v -0.10914 l 0.19113,-0.0181 c 0.10507,-0.0108 0.26439,-0.0181 0.35392,-0.0182 l 0.16288,-1.9e-4 v -0.11331 -0.11331 h 0.46717 0.46718 v -0.11204 -0.11204 l 0.80695,0.001 0.80694,10e-4 v 0.10995 0.10995 h 0.46719 0.46717 v 0.11331 0.11332 h 0.16566 c 0.0911,0 0.24403,0.006 0.33976,0.0181 0.17401,0.0183 0.17405,0.0183 0.17405,0.11064 v 0.0925 l 0.24066,0.0201 0.24067,0.0201 v 0.10996 0.10994 h 0.22652 0.2265 v 0.11331 0.11332 h 0.1133 c 0.11297,0 0.11332,2.7e-4 0.11332,0.11168 0,0.111 5.9e-4,0.1117 0.12042,0.12042 0.11674,0.009 0.12058,0.0122 0.12911,0.11482 0.009,0.10323 0.0122,0.10614 0.1204,0.10614 0.11122,0 0.11157,2.8e-4 0.11157,0.11331 v 0.11331 h 0.11332 0.1133 v 0.12737 0.12739 h 0.11331 0.11332 v 0.1133 0.11332 h 0.11331 0.11331 v 0.22651 0.2265 h 0.10995 0.10996 l 0.0201,0.24066 0.0201,0.24067 h 0.0937 0.0936 l 0.0201,0.22651 0.02,0.22653 h 0.1103 0.11029 v 0.46717 0.46717 h 0.11239 0.11237 l -7e-5,0.92022 -8e-5,0.92019 h -0.11237 -0.11239 v 0.46718 0.46718 h -0.11331 -0.11332 l -2e-4,0.16288 c -1.3e-4,0.0896 -0.009,0.2488 -0.0183,0.35391 l -0.0181,0.19113 h -0.091 c -0.0905,0 -0.091,7.5e-4 -0.10914,0.17403 -0.0108,0.0957 -0.0182,0.24862 -0.0182,0.33977 v 0.16565 h -0.11331 -0.11332 v 0.24067 0.24067 h -0.0991 c -0.0743,0 -0.0999,0.0122 -0.10226,0.0494 -0.001,0.0274 -0.006,0.0623 -0.0108,0.0779 -0.004,0.0158 -0.009,0.15261 -0.0108,0.30437 l -0.005,0.27607 h -0.11332 -0.1133 v 0.33976 0.33977 h -0.11332 -0.11331 v 0.16566 c 0,0.0911 -0.006,0.24403 -0.0182,0.33977 -0.0181,0.17364 -0.0185,0.17402 -0.10995,0.17402 h -0.0917 l -0.02,0.24066 -0.0201,0.24067 h -0.0925 c -0.0924,0 -0.0925,1e-4 -0.11064,0.17402 -0.0108,0.0957 -0.0183,0.255 -0.0183,0.35395 v 0.17988 h -0.11332 -0.1133 v 0.33976 0.33978 h -0.11332 -0.11331 v 0.35393 0.3539 h -0.11332 -0.1133 v 0.16566 c 0,0.0912 -0.009,0.24405 -0.0182,0.33976 -0.0182,0.17401 -0.0182,0.17404 -0.11065,0.17404 h -0.0925 l -0.0201,0.24067 -0.0201,0.24067 h -0.0917 c -0.0915,0 -0.0918,4.1e-4 -0.10994,0.17404 -0.0108,0.0957 -0.0183,0.2486 -0.0183,0.33978 v 0.16565 h -0.11331 -0.11332 v 0.35394 0.3539 h -0.1133 -0.11332 v 0.33977 0.33977 h -0.11331 -0.11332 v 0.24066 0.24067 h -0.1133 -0.11332 l -2e-4,0.16288 c -1e-4,0.0895 -0.009,0.24881 -0.0183,0.35393 l -0.0181,0.19111 h -0.091 c -0.0887,0 -0.0915,0.004 -0.10891,0.1486 -0.0108,0.0817 -0.0178,0.23465 -0.0181,0.33977 l -2.4e-4,0.19111 h -0.11332 -0.1133 v 0.33977 0.33976 h -0.11332 -0.11331 v 0.25485 0.25481 l -0.10615,0.004 c -0.10464,0.004 -0.10474,0.004 -0.0139,0.0158 0.0802,0.0108 0.0921,0.0219 0.0921,0.0945 0,0.0458 -0.009,0.0816 -0.0212,0.0799 -0.0122,-0.001 -0.0559,-0.001 -0.098,0 -0.0762,0.004 -0.0767,0.005 -0.085,0.23695 l -0.009,0.23358 -0.10615,0.009 -0.10614,0.009 v 0.16408 c 0,0.0901 -0.009,0.24235 -0.0182,0.33807 -0.0181,0.17331 -0.0187,0.17405 -0.10925,0.17405 -0.0907,0 -0.0911,7e-4 -0.10927,0.17401 -0.0108,0.0957 -0.0182,0.25499 -0.0182,0.35394 v 0.17989 h -0.11331 -0.11332 v 0.33976 0.33978 h -0.1133 -0.11331 v 0.24067 0.24066 h -0.11332 -0.11331 v 0.33977 0.33977 h -0.11332 -0.1133 v 0.17988 c 0,0.099 -0.009,0.25818 -0.0183,0.35392 -0.0181,0.17331 -0.0187,0.17403 -0.10925,0.17403 -0.0907,0 -0.0911,7.3e-4 -0.10925,0.17403 -0.0108,0.0957 -0.0183,0.24786 -0.0183,0.33807 v 0.16409 l -0.10615,0.009 -0.10615,0.009 -0.006,0.34292 -0.009,0.34293 -0.10528,-0.004 -0.10529,-0.004 -0.006,0.34684 -0.009,0.34685 h -0.11239 -0.11238 v 0.24068 0.24067 h -0.11332 -0.11331 v 0.16565 c 0,0.0911 -0.009,0.24405 -0.0182,0.33976 -0.0181,0.17332 -0.0187,0.17403 -0.10914,0.17403 h -0.091 l -0.0181,0.19114 c -0.0108,0.10506 -0.0181,0.26437 -0.0183,0.35392 l -2e-4,0.16287 h -0.11332 -0.11331 v 0.33977 0.33976 h -0.11332 -0.1133 v 0.24066 0.24068 h -0.11332 -0.11331 v 0.35392 0.35393 h -0.11332 -0.1133 v 0.16566 c 0,0.0911 -0.006,0.24404 -0.0183,0.33977 -0.018,0.17331 -0.0187,0.17404 -0.10913,0.17404 h -0.091 l -0.0181,0.19111 c -0.0108,0.10507 -0.0181,0.26439 -0.0182,0.35392 l -2.2e-4,0.16288 h -0.1133 -0.11332 v 0.33976 0.33978 h -0.11331 -0.11332 v 0.24066 0.24068 h -0.11331 -0.1133 v 0.33977 0.33976 h -0.10961 -0.1096 l -0.0198,0.22651 -0.0196,0.2265 h -0.0971 c -0.0963,0 -0.0971,8.2e-4 -0.0971,0.12737 v 0.12738 h -0.1103 -0.1103 l -0.0201,0.22651 -0.0201,0.22651 h -0.1103 -0.1103 v 0.12737 0.12736 h -0.11331 -0.11332 v 0.11332 0.11331 h -0.11331 -0.11331 v 0.11332 0.1133 h -0.11332 -0.11331 v 0.11332 0.11331 h -0.12737 -0.12737 v 0.11332 0.1133 h -0.11331 c -0.11273,0 -0.11332,5.2e-4 -0.11332,0.1103 v 0.1103 l -0.2265,0.0201 -0.22652,0.0201 v 0.0936 0.0937 l -0.24067,0.0201 -0.24066,0.0201 v 0.10995 0.10994 h -0.33969 -0.339759 v 0.11332 0.11331 h -1.40156 -1.401532 z m 1.468189,-4.99931 0.17402,-0.0182 v -0.10925 c 0,-0.10856 6.9e-4,-0.10926 0.11331,-0.10926 h 0.11332 l 0.004,-0.21942 c 0.004,-0.12074 8.4e-4,-0.26722 -0.001,-0.32562 l -0.006,-0.10614 h 0.11447 0.11447 l 0.009,-0.24773 0.006,-0.24774 0.10615,-0.009 0.10615,-0.009 0.001,-0.20357 c 0.001,-0.11192 0.0108,-0.26725 0.0212,-0.34514 0.0174,-0.12979 0.0251,-0.14163 0.0941,-0.14163 0.0414,0 0.0834,-0.006 0.0932,-0.0176 0.0108,-0.0108 0.0268,-0.16252 0.0379,-0.33977 l 0.0201,-0.32215 0.10615,-0.009 0.10615,-0.009 v -0.33805 -0.33808 h 0.113309 0.11331 l 2.7e-4,-0.19111 c 1.3e-4,-0.10507 0.009,-0.25802 0.0181,-0.33976 0.0175,-0.14634 0.0192,-0.14861 0.11296,-0.14861 h 0.0952 v -0.23897 c 0,-0.13137 0.0122,-0.24689 0.0284,-0.2565 0.0156,-0.0108 0.0284,-0.0522 0.0284,-0.0947 0,-0.0583 0.014,-0.0773 0.0568,-0.0773 0.0697,0 0.0747,0.0598 0.006,0.0858 -0.0466,0.018 -0.0466,0.0209 10e-4,0.0482 0.0283,0.0156 0.0566,0.0242 0.0625,0.0181 0.006,-0.005 0.026,-0.16008 0.0445,-0.34234 l 0.0335,-0.33148 h 0.091 c 0.0905,0 0.091,-7.7e-4 0.10913,-0.17405 0.0108,-0.0957 0.0182,-0.24859 0.0182,-0.33974 0,-0.14565 0.006,-0.16617 0.0569,-0.16932 0.0312,-0.001 0.0695,-0.006 0.085,-0.0108 0.0156,-0.004 0.0419,-0.009 0.0588,-0.0108 0.0174,-0.001 0.0282,-0.0449 0.0254,-0.0956 -10e-4,-0.0507 -0.004,-0.20352 -10e-4,-0.33976 l 10e-4,-0.24776 h 0.11332 0.11331 v -0.19779 c 0,-0.10879 0.0156,-0.25531 0.0341,-0.32559 0.0299,-0.11192 0.0439,-0.12792 0.11135,-0.12792 h 0.0772 l 0.0156,-0.27605 c 0.009,-0.15192 0.0176,-0.3111 0.0202,-0.35394 0.004,-0.0679 0.0174,-0.0779 0.0959,-0.0779 h 0.091 l 0.0191,-0.23089 c 0.0108,-0.12702 0.0259,-0.24163 0.034,-0.25481 0.009,-0.0139 0.0512,-0.024 0.0956,-0.024 h 0.0807 l 0.0174,-0.2336 c 0.009,-0.12843 0.0201,-0.27819 0.0239,-0.33269 0.005,-0.069 0.0191,-0.0964 0.0474,-0.0903 0.0223,0.005 0.0698,0.001 0.10529,-0.006 0.0623,-0.0156 0.0648,-0.0286 0.0726,-0.36274 l 0.009,-0.34653 0.10529,-0.009 0.10529,-0.009 0.009,-0.33103 0.006,-0.33104 0.0943,-0.004 c 0.0519,-0.001 0.0987,-0.009 0.10388,-0.0139 0.005,-0.005 0.0139,-0.11135 0.0189,-0.23596 l 0.009,-0.22639 0.10614,-0.009 0.10615,-0.009 v -0.16409 c 0,-0.0902 0.006,-0.24231 0.0182,-0.33804 l 0.0182,-0.17404 h 0.095 c 0.0926,0 0.095,-0.001 0.0964,-0.12041 0.001,-0.16409 0.0275,-0.50915 0.0411,-0.5502 0.006,-0.0185 0.0532,-0.0376 0.10475,-0.0426 l 0.0937,-0.009 0.014,-0.3256 0.0139,-0.32564 0.10615,-0.009 0.10615,-0.009 v -0.23897 -0.23896 h 0.11331 0.11331 l 2.5e-4,-0.1911 c 1.4e-4,-0.10507 0.009,-0.25801 0.0181,-0.33977 0.0176,-0.14634 0.0194,-0.1486 0.11296,-0.1486 h 0.0952 l 0.001,-0.21944 c 8.3e-4,-0.12077 0.0108,-0.27676 0.0212,-0.34685 0.0176,-0.11694 0.0262,-0.12808 0.10713,-0.1359 0.0869,-0.009 0.0884,-0.0108 0.10604,-0.19821 0.0108,-0.10431 0.0181,-0.25573 0.0181,-0.33656 l 2e-4,-0.14687 0.10615,-0.009 0.10615,-0.009 0.0139,-0.24068 0.0139,-0.24067 0.10528,-0.009 0.10529,-0.009 0.009,-0.33103 0.006,-0.33103 0.10615,-0.009 0.10615,-0.009 v -0.33807 -0.33806 h 0.11331 0.1133 l 0.004,-0.2619 c 0.001,-0.14408 0.001,-0.27278 -8.3e-4,-0.28606 -0.0122,-0.073 0.0356,-0.12877 0.11937,-0.13696 l 0.0906,-0.009 0.0327,-0.29729 c 0.0181,-0.16358 0.0339,-0.31324 0.0352,-0.3327 10e-4,-0.0195 0.0393,-0.0352 0.084,-0.0352 0.0925,0 0.10571,-0.0369 0.11482,-0.32394 0.006,-0.20004 0.0139,-0.21401 0.10268,-0.21401 0.0675,0 0.0806,-0.0218 0.071,-0.1178 -0.004,-0.0259 0.009,-0.0553 0.0251,-0.0654 0.0174,-0.0108 0.0296,-0.11693 0.0296,-0.24317 v -0.22486 h 0.11238 0.11239 l 0.009,-0.34683 0.006,-0.34684 0.10215,-0.009 0.10215,-0.009 0.0156,-0.28876 c 0.0189,-0.35335 0.0312,-0.38783 0.13711,-0.38783 0.0809,0 0.0821,-0.001 0.0821,-0.16566 0,-0.0911 0.009,-0.24405 0.0183,-0.33976 l 0.0182,-0.17405 h 0.0926 c 0.0792,0 0.0956,-0.0122 0.11065,-0.0808 0.0108,-0.0445 0.0156,-0.0922 0.0122,-0.10615 -0.001,-0.0139 -0.004,-0.0922 -0.001,-0.17401 l 0.004,-0.14861 h 0.0952 c 0.0936,0 0.0953,-0.001 0.11296,-0.1486 0.0108,-0.0816 0.0178,-0.23466 0.0181,-0.33976 l 2.6e-4,-0.19114 h 0.11331 0.11331 v -0.33671 c 0,-0.36183 0.004,-0.37113 0.15696,-0.37113 0.0647,0 0.0677,-0.009 0.0755,-0.23361 l 0.009,-0.23358 0.0888,-0.009 c 0.10539,-0.0108 0.12251,-0.064 0.12564,-0.39838 8.4e-4,-0.11867 0.0108,-0.27322 0.0212,-0.34332 0.0178,-0.11761 0.026,-0.12807 0.1088,-0.13608 l 0.0896,-0.009 0.02,-0.23905 0.0198,-0.23905 h 0.0919 c 0.0879,0 0.0926,-0.005 0.10994,-0.13138 0.0108,-0.0721 0.0181,-0.23077 0.0181,-0.35225 0,-0.22872 -0.0174,-0.26359 -0.12702,-0.26565 -0.04,-7.5e-4 -0.0605,-0.0255 -0.0712,-0.0859 l -0.0139,-0.085 h -0.35365 -0.35365 l -0.009,0.21714 -0.009,0.21713 -0.11099,0.0188 -0.11099,0.0188 -0.009,0.23128 -0.006,0.23128 -0.0886,0.009 c -0.0982,0.0108 -0.0964,0.004 -0.14044,0.47979 l -0.0189,0.2053 h -0.0913 -0.0913 l -0.0181,0.19111 c -0.0108,0.10506 -0.0181,0.25724 -0.0183,0.33806 l -2.1e-4,0.14686 -0.10614,0.009 -0.10615,0.009 -0.006,0.26898 c -0.0108,0.36906 -0.0174,0.391 -0.12755,0.40169 l -0.0919,0.009 -0.0139,0.33977 -0.014,0.33976 -0.10615,0.009 -0.10614,0.009 v 0.23896 c 0,0.2502 0.004,0.24634 -0.14163,0.25089 -0.0702,0.001 -0.0707,0.005 -0.0778,0.28537 -0.0108,0.39116 -0.0156,0.41055 -0.13103,0.41055 h -0.0945 l -0.0181,0.19112 c -0.0108,0.10507 -0.0181,0.25162 -0.0182,0.32562 -2e-4,0.11954 -0.006,0.13485 -0.0639,0.13781 -0.0349,10e-4 -0.0828,0.005 -0.10615,0.006 -0.0334,10e-4 -0.0459,0.0639 -0.0588,0.28692 -0.009,0.15575 -0.0257,0.31184 -0.0373,0.34686 -0.0225,0.0682 -0.0724,0.0869 -0.0761,0.0284 -0.001,-0.0284 -0.005,-0.0284 -0.0174,0 -0.009,0.0195 -0.0323,0.0352 -0.0545,0.0352 -0.0323,0 -0.0402,0.0674 -0.0402,0.3539 v 0.35393 h -0.11204 -0.11203 l -0.009,0.23361 -0.009,0.23358 -0.10614,0.009 -0.10615,0.009 v 0.16408 c 0,0.0903 -0.009,0.24234 -0.0182,0.33805 -0.0183,0.17401 -0.0183,0.17404 -0.11089,0.17404 h -0.0925 l -0.0204,0.33978 -0.0203,0.33977 h -0.0924 c -0.11088,0 -0.12684,0.0318 -0.12684,0.2532 0,0.09 -0.006,0.22158 -0.0178,0.29248 -0.0156,0.11919 -0.0249,0.13015 -0.1133,0.14687 l -0.0956,0.0178 v 0.23941 c 0,0.22924 -0.004,0.23939 -0.0637,0.23979 -0.12476,8.4e-4 -0.13867,0.0335 -0.15834,0.3709 l -0.0188,0.32237 -0.10615,0.009 -0.10615,0.009 -2.6e-4,0.18942 c -1.3e-4,0.10431 -0.009,0.25631 -0.0181,0.33806 -0.0176,0.14632 -0.0192,0.14859 -0.11296,0.14859 h -0.0952 l -1.8e-4,0.14861 c -1.1e-4,0.0816 -0.009,0.23464 -0.0182,0.33977 l -0.0181,0.19111 h -0.0926 -0.0926 l -0.0174,0.17695 c -0.009,0.0973 -0.02,0.25342 -0.0235,0.34687 l -0.006,0.16982 -0.10507,0.009 -0.10507,0.009 -0.009,0.23195 -0.009,0.23194 -0.0884,0.009 c -0.0816,0.006 -0.0896,0.0183 -0.10615,0.1385 -0.0108,0.0713 -0.0178,0.22286 -0.0178,0.33653 v 0.20671 l -0.10615,0.009 -0.10614,0.009 -0.009,0.33268 -0.006,0.3327 h -0.11238 -0.11239 v 0.16565 c 0,0.0912 -0.006,0.24407 -0.0182,0.33977 -0.0156,0.15226 -0.0256,0.1741 -0.0779,0.17448 -0.10442,7.5e-4 -0.1253,0.0376 -0.14442,0.25458 -0.0108,0.11677 -0.0266,0.23128 -0.0359,0.25465 -0.009,0.0233 -0.018,0.0743 -0.0191,0.11332 -0.001,0.0585 -0.0178,0.0721 -0.0928,0.0795 l -0.091,0.009 -0.009,0.24372 -0.006,0.24372 -0.0844,0.0108 c -0.0464,0.005 -0.0894,0.0158 -0.0957,0.0225 -0.005,0.005 -0.0178,0.15765 -0.0255,0.33642 l -0.014,0.32513 -0.0879,0.009 c -0.0781,0.006 -0.09,0.0211 -0.10777,0.1218 -0.0108,0.0623 -0.0207,0.212 -0.0216,0.33268 l -0.001,0.21944 h -0.11054 -0.11052 l -0.0156,0.26192 c -0.0246,0.4156 -0.0208,0.40231 -0.12129,0.41209 l -0.0887,0.009 -0.0245,0.24398 c -0.0243,0.24277 -0.0249,0.24399 -0.10891,0.2551 -0.0464,0.005 -0.09,0.0174 -0.0966,0.0233 -0.006,0.006 -0.0216,0.18984 -0.0333,0.40706 -0.0122,0.21723 -0.0295,0.40845 -0.0396,0.42492 -0.0108,0.0156 -0.056,0.0299 -0.10182,0.0299 h -0.0831 l -0.004,0.19821 c -0.001,0.10891 -0.005,0.21411 -0.006,0.23358 -10e-4,0.0195 -0.0474,0.0416 -0.10193,0.0495 l -0.0991,0.0139 -0.009,0.32453 c -0.009,0.34588 -0.0178,0.36796 -0.15468,0.36873 -0.0761,4.1e-4 -0.0779,0.004 -0.0779,0.16617 0,0.0911 -0.009,0.24404 -0.0183,0.33976 -0.0181,0.17366 -0.0185,0.17405 -0.10994,0.17405 h -0.0917 l -0.0201,0.24066 -0.0201,0.24067 h -0.0925 c -0.0907,0 -0.0928,0.004 -0.11054,0.14859 -0.0108,0.0817 -0.0178,0.23389 -0.018,0.33807 l -2.7e-4,0.18941 -0.10615,0.009 -0.10615,0.009 -0.006,0.21236 c -0.004,0.11676 -0.0174,0.23147 -0.0271,0.25482 -0.0108,0.0233 -0.02,0.0807 -0.0208,0.12736 -8.4e-4,0.0747 -0.0108,0.0851 -0.0838,0.0851 -0.0455,0 -0.0869,0.0122 -0.0922,0.0289 -0.005,0.0156 -0.0122,0.16878 -0.0174,0.33977 l -0.006,0.31085 -0.0851,0.009 c -0.0468,0.005 -0.0939,0.018 -0.10507,0.0286 -0.0108,0.0108 -0.0225,0.0985 -0.0254,0.19509 -0.004,0.0966 -0.0139,0.16983 -0.026,0.1627 -0.0122,-0.006 -0.0279,0.0139 -0.0362,0.0456 -0.0108,0.0417 -0.0339,0.0559 -0.0804,0.0492 -0.0526,-0.006 -0.069,-0.0332 -0.0863,-0.13469 -0.0122,-0.0689 -0.0373,-0.13537 -0.0571,-0.14738 -0.0285,-0.0175 -0.0286,-0.0292 -6.1e-4,-0.0573 0.0512,-0.0512 0.0431,-0.0806 -0.0222,-0.0806 -0.0332,0 -0.0684,0.0269 -0.0831,0.0637 -0.0249,0.0617 -0.0257,0.0612 -0.0276,-0.0122 -8.4e-4,-0.0418 -0.014,-0.084 -0.0301,-0.0936 -0.0156,-0.0108 -0.0299,-0.12181 -0.0317,-0.24943 -0.005,-0.33974 -0.0225,-0.39837 -0.12424,-0.41591 l -0.0847,-0.0139 -0.0139,-0.25466 -0.0139,-0.25465 -0.0883,-0.009 c -0.0818,-0.006 -0.0898,-0.0182 -0.10614,-0.1385 -0.0108,-0.0713 -0.0178,-0.21726 -0.0178,-0.32411 V 155.9527 H 97.547872 97.4346 l -2.7e-4,-0.19112 c -1.19e-4,-0.10507 -0.0086,-0.25802 -0.01805,-0.33977 -0.0174,-0.1453 -0.01989,-0.14861 -0.11032,-0.14861 h -0.09253 l -0.01827,-0.27605 c -0.01081,-0.15176 -0.02075,-0.30791 -0.02389,-0.34683 -0.0043,-0.0571 -0.02292,-0.0724 -0.09393,-0.0795 -0.08377,-0.006 -0.08907,-0.0157 -0.105933,-0.15575 -0.01081,-0.0808 -0.01784,-0.20662 -0.01794,-0.27931 -3.24e-4,-0.17444 -0.0214,-0.22175 -0.0988,-0.22175 -0.09966,0 -0.124589,-0.0556 -0.133648,-0.29862 l -0.0086,-0.22519 -0.106149,-0.009 -0.106148,-0.009 v -0.32221 -0.32217 l -0.106148,-0.009 c -0.102149,-0.009 -0.106495,-0.0122 -0.112931,-0.12199 -0.0042,-0.0623 -0.01391,-0.21836 -0.02387,-0.34684 l -0.0174,-0.23359 h -0.0933 -0.0933 l -0.02005,-0.24067 -0.02005,-0.24066 h -0.09291 -0.09292 l -0.01824,-0.19113 c -0.01048,-0.10507 -0.01932,-0.3019 -0.02055,-0.4373 l -0.0016,-0.24619 -0.102127,-0.009 -0.102149,-0.009 -0.0085,-0.2265 c -0.01218,-0.28487 -0.01741,-0.29731 -0.116063,-0.29731 -0.07757,0 -0.08279,-0.006 -0.09971,-0.14861 -0.01049,-0.0816 -0.0179,-0.22828 -0.01807,-0.32562 l -2.4e-4,-0.17695 h -0.114 -0.113278 l -2.5e-4,-0.19112 c -1.31e-4,-0.10507 -0.0085,-0.25801 -0.01807,-0.33977 -0.01758,-0.14634 -0.01932,-0.1486 -0.11293,-0.1486 -0.09483,0 -0.09519,-4.6e-4 -0.09867,-0.14146 -0.0016,-0.0779 -0.0066,-0.15435 -0.01049,-0.16985 -0.0042,-0.0156 -0.0085,-0.072 -0.01049,-0.12546 -0.0042,-0.0839 -0.01392,-0.0985 -0.08146,-0.10614 -0.04525,-0.005 -0.07483,-0.0242 -0.07053,-0.0455 0.0042,-0.0201 -0.0085,-0.0648 -0.0276,-0.0991 -0.01931,-0.0345 -0.03622,-0.0943 -0.03754,-0.13328 -8.28e-4,-0.039 -0.0058,-0.13765 -0.0066,-0.21944 l -0.0058,-0.1486 h -0.09519 c -0.09358,0 -0.09552,-0.001 -0.112918,-0.14859 -0.01048,-0.0817 -0.01799,-0.23466 -0.01807,-0.33977 -1.66e-4,-0.13155 -0.01218,-0.19247 -0.03564,-0.19544 -0.01948,-10e-4 -0.04823,-0.006 -0.06365,-0.0108 -0.01575,-0.004 -0.05063,-0.006 -0.07773,-0.0108 -0.04417,-0.001 -0.04956,-0.0387 -0.04956,-0.32698 0,-0.29293 -0.0058,-0.32531 -0.0537,-0.34074 -0.02959,-0.009 -0.06455,-0.0156 -0.07774,-0.0122 -0.08563,0.0158 -0.09501,-0.009 -0.09501,-0.24304 v -0.24066 h -0.09553 c -0.10684,0 -0.09168,0.0529 -0.14738,-0.51674 -0.01807,-0.18552 -0.02088,-0.19112 -0.09727,-0.19112 -0.06837,0 -0.08105,-0.0139 -0.09813,-0.10615 -0.01049,-0.0585 -0.02593,-0.2113 -0.0334,-0.33977 l -0.01392,-0.2336 h -0.0931 c -0.09121,0 -0.09348,-0.004 -0.110842,-0.14861 -0.01049,-0.0817 -0.0179,-0.23303 -0.01807,-0.33614 l -2.33e-4,-0.1875 -0.113289,-0.018 -0.113266,-0.0181 v -0.32167 -0.32165 l -0.112071,-0.0178 -0.11206,-0.0178 -0.0085,-0.23342 -0.0085,-0.23347 -0.08818,-0.009 c -0.08374,-0.006 -0.08913,-0.0157 -0.105976,-0.15572 -0.01049,-0.0808 -0.01781,-0.22523 -0.01791,-0.32063 -2.56e-4,-0.17455 -0.03655,-0.24654 -0.118499,-0.23544 -0.09452,0.0122 -0.108232,-0.004 -0.108406,-0.13607 -1.16e-4,-0.0739 -0.0085,-0.22048 -0.01824,-0.3256 -0.01575,-0.16949 -0.02486,-0.19118 -0.07757,-0.19155 -0.118849,-8.3e-4 -0.133293,-0.0354 -0.150515,-0.36153 l -0.0174,-0.31401 -0.109103,-0.0185 -0.109113,-0.0185 v -0.33731 -0.33728 H 91.743339 91.63005 v -0.20839 c 0,-0.11471 -0.0085,-0.26683 -0.01781,-0.33822 -0.01558,-0.12025 -0.02429,-0.13051 -0.106138,-0.13851 l -0.08838,-0.009 -0.01392,-0.24069 -0.01392,-0.24066 -0.106159,-0.009 -0.106148,-0.009 -2.08e-4,-0.14704 c -9.9e-5,-0.0807 -0.0085,-0.23293 -0.01823,-0.33804 l -0.01807,-0.19114 h -0.09102 c -0.09065,0 -0.09103,-7.3e-4 -0.109114,-0.17402 -0.01049,-0.0957 -0.01824,-0.24727 -0.01824,-0.33674 0,-0.17297 -0.01932,-0.19708 -0.157997,-0.19708 -0.06696,0 -0.06837,-0.005 -0.06837,-0.24067 v -0.24067 h -0.09931 c -0.09366,0 -0.09936,-0.005 -0.102668,-0.0991 -0.0016,-0.0545 -0.0066,-0.11193 -0.01049,-0.12737 -0.0042,-0.0156 -0.0085,-0.1239 -0.01048,-0.24067 l -0.0042,-0.21235 h -0.09918 c -0.05453,0 -0.100755,-0.004 -0.103014,-0.006 -0.0016,-0.004 -0.01218,-0.15991 -0.02121,-0.34685 l -0.0174,-0.33977 -0.106138,-0.009 -0.106159,-0.009 v -0.16409 c 0,-0.0902 -0.0085,-0.24233 -0.01823,-0.33805 -0.01824,-0.17401 -0.01824,-0.17403 -0.110657,-0.17403 h -0.09254 l -0.0174,-0.23359 c -0.0085,-0.12843 -0.01998,-0.27819 -0.02387,-0.33269 -0.0066,-0.0925 -0.01392,-0.0998 -0.113104,-0.10788 l -0.106159,-0.009 v -0.22086 -0.22084 l -0.148599,-0.0178 c -0.188634,-0.0226 -0.419179,-0.0228 -0.606249,-2.7e-4 l -0.146154,0.0175 -0.01989,0.19737 c -0.01049,0.10856 -0.01049,0.31715 1.41e-4,0.46353 l 0.02005,0.26617 h 0.07938 c 0.103014,0 0.115714,0.0365 0.134511,0.38784 l 0.01565,0.28875 0.102138,0.009 0.102149,0.009 0.0085,0.33105 0.0085,0.33101 0.105273,0.009 0.105283,0.009 0.0085,0.33238 c 0.0066,0.31943 0.01049,0.33301 0.0726,0.34859 0.03547,0.009 0.08279,0.0122 0.1051,0.006 0.03241,-0.006 0.04418,0.055 0.05917,0.31176 0.01027,0.17634 0.02593,0.32776 0.03464,0.33652 0.0085,0.009 0.045,0.0188 0.08063,0.0226 0.03547,0.004 0.07409,0.009 0.08583,0.0108 0.01218,0.001 0.02121,0.0526 0.02121,0.11296 0,0.0602 0.0085,0.16844 0.01807,0.24067 0.01739,0.12529 0.02213,0.13137 0.109276,0.13137 0.09083,0 0.0914,6.7e-4 0.10945,0.17404 0.01048,0.0957 0.01807,0.25418 0.01807,0.35213 v 0.17809 l 0.09169,0.009 c 0.08263,0.006 0.09358,0.02 0.111526,0.12213 0.01049,0.0623 0.02071,0.20563 0.02155,0.31855 0.0016,0.20382 0.0016,0.20529 0.07948,0.20862 0.04285,0.001 0.09376,8.3e-4 0.113279,-8.2e-4 0.0266,-0.004 0.0353,0.0828 0.0353,0.35055 v 0.35518 h 0.113279 0.113277 v 0.23763 c 0,0.25289 0.01049,0.272 0.153821,0.272 0.06199,0 0.06489,0.0108 0.08089,0.31579 0.0174,0.32786 0.03166,0.36246 0.150688,0.36331 0.05221,3.8e-4 0.06199,0.0222 0.07773,0.17447 0.01049,0.0957 0.01823,0.24786 0.01823,0.33806 v 0.1641 l 0.106159,0.009 0.106138,0.009 0.0066,0.15573 c 0.0042,0.0856 0.01392,0.23463 0.02329,0.33106 0.01558,0.17225 0.01824,0.17549 0.106667,0.18404 0.08923,0.009 0.08998,0.0108 0.09657,0.17861 0.0042,0.0934 0.01392,0.24949 0.02346,0.34681 l 0.0174,0.17698 h 0.09692 0.09693 v 0.24067 c 0,0.24976 8.28e-4,0.25232 0.130333,0.24233 0.05164,-0.004 0.06199,0.0156 0.07757,0.14546 0.01049,0.0826 0.01824,0.22659 0.01881,0.32004 7.79e-4,0.19622 0.0276,0.25482 0.107013,0.23402 0.0309,-0.006 0.07011,-0.005 0.08706,0.004 0.0174,0.0108 0.03921,0.16026 0.0498,0.33486 l 0.01914,0.31592 0.101976,0.009 0.101966,0.009 0.01393,0.33976 0.01391,0.33976 0.09919,0.0139 c 0.07881,0.0108 0.09953,0.0271 0.1011,0.0779 8.28e-4,0.035 0.0058,0.14652 0.0066,0.24775 l 0.0058,0.18403 h 0.08487 c 0.05495,0 0.0861,0.0156 0.08837,0.0425 0.0042,0.0508 0.01049,0.0713 0.03381,0.12738 0.01048,0.0233 0.02179,0.14443 0.02594,0.26897 l 0.0066,0.22654 0.08856,0.009 c 0.0859,0.009 0.08913,0.0139 0.106137,0.17699 0.01049,0.0925 0.02553,0.2448 0.03547,0.33822 l 0.01781,0.16984 h 0.09553 c 0.09291,0 0.09552,0.004 0.09849,0.12041 0.0016,0.0661 0.0066,0.15853 0.01049,0.20526 0.0042,0.0469 0.0085,0.1446 0.01027,0.21764 0.0042,0.12808 0.0066,0.13295 0.09571,0.14165 0.08543,0.009 0.09348,0.0178 0.11119,0.13624 0.01049,0.0702 0.02005,0.21895 0.02121,0.33079 0.0016,0.17718 0.0085,0.20566 0.05851,0.22126 0.0309,0.0108 0.06787,0.0108 0.08171,0.001 0.05246,-0.0323 0.08601,0.0634 0.09414,0.2681 l 0.0085,0.21108 0.106137,0.009 0.106159,0.009 0.0058,0.24604 c 0.01049,0.45454 5.22e-4,0.41486 0.103544,0.42489 0.0508,0.005 0.09726,0.024 0.103348,0.0426 0.0058,0.0185 0.01575,0.16724 0.02263,0.33078 l 0.01218,0.2973 0.103186,0.009 0.103187,0.009 1.83e-4,0.16115 c 1.24e-4,0.0885 0.0085,0.24708 0.01823,0.3522 l 0.01807,0.1911 h 0.09245 0.09234 l 0.02031,0.2429 c 0.01741,0.20826 0.02859,0.24593 0.07799,0.26422 0.0503,0.0187 0.05146,0.0237 0.01049,0.0394 -0.02593,0.0108 -0.04698,0.0389 -0.04698,0.0642 0,0.0305 0.01558,0.0404 0.04458,0.0295 0.02453,-0.009 0.06903,-0.004 0.09919,0.0122 0.04774,0.0254 0.05462,0.0612 0.05462,0.28125 v 0.25204 l 0.09483,-0.0156 0.09465,-0.0156 0.01865,0.17707 c 0.01049,0.0974 0.01865,0.25797 0.01865,0.35692 v 0.17986 h 0.11242 0.112396 l 0.0066,0.33272 0.0085,0.33268 0.106149,0.009 0.106148,0.009 v 0.16408 c 0,0.0901 0.0085,0.24231 0.01824,0.33804 0.01807,0.17331 0.01865,0.17405 0.109277,0.17405 0.09064,0 0.09121,7e-4 0.109277,0.17405 0.01049,0.0957 0.01824,0.2486 0.01824,0.33976 0,0.16374 8.3e-4,0.16565 0.08146,0.16565 0.117794,0 0.141456,0.0466 0.150861,0.29862 l 0.0085,0.22519 0.08875,0.009 c 0.108051,0.0108 0.123537,0.0653 0.123537,0.43376 v 0.2513 h 0.09674 0.09674 l 0.0174,0.20528 c 0.0086,0.11297 0.02,0.26263 0.02356,0.33269 0.0065,0.12547 0.0086,0.12754 0.112937,0.13626 l 0.106149,0.009 v 0.22314 c 0,0.22678 0.01081,0.249 0.116936,0.26966 0.03319,0.005 0.06723,0.0183 0.07502,0.0261 0.0065,0.006 0.02551,0.15175 0.03924,0.31941 0.01394,0.16775 0.03729,0.32707 0.05243,0.35412 0.01567,0.0271 0.02756,0.0763 0.02756,0.10949 0,0.046 0.01394,0.0569 0.05578,0.0458 0.08626,-0.0226 0.111002,0.0348 0.12006,0.27825 l 0.0086,0.22515 0.106148,0.009 0.106142,0.009 v 0.33806 0.33804 h 0.11207 0.11205 l 0.009,0.2336 0.009,0.23359 0.11049,0.0139 c 0.0915,0.0122 0.11223,0.0262 0.12058,0.085 0.005,0.039 0.0156,0.0867 0.0229,0.10614 0.0139,0.0396 0.21226,0.0465 0.49191,0.0174 z m -1.822111,-6.35243 c 0.01081,-0.0158 0.02324,-0.0284 0.03005,-0.0284 0.0065,0 0.01222,0.0122 0.01222,0.0284 0,0.0156 -0.01394,0.0284 -0.03005,0.0284 -0.0174,0 -0.02216,-0.0122 -0.01221,-0.0284 z m 23.09001,11.35387 v -0.11332 h -0.45301 -0.45302 v -0.11331 -0.11332 h -0.24068 -0.24067 v -0.11029 -0.1103 l -0.22651,-0.02 -0.22652,-0.0201 v -0.1103 -0.1103 h -0.22651 -0.22649 v -0.1133 -0.11332 h -0.1274 -0.12736 v -0.11331 -0.11332 h -0.11331 -0.1133 v -0.1133 -0.11332 h -0.11332 -0.11331 v -0.11331 c 0,-0.11296 -2.7e-4,-0.11332 -0.11158,-0.11332 -0.11099,0 -0.11168,-5.9e-4 -0.12041,-0.12041 -0.009,-0.11677 -0.0122,-0.12059 -0.11481,-0.12911 -0.10323,-0.009 -0.10615,-0.0122 -0.10615,-0.12042 0,-0.11087 -7.8e-4,-0.11157 -0.1103,-0.11157 h -0.11029 l -0.0201,-0.22651 -0.02,-0.22652 h -0.1103 -0.1103 v -0.24067 -0.24067 h -0.11331 -0.11331 v -0.33976 -0.33977 h -0.11331 -0.11332 v -0.4064 c 0,-0.22352 -0.006,-0.48472 -0.0182,-0.58044 l -0.0183,-0.17401 h -0.095 -0.095 v -13.46328 -13.46328 h 0.095 0.095 l 0.0183,-0.17402 c 0.0108,-0.0957 0.0182,-0.35694 0.0182,-0.58046 v -0.4064 h 0.11332 0.11331 v -0.33974 -0.33977 h 0.11331 0.11331 v -0.22652 -0.2265 h 0.11332 0.11331 v -0.12738 -0.12738 h 0.1103 0.11029 l 0.0201,-0.22651 0.0201,-0.2265 h 0.1103 c 0.10982,0 0.11029,-5e-4 0.11029,-0.11332 v -0.11331 h 0.11331 0.11332 v -0.11331 -0.11331 h 0.11331 0.11331 v -0.12737 -0.12736 h 0.11331 0.11332 v -0.11332 -0.11331 h 0.22651 0.22651 v -0.11332 -0.1133 h 0.12738 0.12736 v -0.11332 -0.11331 h 0.22651 0.22653 v -0.11065 -0.11064 l 0.24066,-0.0201 0.24067,-0.0201 v -0.098 c 0,-0.0942 0.004,-0.0976 0.0977,-0.0894 0.0536,0.004 0.10679,-7.8e-4 0.11796,-0.0122 0.0108,-0.0108 0.22214,-0.0205 0.46869,-0.0205 h 0.44832 v -0.11332 -0.11331 h 0.93434 0.93437 v 0.11331 0.11332 h 0.29315 c 0.16129,0 0.37146,0.006 0.46717,0.0182 0.17383,0.0183 0.17403,0.0185 0.17403,0.1103 v 0.0921 l 0.22654,0.0201 0.2265,0.02 v 0.0937 0.0936 l 0.24067,0.0201 0.24065,0.0201 v 0.10995 c 0,0.10926 5.9e-4,0.10995 0.11332,0.10995 0.0973,0 0.11378,0.009 0.11762,0.0637 0.0122,0.16721 -0.0237,0.14947 0.31422,0.15905 l 0.1345,0.004 v 0.11331 0.11332 h 0.11331 c 0.11297,0 0.11331,2.5e-4 0.11331,0.11168 0,0.111 6e-4,0.1117 0.12025,0.12025 0.11971,0.009 0.12041,0.009 0.12912,0.1291 0.009,0.11973 0.009,0.12042 0.1204,0.12042 0.11134,0 0.11158,2.8e-4 0.11158,0.11332 v 0.11331 h 0.11331 0.11331 v 0.2265 0.2265 h 0.11331 c 0.11297,0 0.11332,2.9e-4 0.11332,0.11158 0,0.10844 0.004,0.11169 0.10614,0.12042 l 0.10615,0.009 0.009,0.23358 0.009,0.23359 h 0.10809 0.1081 l 0.0182,0.17405 c 0.0108,0.0957 0.0182,0.24783 0.0182,0.33805 v 0.16409 l 0.10614,0.009 0.10615,0.009 0.009,14.5392 c 0.004,7.99656 -1.4e-4,14.57423 -0.009,14.61706 -0.0139,0.0666 -0.0308,0.0779 -0.11366,0.0779 h -0.097 v 0.16566 c 0,0.0911 -0.006,0.24336 -0.018,0.33829 l -0.0181,0.17261 -0.10226,0.009 -0.10226,0.009 -0.009,0.23358 -0.009,0.23359 h -0.11204 -0.11204 v 0.2265 0.22653 h -0.11332 -0.1133 v 0.11332 0.11331 h -0.11331 -0.11332 v 0.11331 c 0,0.11297 -2.5e-4,0.11331 -0.11157,0.11331 -0.111,0 -0.11169,5.9e-4 -0.12042,0.1204 -0.009,0.11973 -0.009,0.12043 -0.12911,0.12913 -0.11972,0.009 -0.12025,0.009 -0.12025,0.1204 0,0.11134 -2.5e-4,0.11158 -0.11331,0.11158 h -0.11331 v 0.11331 0.11331 h -0.11332 c -0.11273,0 -0.11331,5.2e-4 -0.11331,0.1103 v 0.1103 l -0.22651,0.0201 -0.22649,0.02 v 0.0926 0.0926 l -0.23911,0.0198 -0.2391,0.0198 -0.009,0.10367 -0.009,0.10366 -0.21945,0.009 -0.21942,0.009 v 0.11203 0.11204 h -0.46718 -0.46717 v 0.11332 0.11331 h -1.04763 -1.04761 z m 1.39447,-5.0023 c 0.0122,-0.006 0.0212,-0.0615 0.0212,-0.1211 0,-0.10637 0.0539,-0.16549 0.11586,-0.12721 0.014,0.009 0.0386,-0.0176 0.0542,-0.0586 0.0369,-0.097 0.0392,-25.31645 0.004,-25.33919 -0.0157,-0.009 -0.0139,-0.0494 0.005,-0.0966 0.0174,-0.0444 0.0208,-0.10474 0.009,-0.13433 -0.0204,-0.0507 -0.0232,-0.05 -0.0463,0.0108 -0.014,0.0349 -0.0409,0.0637 -0.0609,0.0637 -0.0271,1e-5 -0.0373,-0.0776 -0.0399,-0.30439 -0.001,-0.1674 -0.0139,-0.41267 -0.0284,-0.54503 l -0.0248,-0.24064 -0.16652,-0.0208 c -0.0918,-0.0122 -0.25092,-0.0122 -0.35394,-2e-5 l -0.18733,0.0207 -0.0139,0.0991 c -0.0122,0.0875 -0.0249,0.10009 -0.10615,0.10809 l -0.0921,0.009 v 13.20269 c 0,7.26148 0.009,13.26068 0.0176,13.33157 l 0.0178,0.12895 0.23009,0.028 c 0.20947,0.0254 0.59565,0.0174 0.6477,-0.0139 z M 50.507275,141.73097 c 0.0107,-0.028 0.02645,-0.0437 0.03519,-0.035 0.0086,0.009 1.9e-5,0.0316 -0.01933,0.0508 -0.02797,0.0279 -0.03122,0.0247 -0.01584,-0.0156 z m 61.928855,-3.98398 c 0.006,-0.0469 0.0174,-0.0848 0.0235,-0.0848 0.005,0 0.0108,0.0383 0.0108,0.0848 0,0.0469 -0.0108,0.0851 -0.0235,0.0851 -0.0122,0 -0.0178,-0.0383 -0.0108,-0.0851 z m -28.881252,-2.93267 c -0.01218,-0.0122 -0.02121,-0.0473 -0.02121,-0.079 0,-0.0416 0.0085,-0.0492 0.0309,-0.0266 0.01739,0.0174 0.0266,0.0525 0.02121,0.079 -0.0058,0.0266 -0.01931,0.0384 -0.0309,0.0266 z m 11.38928,-1.00296 c 0,-0.0157 0.01989,-0.0283 0.04418,-0.0283 0.02419,0 0.0363,-0.0122 0.0266,-0.0284 -0.01049,-0.0156 -0.0042,-0.0283 0.01218,-0.0283 0.01741,0 0.03008,0.0254 0.03008,0.0566 0,0.0378 -0.01889,0.0567 -0.0566,0.0567 -0.03116,0 -0.05677,-0.0122 -0.05677,-0.0284 z m 29.337712,-4.41697 c 0,-0.0389 0.006,-0.0547 0.0139,-0.0352 0.006,0.0195 0.006,0.0513 0,0.0709 -0.006,0.0195 -0.0139,0.004 -0.0139,-0.0352 z"
       id="path4" /></g></svg>
