<?xml version="1.0" encoding="UTF-8" standalone="no"?>
<!-- Created with Inkscape (http://www.inkscape.org/) -->

<svg
   width="175mm"
   height="75mm"
   viewBox="0 0 175 75"
   version="1.1"
   id="svg1"
   xml:space="preserve"
   inkscape:version="1.4.3 (0d15f75, 2025-12-25)"
   sodipodi:docname="logo-tenda.svg"
   xmlns:inkscape="http://www.inkscape.org/namespaces/inkscape"
   xmlns:sodipodi="http://sodipodi.sourceforge.net/DTD/sodipodi-0.dtd"
   xmlns="http://www.w3.org/2000/svg"
   xmlns:svg="http://www.w3.org/2000/svg"><sodipodi:namedview
     id="namedview1"
     pagecolor="#505050"
     bordercolor="#eeeeee"
     borderopacity="1"
     inkscape:showpageshadow="0"
     inkscape:pageopacity="0"
     inkscape:pagecheckerboard="0"
     inkscape:deskcolor="#505050"
     inkscape:document-units="mm"
     inkscape:zoom="0.5"
     inkscape:cx="397"
     inkscape:cy="561"
     inkscape:window-width="1920"
     inkscape:window-height="1057"
     inkscape:window-x="-8"
     inkscape:window-y="-8"
     inkscape:window-maximized="1"
     inkscape:current-layer="layer1" /><defs
     id="defs1" /><g
     inkscape:label="Camada 1"
     inkscape:groupmode="layer"
     id="layer1"><path
       style="fill:#e1062d;stroke-width:0.860333"
       d="m 65.353114,71.373311 c -3.452873,-0.673504 -5.758561,-3.326515 -6.092603,-7.010387 -0.415506,-4.582275 2.698133,-8.398155 7.293306,-8.93823 4.265977,-0.501386 7.821299,2.354329 7.920218,6.361695 l 0.03697,1.497609 -4.400846,1.051878 c -2.420466,0.578523 -4.725011,1.177969 -5.121213,1.33209 -0.690307,0.268526 -0.698273,0.304626 -0.19093,0.865237 1.169355,1.292127 3.463918,1.476462 5.454143,0.438177 1.19946,-0.625756 1.984169,-0.371742 2.859724,0.92571 0.687911,1.019391 0.698562,1.104668 0.205989,1.64895 -1.272561,1.406164 -5.339833,2.339273 -7.964756,1.827271 z m 2.101358,-9.548569 c 2.489468,-0.541063 2.741199,-0.813144 1.812941,-1.959496 -0.421568,-0.520614 -0.861821,-0.665924 -2.017541,-0.665924 -1.221478,0 -1.625547,0.149397 -2.32584,0.85993 -0.466145,0.472969 -0.943798,1.255296 -1.061454,1.73851 -0.197434,0.810882 -0.157918,0.865462 0.512901,0.708391 0.399749,-0.0936 1.785296,-0.400236 3.078993,-0.681411 z m 32.673378,9.561526 c -3.846269,-0.650602 -6.023902,-3.49847 -6.031034,-7.887273 -0.0069,-4.005732 1.88961,-6.760545 5.344577,-7.764933 1.887257,-0.548636 4.144077,-0.409408 5.604417,0.345767 0.4664,0.241187 0.98658,0.438513 1.15595,0.438513 0.18263,0 0.34317,-1.266145 0.39446,-3.110941 l 0.0865,-3.110941 2.09738,-0.09086 c 1.4727,-0.06384 2.17189,0.02659 2.34754,0.303508 0.42091,0.663568 0.32171,20.090376 -0.10475,20.516852 -0.20031,0.200312 -1.01627,0.364205 -1.81324,0.364205 -1.31356,0 -1.49453,-0.08799 -1.93575,-0.941197 l -0.48673,-0.941195 -0.69876,0.65646 c -0.6986,0.656306 -3.17136,1.561092 -4.08238,1.493745 -0.2656,-0.01962 -1.11076,-0.141903 -1.87814,-0.27171 z m 4.8593,-4.479853 c 1.22492,-0.909071 1.58135,-1.845537 1.45806,-3.830789 -0.0999,-1.607449 -0.22395,-1.892563 -1.22224,-2.807434 -1.84156,-1.687656 -4.46362,-1.342198 -5.891187,0.776177 -1.34568,1.996859 -0.62007,5.13146 1.432537,6.188475 1.28191,0.660125 3.0809,0.52106 4.22283,-0.326429 z m 13.78604,4.470785 c -2.94296,-0.582102 -5.35533,-3.210499 -5.73491,-6.24844 -0.52028,-4.164197 0.9,-7.274131 4.02217,-8.807229 1.55572,-0.763915 2.08302,-0.863215 4.49409,-0.846353 3.0847,0.02159 4.44717,0.535722 6.11202,2.306469 1.93311,2.056042 2.07298,2.614571 2.07806,8.297154 l 0.004,5.159619 h -1.66928 c -1.44001,0 -1.71044,-0.09379 -1.96889,-0.682891 -0.36669,-0.835797 -0.58943,-0.847584 -1.65667,-0.08764 -0.80707,0.574684 -3.02554,1.238261 -3.9621,1.185118 -0.2504,-0.0142 -1.02398,-0.138325 -1.71908,-0.275807 z m 4.24659,-4.042967 c 2.63027,-1.09899 3.07848,-5.37108 0.76752,-7.315632 -1.19528,-1.005756 -3.2501,-1.058143 -4.57242,-0.116566 -2.46203,1.753118 -2.23576,5.968831 0.39261,7.314445 1.24786,0.638857 2.09514,0.6681 3.41229,0.117753 z m -70.976585,3.676551 c -0.07756,-0.208657 -0.175709,-3.998702 -0.218104,-8.422305 l -0.07708,-8.042926 -2.579806,-0.07614 c -4.083313,-0.120471 -3.989933,-0.06555 -3.88395,-2.285424 l 0.09011,-1.887555 h 8.801692 8.801693 v 1.972788 1.972797 l -3.024433,0.08766 c -1.663438,0.04817 -3.099497,0.209112 -3.191243,0.357563 -0.09175,0.148443 -0.14671,3.728317 -0.122145,7.955266 0.02456,4.226958 -0.08068,7.924387 -0.233885,8.216505 -0.221709,0.422752 -0.68089,0.531135 -2.25019,0.531135 -1.299764,0 -2.019696,-0.129281 -2.112659,-0.379381 z m 24.273767,-0.0061 c -0.08128,-0.211815 -0.11114,-3.728696 -0.06635,-7.815298 l 0.08143,-7.430177 1.515271,-0.09552 c 1.340879,-0.08449 1.590604,-8.6e-4 2.169809,0.725356 l 0.654538,0.82087 0.906041,-0.645156 c 1.16232,-0.827648 3.744087,-1.381128 5.289607,-1.133989 3.023523,0.483483 4.805515,2.295406 5.377595,5.467912 0.49901,2.767299 0.427826,9.724224 -0.104013,10.165609 -0.257868,0.214017 -1.195392,0.319553 -2.352179,0.264794 l -1.923414,-0.09105 -0.155248,-5.007866 c -0.194866,-6.286252 -0.524168,-6.980654 -3.310341,-6.980654 -0.928868,0 -1.47136,0.216203 -2.220374,0.884879 l -0.991186,0.884889 -0.09829,4.801772 c -0.05631,2.750883 -0.234218,4.965563 -0.416545,5.185249 -0.434547,0.523598 -4.15534,0.522196 -4.356354,-0.0017 z m 0.676,-25.48873 C 76.518216,45.167813 76.482181,44.149771 76.55557,33.15955 l 0.07997,-11.976999 1.517532,-0.508577 c 2.722501,-0.91241 8.542577,-2.39776 9.395159,-2.39776 0.458042,0 2.150834,0.353822 3.761749,0.786276 1.610923,0.432448 3.87047,1.036582 5.021209,1.342525 1.150748,0.305936 2.207134,0.737436 2.347534,0.958885 0.1404,0.22145 0.25735,5.528067 0.25991,11.792484 0.004,9.822593 -0.0604,11.482659 -0.46782,12.06439 -0.47237,0.674399 -0.47467,0.674546 -10.71648,0.674546 -7.716938,0 -10.371638,-0.09359 -10.76138,-0.379382 z M 61.785676,21.441917 c -0.38252,-0.382514 -0.477212,-1.222354 -0.477212,-4.232439 0,-5.391411 -1.408637,-4.423379 13.961305,-9.59444 3.922823,-1.319794 7.337272,-2.509292 7.587663,-2.643328 0.2504,-0.134036 1.43852,-0.556348 2.640278,-0.938471 l 2.185024,-0.694769 3.581604,1.235966 c 1.969889,0.679783 6.381455,2.202601 9.803492,3.384038 3.42205,1.181436 7.20064,2.474527 8.39688,2.873523 2.74523,0.915662 3.92248,1.522912 4.16188,2.146739 0.10374,0.270223 0.18853,2.323942 0.18853,4.563829 0,4.396279 0.0553,4.261267 -1.66928,4.077861 -0.52518,-0.05583 -10.71528,-2.741126 -15.630601,-4.118951 -0.918114,-0.257352 -2.215601,-0.614742 -2.883314,-0.794199 -0.667722,-0.179458 -1.82863,-0.510549 -2.579814,-0.735749 -2.536651,-0.760484 -3.782001,-0.820863 -5.652452,-0.274016 -0.980902,0.286774 -2.534638,0.718318 -3.452743,0.958988 -0.918108,0.24067 -2.693622,0.713165 -3.945587,1.049985 -1.251964,0.33682 -3.846948,1.021759 -5.766626,1.522086 -1.91968,0.500327 -4.58295,1.229055 -5.91838,1.619406 -3.729336,1.090086 -3.999133,1.125453 -4.530647,0.593941 z"
       id="path1" /></g></svg>
