<?xml version="1.0" encoding="UTF-8" standalone="no"?>
<!-- Created with Inkscape (http://www.inkscape.org/) -->

<svg
   width="125mm"
   height="75mm"
   viewBox="0 0 125 75"
   version="1.1"
   id="svg1"
   xml:space="preserve"
   inkscape:version="1.4.3 (0d15f75, 2025-12-25)"
   sodipodi:docname="logo-slc.svg"
   xmlns:inkscape="http://www.inkscape.org/namespaces/inkscape"
   xmlns:sodipodi="http://sodipodi.sourceforge.net/DTD/sodipodi-0.dtd"
   xmlns="http://www.w3.org/2000/svg"
   xmlns:svg="http://www.w3.org/2000/svg"><sodipodi:namedview
     id="namedview1"
     pagecolor="#505050"
     bordercolor="#eeeeee"
     borderopacity="1"
     inkscape:showpageshadow="0"
     inkscape:pageopacity="0"
     inkscape:pagecheckerboard="0"
     inkscape:deskcolor="#505050"
     inkscape:document-units="mm"
     inkscape:zoom="0.76167929"
     inkscape:cx="395.83589"
     inkscape:cy="246.1666"
     inkscape:window-width="1920"
     inkscape:window-height="1057"
     inkscape:window-x="-8"
     inkscape:window-y="-8"
     inkscape:window-maximized="1"
     inkscape:current-layer="layer1" /><defs
     id="defs1" /><g
     inkscape:label="Camada 1"
     inkscape:groupmode="layer"
     id="layer1"><path
       style="fill:#297046;stroke-width:0.783472"
       d="m 66.162189,50.215147 c -1.248179,-0.700049 -0.937698,-1.566748 0.773394,-2.158903 0.83176,-0.287847 1.100318,-0.532062 1.126092,-1.024036 0.01861,-0.355327 0.322572,-0.879846 0.67546,-1.165594 0.559724,-0.453238 0.603637,-0.620149 0.344097,-1.307755 -0.380625,-1.00839 -0.0304,-1.733359 1.390598,-2.878911 1.047392,-0.844347 1.105204,-0.856155 4.191802,-0.856155 1.721372,0 3.205306,0.07545 3.29763,0.167734 0.308524,0.308281 -0.17437,1.076028 -0.676793,1.076028 -0.295378,0 -0.709269,0.419376 -1.022916,1.036462 -0.652709,1.284204 -2.463908,2.280229 -4.146412,2.280229 -0.651867,0 -1.185199,0.09951 -1.185199,0.221111 0,0.40985 0.65922,0.884446 1.229943,0.885488 0.311625,5.72e-4 0.97879,0.252341 1.482579,0.559492 0.732036,0.446305 0.898554,0.709755 0.829178,1.311829 -0.06824,0.592327 -0.382217,0.901062 -1.468765,1.444345 -1.74155,0.870774 -5.605201,1.101576 -6.840688,0.408636 z m 4.33056,-0.852794 c 0.613818,-0.23555 0.544583,-0.845248 -0.115593,-1.017886 -1.125238,-0.294256 -2.104496,0.370982 -1.474088,1.001387 0.229889,0.229893 1.01242,0.238009 1.589681,0.01653 z m 2.684999,-5.955133 c 0.614295,-0.70829 0.671012,-1.339665 0.120341,-1.339665 -0.355423,0 -1.538973,1.361312 -1.538973,1.770111 0,0.398945 0.949058,0.110971 1.418632,-0.430446 z m 18.34334,4.556754 c -0.304026,-0.06251 -0.836857,-0.174502 -1.184061,-0.248783 -0.996402,-0.213183 -1.315454,-1.239914 -0.753377,-2.424412 0.625907,-1.31899 2.615086,-3.116453 4.226044,-3.818718 1.419978,-0.61902 4.40753,-0.962149 4.976028,-0.571511 0.699463,0.480621 0.05893,1.167005 -1.089126,1.167005 -0.599348,0 -1.442434,0.182391 -1.873522,0.40532 -0.932731,0.482328 -3.058226,2.826984 -3.058226,3.373548 0,0.581776 0.809561,0.771987 1.759536,0.413407 0.692126,-0.261248 0.924661,-0.244576 1.259524,0.09029 0.363319,0.36332 0.348378,0.456912 -0.129524,0.81148 -0.297115,0.220438 -1.037714,0.479492 -1.645774,0.575679 -0.608061,0.09619 -1.292125,0.212125 -1.520155,0.257653 -0.228021,0.04551 -0.663334,0.03157 -0.967367,-0.03095 z m 7.947957,-0.09618 c -1.315307,-0.296206 -1.729151,-0.759238 -1.729151,-1.934711 0,-0.842389 0.233304,-1.30133 1.21873,-2.397359 1.730346,-1.924566 3.385136,-2.710324 5.709716,-2.711218 2.12146,-7.83e-4 3.02162,0.534547 3.02162,1.797071 0,0.94058 -1.24436,2.812866 -2.47092,3.717799 -1.67709,1.23732 -4.13795,1.89144 -5.749995,1.528418 z m 3.027795,-2.13806 c 1.51963,-1.616545 2.36648,-3.66218 1.51607,-3.66218 -0.52844,0 -1.97972,1.621072 -2.65014,2.960196 -0.70784,1.413852 -0.71053,1.46206 -0.0816,1.46206 0.27561,0 0.82261,-0.342033 1.21559,-0.760076 z m 11.06644,2.133423 c -1.3887,-0.558184 -0.6361,-2.907054 1.57514,-4.916071 1.10333,-1.002436 3.21699,-1.931108 4.86344,-2.136816 1.93287,-0.241497 3.99519,0.05476 3.99519,0.573917 0,0.213574 -0.46641,1.129333 -1.03646,2.035011 -0.57006,0.905677 -1.4096,2.246917 -1.86564,2.980528 -0.69385,1.116149 -0.9836,1.348566 -1.77533,1.42403 -0.52038,0.04959 -1.21715,-0.05485 -1.54838,-0.232127 -0.47525,-0.254346 -0.87517,-0.229651 -1.89652,0.117106 -1.46152,0.496203 -1.46118,0.496179 -2.31144,0.154422 z m 3.80798,-2.117982 c 0.96682,-0.662448 3.0327,-3.044217 3.0327,-3.49642 0,-0.09966 -0.24838,-0.181201 -0.55198,-0.181201 -1.01378,0 -3.59388,2.768097 -3.59388,3.855751 0,0.412702 0.3273,0.360326 1.11316,-0.17813 z m -62.590268,1.882471 c -0.08298,-0.134264 0.517309,-0.849432 1.333981,-1.589249 0.816671,-0.739824 2.986902,-2.744358 4.822735,-4.454528 2.703807,-2.518734 3.494284,-3.109401 4.161221,-3.109401 0.452838,0 0.896599,0.118523 0.986132,0.263395 0.214288,0.346726 -0.402332,7.704852 -0.714477,8.525852 -0.216819,0.570281 -0.394388,0.628274 -1.694585,0.553444 -1.410926,-0.0812 -1.452386,-0.10726 -1.452386,-0.91276 0,-0.816784 -0.02405,-0.830424 -1.60893,-0.912649 -1.507355,-0.0782 -1.677539,-0.02146 -2.695612,0.898265 -0.801004,0.72366 -1.336493,0.981752 -2.03694,0.981752 -0.522645,0 -1.018157,-0.10985 -1.101139,-0.244121 z m 7.812843,-3.776559 c 0.407612,-0.894607 0.405722,-1.230755 -0.0069,-1.230755 -0.455742,0 -1.607065,1.123576 -1.607065,1.568336 0,0.678401 1.272321,0.412287 1.613983,-0.337581 z m 13.587537,3.648947 c 0,-0.204455 0.473742,-1.106183 1.052758,-2.003838 0.579009,-0.897654 1.415263,-2.27857 1.858332,-3.0687 0.475942,-0.848758 1.051982,-1.498444 1.407764,-1.587736 0.883325,-0.221707 2.314538,0.131937 2.314538,0.571903 0,0.292336 0.239351,0.252285 1.032373,-0.172749 1.14943,-0.616058 1.616927,-0.685975 1.868203,-0.279408 0.252685,0.408855 -0.732602,1.599794 -1.485061,1.795019 -1.38235,0.358657 -3.07739,1.880362 -4.699552,4.218968 -0.560315,0.80779 -0.76039,0.898274 -1.986216,0.898274 -0.957583,0 -1.363139,-0.110595 -1.363139,-0.371733 z m 7.324814,0.09607 c -0.0937,-0.151617 0.683939,-1.675226 1.728094,-3.385787 l 1.898477,-3.110124 1.572285,-0.08289 c 0.864756,-0.0456 1.572285,-0.0031 1.572285,0.09398 0,0.246197 -3.305691,5.684585 -3.815315,6.276803 -0.458746,0.533098 -2.659204,0.68795 -2.955826,0.208012 z m 23.533214,0.06464 c -0.23072,-0.373316 5.52663,-9.582237 6.21585,-9.942305 0.78441,-0.409795 1.60922,-0.437765 2.17367,-0.07373 0.47225,0.304566 0.27783,0.714487 -2.42518,5.113771 -3.48211,5.667301 -2.99482,5.113239 -4.49709,5.113239 -0.73527,0 -1.39552,-0.09494 -1.46725,-0.210997 z M 1.0029482,47.436272 c 0,-0.134724 1.7122054,-3.11935 2.6223785,-4.571201 0.1538519,-0.245415 0.5577987,-0.952137 0.8976607,-1.570492 0.8105402,-1.474736 0.9710476,-1.545327 2.0876402,-0.918174 6.5340504,3.669953 21.9737124,4.705889 35.4380694,2.377741 2.963471,-0.512421 6.075471,-1.244542 9.188364,-2.161628 1.254125,-0.369477 2.280228,-0.579573 2.280228,-0.466878 0,0.112687 -0.808444,1.55096 -1.796544,3.196162 -0.988098,1.645197 -1.796542,3.073944 -1.796542,3.174979 0,0.101037 -0.227452,0.389557 -0.505449,0.641138 -0.46214,0.418233 -2.557947,0.457421 -24.460627,0.457421 -13.175347,0 -23.9551788,-0.07161 -23.9551788,-0.159068 z M 87.904508,39.81841 c -0.09741,-0.157595 -0.06982,-0.380681 0.06143,-0.49575 0.526697,-0.462044 3.43759,-1.452203 3.828369,-1.302254 0.64359,0.246973 0.507611,1.263809 -0.204086,1.526163 -1.086283,0.400432 -3.496349,0.578194 -3.685683,0.271841 z M 10.538447,39.273352 C 7.5856502,38.949527 6.7919947,38.756535 6.6251557,38.321763 6.3902476,37.709597 8.1795945,35.085329 8.7151908,35.256501 c 0.2427155,0.07757 1.0009932,0.353229 1.6850622,0.612581 1.813606,0.687598 5.39749,0.832172 6.714513,0.27087 1.882416,-0.802282 1.674926,-1.697029 -0.543304,-2.34287 -2.026683,-0.590062 -3.752872,-1.375829 -4.443765,-2.022796 -1.909918,-1.788508 1.033886,-5.199522 5.458728,-6.325089 2.574746,-0.654951 5.290235,-1.070598 6.994683,-1.070637 2.040472,-5.5e-5 4.337359,0.463423 4.337359,0.875215 0,0.27948 -1.860523,3.270602 -2.034367,3.270602 -0.05857,0 -0.703988,-0.264296 -1.434256,-0.58733 -2.238476,-0.990182 -6.793282,-0.623918 -6.35768,0.511246 0.08394,0.21873 0.152607,0.442144 0.152607,0.496471 0,0.05438 1.088291,0.441564 2.418424,0.860525 2.643962,0.832783 4.127621,1.637746 4.366758,2.369194 0.946489,2.895052 -4.32879,6.497327 -10.240072,6.992544 -1.064106,0.08914 -2.245679,0.197278 -2.625716,0.240291 -0.380039,0.04302 -1.56161,-0.01723 -2.625718,-0.133966 z M 45.501942,39.17036 c -1.140114,-0.172464 -2.66241,-0.578585 -3.38288,-0.902488 -1.13214,-0.508983 -1.363266,-0.535603 -1.702768,-0.196102 -0.216053,0.21605 -0.445389,0.550514 -0.509639,0.743247 -0.08989,0.269655 -1.83399,0.362504 -7.567038,0.40283 -4.097621,0.02884 -7.619772,-0.05241 -7.827001,-0.180457 -0.431041,-0.266403 -0.61957,0.09007 4.500179,-8.509179 l 3.332247,-5.596922 h 3.538146 c 2.991647,0 3.538146,0.06534 3.538146,0.422893 0,0.232597 -0.684068,1.545758 -1.520151,2.918141 -0.836084,1.372382 -1.520153,2.531528 -1.520153,2.57588 0,0.04435 -0.684068,1.215353 -1.520152,2.602222 -0.836083,1.386878 -1.520151,2.653406 -1.520151,2.814504 0,0.193548 1.054705,0.266387 3.109401,0.214748 l 3.109403,-0.07819 0.171075,-1.401544 c 0.197711,-1.619787 0.513765,-2.304189 1.79823,-3.894 2.515294,-3.113241 7.241055,-5.371166 13.490269,-6.445525 2.97846,-0.512052 6.980054,-0.275555 7.250226,0.428497 0.16453,0.428762 -1.70983,3.435419 -2.141649,3.435419 -0.168442,0 -0.698584,-0.279841 -1.178097,-0.621881 -0.726225,-0.518007 -1.218064,-0.618596 -2.944775,-0.602245 -2.354974,0.02232 -3.882248,0.610488 -5.761134,2.218742 -1.447905,1.239358 -2.918607,4.130477 -2.648537,5.206528 0.4486,1.787364 3.1501,2.291621 6.541994,1.221118 1.03356,-0.326191 1.945981,-0.526305 2.0276,-0.444682 0.08162,0.08162 -0.227403,0.759151 -0.686716,1.505636 -0.889594,1.44577 -1.595266,1.76729 -4.724641,2.15261 -2.55657,0.314791 -3.22895,0.316092 -5.251434,0.01019 z"
       id="path1" /></g></svg>
