<?xml version="1.0" encoding="UTF-8" standalone="no"?>
<!-- Created with Inkscape (http://www.inkscape.org/) -->

<svg
   width="125mm"
   height="75mm"
   viewBox="0 0 125 75"
   version="1.1"
   id="svg1"
   xml:space="preserve"
   inkscape:version="1.4.3 (0d15f75, 2025-12-25)"
   sodipodi:docname="logo-kobra.svg"
   xmlns:inkscape="http://www.inkscape.org/namespaces/inkscape"
   xmlns:sodipodi="http://sodipodi.sourceforge.net/DTD/sodipodi-0.dtd"
   xmlns="http://www.w3.org/2000/svg"
   xmlns:svg="http://www.w3.org/2000/svg"><sodipodi:namedview
     id="namedview1"
     pagecolor="#505050"
     bordercolor="#eeeeee"
     borderopacity="1"
     inkscape:showpageshadow="0"
     inkscape:pageopacity="0"
     inkscape:pagecheckerboard="0"
     inkscape:deskcolor="#505050"
     inkscape:document-units="mm"
     inkscape:zoom="0.53858859"
     inkscape:cx="396.40646"
     inkscape:cy="561.65319"
     inkscape:window-width="1920"
     inkscape:window-height="1057"
     inkscape:window-x="-8"
     inkscape:window-y="-8"
     inkscape:window-maximized="1"
     inkscape:current-layer="layer1" /><defs
     id="defs1" /><g
     inkscape:label="Camada 1"
     inkscape:groupmode="layer"
     id="layer1"><path
       style="fill:#281f6a;stroke-width:0.711935"
       d="M 2.3615022,37.499998 V 16.890837 h 1.1221851 1.1221853 l -0.054772,9.281923 -0.054772,9.281925 1.0479342,1.078226 1.047934,1.078227 -0.9851454,1.099713 c -1.1705457,1.306666 -1.088879,0.475674 -1.1013696,11.206888 l -0.00937,8.036965 -1.0674094,0.07723 -1.0674096,0.07723 z M 51.085605,55.969243 c 0,-0.04735 0.910813,-0.683992 2.02403,-1.414843 1.832268,-1.202916 4.925934,-4.172044 5.537297,-5.314388 0.37151,-0.694173 -0.428688,-0.581517 -1.344785,0.189333 -0.419505,0.35299 -1.339979,0.94634 -2.045496,1.318561 -1.210373,0.638579 -1.474101,0.676646 -4.673356,0.674609 -3.066679,-0.0022 -3.506539,-0.05951 -4.60422,-0.602453 -3.512421,-1.737381 -6.697764,-6.58256 -6.697764,-10.187881 0,-2.874576 1.644145,-6.095738 4.400383,-8.621111 1.51463,-1.387762 5.448263,-3.820682 6.169675,-3.815893 0.195356,0.0013 -0.209908,0.327082 -0.900582,0.72397 -2.192988,1.26017 -6.404457,5.334376 -6.404457,6.195716 0,0.53391 0.283657,0.447352 1.312147,-0.400421 0.50836,-0.41903 1.579544,-1.067431 2.38041,-1.440885 1.324591,-0.617677 1.71702,-0.677834 4.344408,-0.665973 2.41583,0.01093 3.134477,0.109496 4.393362,0.602688 2.143682,0.839837 4.001666,2.771943 5.421422,5.637705 1.101878,2.22413 1.110465,2.261997 1.110465,4.897526 0,2.384246 -0.06989,2.797432 -0.68302,4.037417 -1.601747,3.239408 -5.527576,6.655931 -9.320676,8.111477 -0.230583,0.08849 -0.419243,0.122168 -0.419243,0.07484 z m 0.83403,-8.204434 c 2.446191,-0.679272 3.898041,-3.269152 3.603116,-6.42742 -0.305369,-3.270134 -2.081653,-5.107605 -4.937518,-5.107605 -2.460427,0 -4.199485,1.372954 -4.774349,3.769251 -0.388514,1.619511 -0.211937,4.120934 0.378773,5.365761 0.935352,1.971115 3.462561,3.029636 5.729978,2.400013 z M 18.666081,51.148805 C 18.524659,50.978403 18.456685,45.912623 18.495837,38.461574 l 0.06517,-12.403574 2.561339,-0.07143 2.561338,-0.07143 0.176035,0.938346 c 0.09682,0.516089 0.11072,3.154047 0.03089,5.862126 -0.154564,5.243431 -0.01307,6.165174 0.771973,5.028775 0.235651,-0.341117 1.558655,-1.980414 2.940007,-3.642878 1.381354,-1.662462 3.456714,-4.180605 4.611914,-5.595872 l 2.100364,-2.57321 h 3.000352 c 1.935338,0 2.94528,0.08911 2.845201,0.251037 -0.08533,0.13807 -2.247506,2.765781 -4.804834,5.839358 -2.557328,3.073577 -4.746767,5.764083 -4.865419,5.978895 -0.153766,0.278396 0.04007,0.711231 0.674825,1.506934 4.525094,5.672412 9.120933,11.5452 9.120933,11.655172 0,0.07441 -1.412451,0.135275 -3.138782,0.135275 H 34.00836 l -1.570375,-2.032513 c -0.863708,-1.117874 -2.851166,-3.675953 -4.416572,-5.684601 -1.565408,-2.008648 -2.965208,-3.913297 -3.11067,-4.232551 -0.299373,-0.657053 -0.930595,-1.000568 -0.98752,-0.537419 -0.02069,0.168331 -0.0069,2.988572 0.03044,6.267194 0.05654,4.951399 0.008,5.984219 -0.287094,6.097416 -0.729127,0.279798 -4.763841,0.25735 -5.000507,-0.02784 z m 47.61441,0.167169 -2.260396,-0.142458 V 38.615758 26.058 h 2.260396 2.260396 l 0.07008,3.327806 0.07008,3.327806 2.692629,0.002 c 3.222375,0.0023 5.548217,0.345396 6.852881,1.010985 3.073739,1.568109 4.792516,5.607647 4.204736,9.882159 -0.541933,3.941106 -2.677689,6.525347 -6.106006,7.388214 -1.273826,0.320606 -7.089476,0.50536 -10.044794,0.319104 z m 9.085754,-4.307896 c 1.58541,-0.767486 2.21994,-2.222619 2.190779,-5.024002 -0.02722,-2.615319 -0.604725,-3.873835 -2.18521,-4.762118 -0.884193,-0.496946 -1.394227,-0.576754 -3.800508,-0.594709 l -2.779263,-0.02072 -0.06797,5.242275 c -0.04799,3.700623 0.01777,5.345592 0.223602,5.593604 0.452711,0.545484 5.0351,0.235415 6.418577,-0.434317 z m 10.62993,-4.992299 v -9.302168 h 4.726355 c 7.774011,0 8.830751,0.683443 8.834611,5.713782 l 0.001,1.820876 h -2.260352 -2.260398 v -1.479111 c 0,-2.073912 -0.403318,-2.489569 -2.511552,-2.588414 l -1.632509,-0.07654 -0.125578,7.534658 -0.125572,7.534653 -2.323189,0.07221 -2.323181,0.07221 z M 105.46069,50.9923 c -2.20935,-0.783322 -3.24043,-2.412489 -3.22331,-5.093039 0.0174,-2.715851 0.85113,-4.133237 2.97559,-5.058405 0.79479,-0.346116 2.03671,-0.465085 6.02429,-0.57708 l 5.02311,-0.141084 0.0759,-0.907016 c 0.10079,-1.205114 -0.84036,-2.353394 -2.14649,-2.618854 -0.51879,-0.105436 -3.14714,-0.259408 -5.84078,-0.342156 l -4.89752,-0.150461 -0.0766,-1.338952 c -0.12423,-2.170853 -0.35679,-2.101326 6.71586,-2.00772 5.81335,0.07694 6.24202,0.114998 7.42233,0.659023 1.54064,0.710112 2.28232,1.38351 2.96011,2.687649 0.4702,0.904663 0.54309,1.654347 0.73264,7.534658 0.1158,3.591518 0.1502,6.784329 0.0765,7.095132 l -0.13396,0.565098 -7.46708,-0.01987 c -4.58353,-0.01217 -7.75804,-0.122984 -8.22055,-0.286963 z m 10.96744,-4.987553 c 0.0459,-0.977994 -0.007,-1.938665 -0.11748,-2.134818 -0.15665,-0.278175 -0.87506,-0.355327 -3.26501,-0.350657 -3.54682,0.0071 -4.89845,0.255558 -5.51293,1.01406 -0.62028,0.765653 -0.5663,2.107295 0.11014,2.737493 0.50636,0.471744 0.87087,0.512096 4.62576,0.512096 h 4.0761 z m 5.12037,-14.232936 c -0.63583,-0.731368 -1.58053,-1.419091 -2.63713,-1.91978 l -1.64638,-0.78017 -23.231853,-0.125577 -23.231854,-0.125578 -0.07111,-2.992971 c -0.03911,-1.646135 0.02448,-3.088575 0.141332,-3.205425 0.116847,-0.116847 10.325905,-0.210818 22.686789,-0.208817 19.362036,0.0031 22.678796,0.05689 23.950756,0.388194 1.76844,0.460619 3.62142,1.431118 4.51676,2.365654 0.64826,0.676637 0.65277,0.70924 0.58338,4.212997 l -0.0699,3.531084 z M 88.193778,27.880173 c 0.172673,-0.138144 0.313942,-0.410407 0.313942,-0.605032 0,-0.550746 -0.723519,-0.6942 -1.222721,-0.242434 -0.546006,0.494127 -0.786518,0.303001 -0.786518,-0.625011 0,-0.864445 0.328807,-1.090196 0.988138,-0.678437 0.40554,0.253265 0.568837,0.253582 0.820827,0.0016 0.535013,-0.53502 -0.0948,-1.169863 -1.245895,-1.255865 -0.824827,-0.06162 -1.094324,0.03249 -1.418561,0.495404 -0.477787,0.68214 -0.525367,2.212167 -0.08634,2.776502 0.538267,0.69189 1.855682,0.758472 2.637132,0.133277 z m 8.570879,0.01931 c 0.486394,-0.568072 0.984037,-0.584832 1.571772,-0.05293 0.247472,0.223956 0.613732,0.344342 0.813912,0.267524 0.3132,-0.120183 0.30326,-0.335914 -0.0712,-1.546204 -0.23936,-0.773593 -0.612374,-1.583714 -0.82892,-1.800268 -0.562667,-0.562659 -1.343874,-0.2258 -1.701415,0.733654 -0.16559,0.444347 -0.388553,1.034091 -0.495479,1.310544 -0.144323,0.373145 -0.413421,0.496678 -1.044509,0.479499 -0.842192,-0.02293 -0.851261,-0.03577 -0.975673,-1.381685 -0.103862,-1.123529 -0.208177,-1.358541 -0.603066,-1.358541 -0.421061,0 -0.480421,0.206403 -0.502314,1.746519 -0.02357,1.658199 0.0071,1.755353 0.603067,1.921221 1.184042,0.329445 2.816347,0.168262 3.233833,-0.319326 z m 14.912123,-0.141889 c 0.55194,-0.497389 0.57854,-2.017257 0.0486,-2.773907 -0.27771,-0.396493 -0.64628,-0.558194 -1.27229,-0.558194 -1.2278,0 -1.7651,0.354266 -2.10658,1.388975 -0.24606,0.745597 -0.22652,0.993344 0.1201,1.522368 0.74344,1.134628 2.20544,1.326251 3.21021,0.420758 z M 109.7017,26.9054 c -0.53393,-0.589981 -0.21966,-1.349714 0.55832,-1.349714 0.3481,0 0.49531,0.209406 0.55124,0.784195 0.0949,0.975611 -0.47537,1.266287 -1.10956,0.565519 z m 5.61684,0.969233 c 0.19265,-0.150739 0.31394,-0.864425 0.31394,-1.847388 0,-1.43432 -0.0525,-1.601757 -0.50232,-1.601757 -0.43127,0 -0.50285,0.168719 -0.50615,1.192988 -0.007,2.310246 -0.976,2.45936 -1.07448,0.165421 -0.045,-1.047303 -0.12843,-1.232832 -0.55471,-1.232832 -0.41736,0 -0.51434,0.192734 -0.57638,1.145541 -0.0976,1.498417 0.27062,2.433828 1.00291,2.547726 0.70572,0.10976 1.4763,-0.04039 1.89719,-0.369699 z M 73.438413,27.81609 c 0.171964,-0.207203 0.511022,-0.376732 0.753466,-0.376732 0.242443,0 0.581502,0.169529 0.753464,0.376732 0.422113,0.508612 1.004622,0.477075 1.004622,-0.05439 0,-0.516788 -0.738609,-2.575446 -1.088679,-3.03438 -0.52848,-0.69282 -1.210165,-0.203099 -1.824277,1.310563 -0.33177,0.817743 -0.603216,1.637136 -0.603216,1.820872 0,0.450134 0.617395,0.423914 1.00462,-0.04266 z m 6.360648,-0.188366 0.394195,-0.5651 0.01316,0.5651 c 0.01713,0.734902 1.017794,0.811208 1.017794,0.07761 0,-0.760452 0.406705,-0.826031 0.857361,-0.138243 0.38363,0.585495 1.123046,0.822002 1.473681,0.471366 0.08489,-0.08489 -0.01612,-0.414552 -0.224481,-0.732556 -0.303883,-0.463784 -0.318874,-0.674224 -0.07577,-1.063505 0.366111,-0.58624 0.130569,-1.704783 -0.402031,-1.909163 -0.211646,-0.08122 -0.890739,-0.07833 -1.509099,0.0064 l -1.124289,0.1541 v 1.126813 c 0,0.952097 -0.05605,1.080289 -0.361544,0.826757 -0.551499,-0.457704 -1.79005,-0.238091 -1.699475,0.30134 0.10193,0.607041 -0.61166,0.559756 -0.771406,-0.05112 -0.07057,-0.269851 0.01689,-0.689202 0.194348,-0.931893 0.279069,-0.381648 0.416351,-0.398565 1.016264,-0.125227 0.783671,0.357065 1.216684,0.10677 1.078101,-0.623173 -0.120613,-0.635298 -2.014266,-0.783691 -2.867397,-0.224698 -0.480823,0.315049 -0.607373,0.615041 -0.607373,1.439811 0,1.444791 0.530664,1.960439 2.017535,1.960439 0.945913,0 1.266069,-0.114481 1.580408,-0.5651 z m 5.047707,-0.125578 c 0.08047,-0.379872 0.12125,-1.457091 0.09065,-2.39382 -0.04421,-1.353253 -0.1324,-1.688361 -0.429265,-1.631189 -0.929438,0.178992 -1.059463,4.715686 -0.135155,4.715686 0.180117,0 0.393313,-0.310805 0.47377,-0.690677 z m 7.419444,0.204877 c 0.340575,-0.636368 0.331006,-1.846264 -0.02072,-2.618191 -0.310397,-0.681254 -1.180223,-0.950223 -2.196639,-0.679252 -1.172352,0.31254 -1.675293,2.116751 -0.899012,3.225048 0.535697,0.764816 2.718653,0.815527 3.116362,0.0724 z m -2.144839,-1.13244 c -0.178042,-0.70936 0.02235,-1.144474 0.527153,-1.144474 0.520706,0 0.878518,0.806152 0.588126,1.325051 -0.35054,0.626381 -0.936563,0.531497 -1.115279,-0.180577 z m 14.120437,-0.203827 c 0.0203,-0.933068 -0.0787,-1.767873 -0.21981,-1.855124 -0.14117,-0.08725 -0.715,-0.158637 -1.27517,-0.158637 -1.24922,0 -1.93251,0.715277 -1.93251,2.022998 0,1.357972 0.59347,1.850774 2.1213,1.761455 l 1.2693,-0.0742 z m -2.00427,0.650007 c -0.26276,-0.262755 -0.19581,-1.292313 0.0957,-1.472506 0.14475,-0.08946 0.45555,-0.08806 0.69067,0.0031 0.39413,0.152831 0.39074,0.192834 -0.0435,0.512498 -0.27298,0.200943 -0.40829,0.510205 -0.32182,0.735529 0.15063,0.392558 -0.11187,0.530563 -0.42107,0.221363 z m 3.59989,0.684569 c 0,-0.760451 0.4067,-0.82603 0.85736,-0.138243 0.38975,0.594827 1.12418,0.820865 1.4873,0.457747 0.0924,-0.09239 -0.012,-0.366888 -0.23203,-0.609991 -0.34255,-0.378517 -0.35427,-0.568462 -0.0817,-1.322411 0.45734,-1.264733 0.0508,-1.666941 -1.685,-1.666941 h -1.3506 v 1.883665 c 0,1.716225 0.0447,1.883662 0.50231,1.883662 0.32978,0 0.50231,-0.167437 0.50231,-0.487488 z m 11.34731,-0.07761 c 0.0566,-0.398201 0.27653,-0.587825 0.74481,-0.64205 0.36552,-0.04232 0.87036,-0.304342 1.12187,-0.582262 0.41639,-0.460102 0.42356,-0.565571 0.0801,-1.178825 -0.26038,-0.464989 -0.6466,-0.715221 -1.24744,-0.808231 -1.64407,-0.254493 -1.74933,-0.138819 -1.74933,1.922096 0,1.664664 0.0496,1.854371 0.48482,1.854371 0.31159,0 0.51354,-0.201938 0.56511,-0.5651 z"
       id="path3" /></g></svg>
