<?xml version="1.0" encoding="UTF-8" standalone="no"?>
<!-- Created with Inkscape (http://www.inkscape.org/) -->

<svg
   width="176.05353mm"
   height="80.44072mm"
   viewBox="0 0 176.05353 80.44072"
   version="1.1"
   id="svg1"
   xml:space="preserve"
   sodipodi:docname="logo-yamanagold.svg"
   inkscape:version="1.4.3 (0d15f75, 2025-12-25)"
   xmlns:inkscape="http://www.inkscape.org/namespaces/inkscape"
   xmlns:sodipodi="http://sodipodi.sourceforge.net/DTD/sodipodi-0.dtd"
   xmlns="http://www.w3.org/2000/svg"
   xmlns:svg="http://www.w3.org/2000/svg"><sodipodi:namedview
     id="namedview1"
     pagecolor="#505050"
     bordercolor="#eeeeee"
     borderopacity="1"
     inkscape:showpageshadow="0"
     inkscape:pageopacity="0"
     inkscape:pagecheckerboard="0"
     inkscape:deskcolor="#505050"
     inkscape:document-units="mm"
     inkscape:zoom="1.5233586"
     inkscape:cx="325.59635"
     inkscape:cy="92.886863"
     inkscape:window-width="1920"
     inkscape:window-height="1057"
     inkscape:window-x="-8"
     inkscape:window-y="-8"
     inkscape:window-maximized="1"
     inkscape:current-layer="g3" /><defs
     id="defs1" /><g
     inkscape:label="Camada 1"
     inkscape:groupmode="layer"
     id="layer1"
     transform="translate(-18.860332,-89.576601)"><g
       id="g3"><path
         style="fill:#d09d13"
         d="m 133.87134,169.81403 c -3.39353,-0.53397 -5.75642,-2.18577 -6.92927,-4.84396 -0.91737,-2.07915 -0.8093,-6.8743 0.20236,-8.9789 1.43908,-2.99378 4.25257,-4.85054 8.34971,-5.51037 2.27297,-0.36605 6.53462,-0.14871 6.86178,0.34995 0.10686,0.16288 0.12956,0.85063 0.0504,1.52834 l -0.14385,1.23218 -1.46156,-0.84706 c -2.86473,-1.66028 -6.05114,-1.51352 -8.60856,0.3965 -4.2627,3.18361 -3.64456,12.22027 0.99792,14.58869 1.61358,0.82318 4.38398,1.25543 5.78797,0.90305 l 0.93259,-0.23407 -0.10935,-4.04561 -0.10934,-4.0456 1.5875,5.4e-4 1.5875,5.5e-4 -0.12313,4.67445 c -0.0677,2.57095 -0.14936,4.70318 -0.18143,4.73829 -0.20193,0.22109 -7.3886,0.29801 -8.69128,0.093 z m 18.52084,0.0472 c -3.1786,-0.55005 -5.39475,-2.48059 -6.47044,-5.63655 -0.51505,-1.51111 -0.52989,-5.72291 -0.0261,-7.40446 1.74436,-5.82215 8.53533,-8.31115 13.98368,-5.12524 3.67229,2.14737 4.96308,8.89095 2.5848,13.50407 -1.81468,3.51991 -5.85781,5.39143 -10.07195,4.66218 z m 4.78003,-1.90016 c 2.36665,-1.25151 3.30649,-3.3901 3.28551,-7.47611 -0.0188,-3.65899 -0.92185,-6.29702 -2.65482,-7.75522 -2.99863,-2.52318 -7.61425,-0.72741 -8.81361,3.42906 -0.55072,1.90856 -0.55849,5.65968 -0.0156,7.53607 0.8876,3.06782 3.09154,5.07858 5.56786,5.07982 0.60007,3e-4 1.78387,-0.36583 2.63066,-0.81362 z m 22.20747,1.64218 -1.23472,-0.15453 v -9.29579 -9.29579 l 3.96026,-0.24744 c 7.23527,-0.45208 9.72557,0.49073 11.69236,4.42661 2.60502,5.21313 0.48199,11.53528 -4.61503,13.74303 -1.43552,0.62179 -2.63765,0.82762 -5.21676,0.89321 -1.84326,0.0469 -3.90701,0.0157 -4.58611,-0.0693 z m 8.99483,-1.991 c 0.86048,-0.48733 1.75426,-1.41323 2.29306,-2.37545 0.76946,-1.37417 0.88294,-2.0076 0.88294,-4.92823 0,-3.78731 -0.52504,-5.33734 -2.31929,-6.84711 -1.57849,-1.32821 -4.66181,-2.14006 -6.65974,-1.75354 l -1.6043,0.31037 v 7.86254 c 0,6.60523 0.0846,7.91597 0.52916,8.19668 0.29105,0.18378 1.64042,0.33397 2.99862,0.33375 1.91439,-3.1e-4 2.78639,-0.17991 3.87955,-0.79901 z m -114.759399,0.9866 c 0.0072,-0.58208 0.08625,-0.7775 0.175698,-0.43426 0.08944,0.34324 0.08356,0.81949 -0.01307,1.05834 -0.09663,0.23884 -0.169815,-0.042 -0.162626,-0.62408 z M 166.59687,167.815 c 0.14256,-0.92709 0.2592,-5.13849 0.2592,-9.35868 v -7.67306 l 1.71343,1.5e-4 c 1.50795,1.2e-4 1.6784,0.0742 1.42125,0.6175 -0.1607,0.33955 -0.34699,4.3083 -0.41398,8.81945 l -0.12178,8.20208 2.05192,-0.008 c 1.23291,-0.005 2.62925,-0.26993 3.49831,-0.66461 l 1.44638,-0.65686 -0.22567,1.10558 -0.22566,1.10559 -4.8313,0.0981 -4.83129,0.0981 z m -132.886573,0.75443 c 0.01693,-0.41096 0.10052,-0.49456 0.213136,-0.21313 0.101908,0.25466 0.08937,0.55893 -0.02785,0.67615 -0.117226,0.11723 -0.200604,-0.0911 -0.185286,-0.46302 z m 70.555563,-4.93889 c 0.0169,-0.41096 0.10052,-0.49456 0.21313,-0.21313 0.10191,0.25466 0.0894,0.55893 -0.0279,0.67615 -0.11722,0.11723 -0.2006,-0.0911 -0.18528,-0.46302 z m -52.806334,-6.84977 c 0,-2.61937 0.05554,-3.69093 0.123413,-2.38125 0.06788,1.30969 0.06788,3.45282 0,4.7625 -0.06788,1.30969 -0.123413,0.23813 -0.123413,-2.38125 z m -12.91706,3.26902 c 0.829747,-0.0745 2.099747,-0.0735 2.822222,0.002 0.722476,0.0758 0.04359,0.13678 -1.508631,0.1355 -1.552222,-10e-4 -2.143338,-0.0633 -1.313591,-0.13783 z m 38.408949,-0.006 c -0.09039,-0.14552 0.733681,-0.21972 1.831263,-0.16489 3.445462,0.17212 3.861222,0.32178 1.046285,0.37661 -1.492264,0.0291 -2.787161,-0.0662 -2.877548,-0.21172 z m 37.781735,0.006 c 0.82461,-0.0743 2.17399,-0.0743 2.99861,0 0.82462,0.0743 0.14993,0.13504 -1.49931,0.13504 -1.64923,0 -2.32392,-0.0608 -1.4993,-0.13504 z m -10.46729,-6.29749 c 0.0169,-0.41096 0.10052,-0.49455 0.21313,-0.21313 0.10191,0.25466 0.0894,0.55893 -0.0279,0.67616 -0.11722,0.11722 -0.2006,-0.0911 -0.18528,-0.46303 z m -6.201465,-25.0237 c -4.656667,-3.39373 -9.941126,-7.22648 -11.743241,-8.51724 -1.802116,-1.29075 -3.347105,-2.46094 -3.43331,-2.60042 -0.139199,-0.22523 1.426027,-5.20438 7.204747,-22.919061 l 1.668658,-5.115278 h 14.952971 14.95296 l 4.51229,13.934719 c 2.48176,7.6641 4.51332,13.96488 4.51458,14.00173 0.001,0.0368 -3.76802,2.79914 -8.37618,6.13842 -4.60816,3.33927 -9.48972,6.89049 -10.84792,7.8916 -3.02004,2.22602 -4.65546,3.36703 -4.81696,3.36071 -0.0671,-0.003 -3.93193,-2.78145 -8.588595,-6.17518 z m 9.150925,-0.42997 c 1.20091,-10.27806 4.9318,-22.15256 10.11565,-32.19564 1.37617,-2.666162 2.10242,-4.374289 1.64992,-3.880556 -4.44198,4.846659 -10.30821,12.119446 -11.95112,14.816666 -0.28651,0.47037 -0.35859,0.47037 -0.64879,0 -2.03021,-3.29068 -11.947669,-15.36012 -12.317514,-14.990274 -0.08611,0.08611 0.0092,0.358832 0.211821,0.606055 0.66926,0.816635 4.248482,8.155269 5.517726,11.313239 2.706967,6.73512 4.931477,14.96881 6.088197,22.53454 0.34625,2.26475 0.73463,4.05279 0.86306,3.97341 0.12842,-0.0794 0.3404,-1.05922 0.47105,-2.17744 z"
         id="path4" /><path
         style="fill:#3f3b35"
         d="m 98.394095,161.86252 c -5.336359,-7.59945 -5.627416,-7.94463 -5.740664,-6.80812 -0.204341,2.05068 0.15518,13.15879 0.446938,13.80901 0.241328,0.53784 0.07132,0.61737 -1.319795,0.61737 h -1.596807 l 0.394817,-1.32292 c 0.460268,-1.54223 0.578678,-15.37825 0.141898,-16.58056 -0.274988,-0.75695 -0.205113,-0.79375 1.507233,-0.79375 h 1.795589 l 1.983257,3.08681 c 3.049618,4.74652 7.878449,11.37708 8.285569,11.37708 0.4295,0 0.24112,-12.8667 -0.20273,-13.84653 -0.24186,-0.53392 -0.081,-0.61736 1.19002,-0.61736 1.09277,0 1.39648,0.11309 1.18427,0.44097 -0.15697,0.24254 -0.36478,4.4891 -0.46179,9.43681 l -0.17639,8.99583 -0.90503,0.10535 c -0.81489,0.0949 -1.46483,-0.69188 -6.526385,-7.89999 z m -73.942135,3.94567 c 0.180815,-4.88462 -0.824757,-7.98251 -4.21854,-12.99617 l -1.373088,-2.02847 h 1.585218 c 1.442278,0 1.663502,0.11929 2.453402,1.32292 0.726591,1.10716 2.097105,4.26569 3.176271,7.32014 l 0.24928,0.70555 0.524173,-0.70555 c 1.342365,-1.80687 3.688292,-7.0663 3.495138,-7.83588 -0.188704,-0.75186 -0.09333,-0.80718 1.391633,-0.80718 0.876822,0 1.594221,0.11056 1.594221,0.24569 0,0.13512 -1.220469,2.1449 -2.712154,4.46617 -3.468977,5.39821 -4.280561,8.49937 -3.313804,12.66245 l 0.307211,1.32292 h -1.647455 -1.647455 z m 6.948359,2.17328 c 1.224158,-1.96748 5.125927,-10.03666 6.297983,-13.02475 0.507668,-1.29428 0.923033,-2.76271 0.923033,-3.2632 0,-0.85403 0.106035,-0.90997 1.724776,-0.90997 h 1.724775 l 1.999994,5.90903 c 1.099997,3.24996 2.705098,7.39872 3.566892,9.21946 0.861793,1.82073 1.566897,3.36855 1.566897,3.43958 0,0.071 -0.714375,0.12916 -1.5875,0.12916 -0.873125,0 -1.5875,-0.14452 -1.5875,-0.32116 0,-0.17663 -0.651512,-2.00225 -1.447804,-4.05694 l -1.447804,-3.73579 h -3.442173 -3.442174 l -1.116344,2.65946 c -0.613989,1.4627 -1.151937,3.2875 -1.195439,4.05511 l -0.0791,1.39566 -1.69569,0.002 -1.69569,0.002 z m 11.101572,-7.93663 c 0,-0.87194 -2.249327,-6.80642 -2.542746,-6.70861 -0.380168,0.12672 -2.748921,5.73749 -2.748921,6.51126 0,0.33858 0.70286,0.46106 2.645833,0.46106 1.455209,0 2.645834,-0.11867 2.645834,-0.26371 z m 7.940416,8.81857 c 0.957699,-2.32052 1.663897,-14.92169 0.950872,-16.96708 l -0.387918,-1.11278 h 2.052921 2.052921 l 2.419726,7.05786 c 1.330849,3.88183 2.55739,7.01198 2.725645,6.95589 0.168256,-0.0561 1.520745,-3.03368 3.00553,-6.61689 1.484786,-3.5832 2.828042,-6.71335 2.985014,-6.95589 0.164216,-0.25372 1.017747,-0.44097 2.010121,-0.44097 h 1.724718 l -0.384306,1.10242 c -0.255605,0.73323 -0.315388,3.42096 -0.178516,8.0257 0.201952,6.79416 0.502133,9.12356 1.154072,8.95558 1.006171,-0.25924 7.91212,-15.25059 7.91212,-17.17553 0,-0.85187 0.106919,-0.90817 1.724775,-0.90817 h 1.724776 l 1.999994,5.90903 c 1.099996,3.24996 2.705098,7.39872 3.566891,9.21946 0.861794,1.82073 1.566898,3.37767 1.566898,3.45986 0,0.0822 -0.671173,0.10063 -1.491496,0.041 l -1.491495,-0.10847 -1.547584,-3.96875 -1.547583,-3.96875 h -3.438399 -3.438398 l -1.098432,2.61678 c -0.604137,1.43924 -1.202062,3.26486 -1.328722,4.05695 l -0.23029,1.44016 -3.394496,1.3e-4 -3.394496,1.4e-4 0.122742,-7.76125 c 0.06903,-4.36487 -0.01402,-7.76125 -0.189781,-7.76125 -0.171888,0 -1.79637,3.49752 -3.609961,7.77227 -1.813591,4.27475 -3.386651,7.68306 -3.495689,7.57403 -0.109038,-0.10904 -1.495967,-3.56008 -3.082064,-7.66898 -1.586097,-4.1089 -3.062948,-7.53044 -3.281891,-7.60342 -0.499324,-0.16644 -0.561682,12.58948 -0.06993,14.30413 l 0.328152,1.1442 h -1.600617 c -1.386276,0 -1.566498,-0.0827 -1.345827,-0.61737 z m 31.923476,-8.81857 c 0,-0.85284 -2.245986,-6.80753 -2.531733,-6.71229 -0.427963,0.14266 -3.091013,6.52733 -2.831003,6.78734 0.29307,0.29307 5.362736,0.22212 5.362736,-0.0751 z m 24.694447,9.22581 c 0,-0.11557 0.29804,-0.63151 0.66232,-1.14653 2.0117,-2.84416 7.45157,-14.97852 7.45157,-16.62171 0,-0.62302 0.22479,-0.71886 1.686,-0.71886 h 1.68601 l 2.01056,5.98672 c 1.10581,3.29269 2.71752,7.49957 3.58158,9.34861 l 1.57102,3.3619 h -1.51494 -1.51495 l -1.53847,-4.05695 -1.53847,-4.05694 h -3.40166 -3.40166 l -1.11591,2.49568 c -0.61375,1.37263 -1.21221,3.19826 -1.32991,4.05695 l -0.21399,1.56126 h -1.53955 c -0.84675,0 -1.53955,-0.0946 -1.53955,-0.21013 z m 11.90361,-9.40307 c -0.0915,-0.24254 -0.61812,-1.83213 -1.17031,-3.53243 -0.55219,-1.70031 -1.16902,-3.03767 -1.37072,-2.97192 -0.32294,0.10526 -2.96814,5.99552 -3.0002,6.68074 -0.007,0.14552 1.2746,0.26458 2.84758,0.26458 2.1415,0 2.81819,-0.11078 2.69365,-0.44097 z"
         id="path3"
         sodipodi:nodetypes="sssscssscssssssccssscssscsssssscccscssscsssssscccssccccssssssscccssssscssssscsssccccccsscccssssssscsssccsccsssscsscccccccsscssssscss" /></g></g></svg>
