<?xml version="1.0" encoding="UTF-8" standalone="no"?>
<!-- Created with Inkscape (http://www.inkscape.org/) -->

<svg
   width="125mm"
   height="75mm"
   viewBox="0 0 125 75"
   version="1.1"
   id="svg1"
   xml:space="preserve"
   xmlns="http://www.w3.org/2000/svg"
   xmlns:svg="http://www.w3.org/2000/svg"><defs
     id="defs1" /><g
     id="layer1"><g
       id="g1"
       transform="matrix(0.69495136,0,0,0.69495136,-12.274132,-38.392065)"><path
         style="fill:#d09d13"
         d="m 134.58045,149.22193 c -3.39352,-0.53397 -5.75642,-2.18577 -6.92927,-4.84396 -0.91737,-2.07915 -0.8093,-6.8743 0.20236,-8.9789 1.43908,-2.99379 4.25258,-4.85055 8.34971,-5.51037 2.27297,-0.36605 6.53462,-0.14871 6.86178,0.34995 0.10686,0.16288 0.12956,0.85063 0.0504,1.52833 l -0.14385,1.23219 -1.46155,-0.84706 c -2.86473,-1.66028 -6.05115,-1.51352 -8.60857,0.39649 -4.2627,3.18362 -3.64456,12.22028 0.99792,14.58869 1.61358,0.82319 4.38398,1.25543 5.78797,0.90305 l 0.9326,-0.23406 -0.10935,-4.04561 -0.10935,-4.04561 1.5875,5.5e-4 1.5875,5.5e-4 -0.12313,4.67445 c -0.0677,2.57095 -0.14936,4.70318 -0.18143,4.73829 -0.20192,0.22108 -7.3886,0.29801 -8.69128,0.093 z m 18.52084,0.0472 c -3.1786,-0.55005 -5.39475,-2.48059 -6.47044,-5.63655 -0.51505,-1.51111 -0.52989,-5.72291 -0.0261,-7.40447 1.74435,-5.82214 8.53532,-8.31114 13.98367,-5.12523 3.6723,2.14736 4.96308,8.89095 2.5848,13.50407 -1.81468,3.51991 -5.85781,5.39142 -10.07195,4.66218 z m 4.78003,-1.90016 c 2.36665,-1.25151 3.30649,-3.3901 3.28551,-7.47611 -0.0188,-3.65899 -0.92185,-6.29702 -2.65482,-7.75522 -2.99863,-2.52318 -7.61425,-0.72741 -8.81361,3.42906 -0.55072,1.90856 -0.55848,5.65968 -0.0156,7.53607 0.8876,3.06781 3.09155,5.07857 5.56786,5.07982 0.60008,3e-4 1.78387,-0.36583 2.63066,-0.81362 z m 22.20747,1.64217 -1.23472,-0.15452 v -9.29579 -9.29579 l 3.96026,-0.24744 c 7.23527,-0.45208 9.72557,0.49073 11.69236,4.42661 2.60503,5.21312 0.48199,11.53528 -4.61502,13.74303 -1.43553,0.62179 -2.63766,0.82762 -5.21677,0.8932 -1.84326,0.0469 -3.90701,0.0157 -4.58611,-0.0693 z m 8.99483,-1.991 c 0.86048,-0.48733 1.75427,-1.41322 2.29306,-2.37544 0.76946,-1.37417 0.88294,-2.0076 0.88294,-4.92823 0,-3.78731 -0.52503,-5.33734 -2.31929,-6.84711 -1.57849,-1.32821 -4.66181,-2.14006 -6.65974,-1.75354 l -1.6043,0.31037 v 7.86254 c 0,6.60523 0.0846,7.91597 0.52917,8.19668 0.29104,0.18378 1.64041,0.33396 2.99861,0.33374 1.91439,-3.1e-4 2.78639,-0.1799 3.87955,-0.79901 z m -114.759397,0.98661 c 0.0072,-0.58208 0.08625,-0.7775 0.175698,-0.43426 0.08944,0.34324 0.08356,0.81949 -0.01307,1.05833 -0.09663,0.23885 -0.169816,-0.042 -0.162628,-0.62407 z m 92.981757,-0.78383 c 0.14256,-0.92709 0.2592,-5.13849 0.2592,-9.35868 v -7.67306 l 1.71344,1.4e-4 c 1.50794,1.3e-4 1.67839,0.0742 1.42125,0.61751 -0.16071,0.33955 -0.347,4.3083 -0.41398,8.81945 l -0.12179,8.20208 2.05193,-0.008 c 1.2329,-0.005 2.62924,-0.26993 3.4983,-0.66461 l 1.44638,-0.65686 -0.22567,1.10558 -0.22566,1.10558 -4.83129,0.0981 -4.8313,0.0981 z m -132.886571,0.75443 c 0.01693,-0.41097 0.100521,-0.49456 0.213137,-0.21314 0.101907,0.25467 0.08937,0.55894 -0.02785,0.67616 -0.117225,0.11723 -0.200604,-0.0911 -0.185286,-0.46302 z m 70.555561,-4.93889 c 0.0169,-0.41097 0.10052,-0.49456 0.21314,-0.21314 0.1019,0.25467 0.0894,0.55894 -0.0279,0.67616 -0.11723,0.11723 -0.20061,-0.0911 -0.18529,-0.46302 z m -52.806331,-6.84977 c 0,-2.61937 0.05553,-3.69094 0.123412,-2.38125 0.06788,1.30969 0.06788,3.45281 0,4.7625 -0.06788,1.30969 -0.123412,0.23813 -0.123412,-2.38125 z m -12.917061,3.26902 c 0.829747,-0.0745 2.099747,-0.0735 2.822222,0.002 0.722476,0.0758 0.04359,0.13678 -1.50863,0.13549 -1.552223,-0.001 -2.143339,-0.0633 -1.313592,-0.13782 z m 38.408949,-0.006 c -0.09039,-0.14552 0.733681,-0.21973 1.831263,-0.16489 3.445462,0.17212 3.861222,0.32177 1.046286,0.37661 -1.492265,0.0291 -2.787162,-0.0662 -2.877549,-0.21172 z m 37.781733,0.006 c 0.82462,-0.0743 2.17399,-0.0743 2.99861,0 0.82462,0.0743 0.14993,0.13504 -1.49931,0.13504 -1.64923,0 -2.32392,-0.0608 -1.4993,-0.13504 z m -10.46729,-6.29748 c 0.0169,-0.41096 0.10052,-0.49456 0.21314,-0.21313 0.1019,0.25466 0.0894,0.55893 -0.0279,0.67615 -0.11723,0.11723 -0.20061,-0.0911 -0.18529,-0.46302 z M 98.773507,108.1365 c -4.656667,-3.39373 -9.941126,-7.22649 -11.743241,-8.517237 -1.802116,-1.290752 -3.347105,-2.460943 -3.43331,-2.600426 -0.139198,-0.225227 1.426027,-5.204374 7.204747,-22.91906 l 1.668659,-5.115278 h 14.952968 14.95296 l 4.51229,13.934723 c 2.48176,7.664098 4.51332,13.964876 4.51458,14.001728 10e-4,0.03685 -3.76802,2.799139 -8.37618,6.13842 -4.60816,3.33927 -9.48972,6.89049 -10.84792,7.89159 -3.02003,2.22602 -4.65546,3.36703 -4.81696,3.36072 -0.0671,-0.003 -3.93193,-2.78145 -8.588593,-6.17518 z m 9.150933,-0.42997 c 1.2009,-10.278059 4.93179,-22.152562 10.11564,-32.195642 1.37617,-2.666162 2.10243,-4.374289 1.64992,-3.880556 -4.44198,4.846659 -10.3082,12.119449 -11.95111,14.816668 -0.28651,0.470371 -0.3586,0.470371 -0.6488,0 -2.03021,-3.290682 -11.947667,-15.360122 -12.317512,-14.990276 -0.08611,0.08611 0.0092,0.358832 0.211821,0.606055 0.66926,0.816635 4.248482,8.155271 5.517731,11.313237 2.70696,6.735125 4.93147,14.968816 6.08819,22.534544 0.34626,2.26475 0.73463,4.05278 0.86306,3.97341 0.12842,-0.0794 0.3404,-1.05922 0.47106,-2.17744 z"
         id="path2" /><path
         style="fill:#3f3b35"
         d="m 99.103207,141.27042 c -5.336359,-7.59946 -5.627416,-7.94463 -5.740664,-6.80812 -0.204341,2.05068 0.15518,13.15879 0.446938,13.80901 0.241328,0.53784 0.07132,0.61736 -1.319795,0.61736 h -1.596807 l 0.394817,-1.32291 c 0.460268,-1.54223 0.578679,-15.37825 0.141899,-16.58056 -0.274988,-0.75695 -0.205114,-0.79375 1.507232,-0.79375 h 1.795589 l 1.983257,3.0868 c 3.049619,4.74653 7.878447,11.37709 8.285567,11.37709 0.42951,0 0.24112,-12.86671 -0.20273,-13.84653 -0.24186,-0.53392 -0.081,-0.61736 1.19002,-0.61736 1.09277,0 1.39648,0.11309 1.18427,0.44097 -0.15697,0.24254 -0.36478,4.4891 -0.46179,9.43681 l -0.17639,8.99583 -0.90502,0.10535 c -0.8149,0.0949 -1.46484,-0.69189 -6.526393,-7.89999 z m -73.942135,3.94567 c 0.180815,-4.88462 -0.824757,-7.98251 -4.21854,-12.99617 l -1.373088,-2.02847 h 1.585218 c 1.442278,0 1.663502,0.11929 2.453402,1.32292 0.726592,1.10716 2.097105,4.26569 3.176271,7.32014 l 0.24928,0.70555 0.524173,-0.70555 c 1.342366,-1.80688 3.688292,-7.0663 3.495138,-7.83589 -0.188704,-0.75185 -0.09333,-0.80717 1.391633,-0.80717 0.876822,0 1.594221,0.11056 1.594221,0.24568 0,0.13513 -1.220469,2.14491 -2.712154,4.46618 -3.468977,5.39821 -4.280561,8.49937 -3.313804,12.66245 l 0.307211,1.32291 h -1.647455 -1.647455 z m 6.948359,2.17328 c 1.224158,-1.96748 5.125927,-10.03666 6.297983,-13.02476 0.507668,-1.29427 0.923033,-2.76271 0.923033,-3.26319 0,-0.85403 0.106035,-0.90997 1.724776,-0.90997 h 1.724775 l 1.999994,5.90903 c 1.099997,3.24996 2.705098,7.39872 3.566892,9.21945 0.861793,1.82074 1.566897,3.36855 1.566897,3.43959 0,0.071 -0.714375,0.12915 -1.5875,0.12915 -0.873125,0 -1.5875,-0.14451 -1.5875,-0.32115 0,-0.17663 -0.651512,-2.00226 -1.447804,-4.05694 l -1.447804,-3.7358 H 40.401 36.958826 l -1.116344,2.65946 c -0.613989,1.46271 -1.151937,3.28751 -1.195439,4.05512 l -0.0791,1.39566 -1.69569,0.002 -1.69569,0.002 z m 11.101572,-7.93663 c 0,-0.87195 -2.249327,-6.80642 -2.542746,-6.70862 -0.380168,0.12673 -2.748921,5.7375 -2.748921,6.51127 0,0.33858 0.70286,0.46106 2.645834,0.46106 1.455208,0 2.645833,-0.11867 2.645833,-0.26371 z m 7.940416,8.81857 c 0.957699,-2.32052 1.663897,-14.92169 0.950873,-16.96708 l -0.387919,-1.11278 h 2.052921 2.052921 l 2.419726,7.05786 c 1.330849,3.88183 2.55739,7.01198 2.725646,6.95589 0.168255,-0.0561 1.520744,-3.03369 3.005529,-6.61689 1.484786,-3.5832 2.828042,-6.71335 2.985014,-6.95589 0.164216,-0.25373 1.017747,-0.44097 2.010121,-0.44097 h 1.724718 l -0.384306,1.10242 c -0.255605,0.73323 -0.315388,3.42096 -0.178516,8.02569 0.201952,6.79417 0.502133,9.12357 1.154073,8.95559 1.00617,-0.25924 7.912119,-15.2506 7.912119,-17.17553 0,-0.85187 0.106919,-0.90817 1.724775,-0.90817 h 1.724776 l 1.999994,5.90903 c 1.099997,3.24996 2.705098,7.39872 3.566891,9.21945 0.861794,1.82074 1.566898,3.37768 1.566898,3.45987 0,0.0822 -0.671173,0.10063 -1.491495,0.041 l -1.491496,-0.10848 -1.547583,-3.96875 -1.547584,-3.96875 h -3.438399 -3.438398 l -1.098432,2.61679 c -0.604137,1.43923 -1.202062,3.26486 -1.328722,4.05695 l -0.23029,1.44015 -3.394496,1.4e-4 -3.394495,1.4e-4 0.122741,-7.76125 c 0.06903,-4.36487 -0.01402,-7.76125 -0.189781,-7.76125 -0.171888,0 -1.79637,3.49752 -3.609961,7.77227 -1.813591,4.27475 -3.386651,7.68306 -3.495689,7.57402 -0.109038,-0.10903 -1.495967,-3.56007 -3.082064,-7.66897 -1.586097,-4.1089 -3.062948,-7.53044 -3.281891,-7.60342 -0.499324,-0.16645 -0.561682,12.58947 -0.06993,14.30412 l 0.328152,1.1442 h -1.600617 c -1.386276,0 -1.566498,-0.0827 -1.345827,-0.61736 z m 31.923476,-8.81857 c 0,-0.85284 -2.245986,-6.80754 -2.531733,-6.71229 -0.427962,0.14266 -3.091013,6.52733 -2.831002,6.78734 0.293069,0.29307 5.362735,0.22212 5.362735,-0.0751 z m 24.694445,9.22581 c 0,-0.11557 0.29805,-0.63151 0.66232,-1.14653 2.0117,-2.84416 7.45157,-14.97853 7.45157,-16.62172 0,-0.62301 0.22479,-0.71885 1.68601,-0.71885 h 1.686 l 2.01056,5.98672 c 1.10581,3.29269 2.71752,7.49957 3.58158,9.34861 l 1.57102,3.36189 h -1.51494 -1.51495 l -1.53847,-4.05694 -1.53847,-4.05695 h -3.40166 -3.40166 l -1.11591,2.49569 c -0.61375,1.37263 -1.21221,3.19825 -1.32991,4.05695 l -0.21399,1.56125 h -1.53955 c -0.84675,0 -1.53955,-0.0945 -1.53955,-0.21012 z m 11.90361,-9.40307 c -0.0915,-0.24254 -0.61811,-1.83213 -1.17031,-3.53244 -0.55219,-1.7003 -1.16901,-3.03766 -1.37072,-2.97191 -0.32293,0.10526 -2.96814,5.99551 -3.0002,6.68074 -0.007,0.14552 1.27461,0.26458 2.84759,0.26458 2.14149,0 2.81818,-0.11078 2.69364,-0.44097 z"
         id="path1" /></g></g></svg>
