<?xml version="1.0" encoding="UTF-8" standalone="no"?>
<!-- Created with Inkscape (http://www.inkscape.org/) -->

<svg
   width="125mm"
   height="75mm"
   viewBox="0 0 125 75"
   version="1.1"
   id="svg1"
   xml:space="preserve"
   inkscape:version="1.4.3 (0d15f75, 2025-12-25)"
   sodipodi:docname="logo-enseada.svg"
   xmlns:inkscape="http://www.inkscape.org/namespaces/inkscape"
   xmlns:sodipodi="http://sodipodi.sourceforge.net/DTD/sodipodi-0.dtd"
   xmlns="http://www.w3.org/2000/svg"
   xmlns:svg="http://www.w3.org/2000/svg"><sodipodi:namedview
     id="namedview1"
     pagecolor="#505050"
     bordercolor="#eeeeee"
     borderopacity="1"
     inkscape:showpageshadow="0"
     inkscape:pageopacity="0"
     inkscape:pagecheckerboard="0"
     inkscape:deskcolor="#505050"
     inkscape:document-units="mm"
     inkscape:zoom="0.76167929"
     inkscape:cx="395.83589"
     inkscape:cy="351.19768"
     inkscape:window-width="1920"
     inkscape:window-height="1057"
     inkscape:window-x="-8"
     inkscape:window-y="-8"
     inkscape:window-maximized="1"
     inkscape:current-layer="layer1" /><defs
     id="defs1" /><g
     inkscape:label="Camada 1"
     inkscape:groupmode="layer"
     id="layer1"><path
       style="fill:#cf1743"
       d="m 76.003892,56.064626 c -0.5579,-0.557901 -0.51655,-1.308789 0.0848,-1.539543 0.27225,-0.104474 2.69319,-0.235623 5.379859,-0.291443 7.848178,-0.163058 15.856602,-0.647404 15.104341,-0.913504 C 96.190923,53.18502 90.893978,53.044721 84.801903,53.00836 78.069302,52.96817 73.461322,52.800919 73.052032,52.581873 c -0.65739,-0.351824 -0.65565,-0.387032 0.0731,-1.483784 0.41057,-0.617875 0.91135,-1.559972 1.11285,-2.093548 0.32487,-0.860251 0.55226,-0.973197 2.00755,-0.997131 0.90265,-0.01485 1.87931,-0.07265 2.17035,-0.128464 0.29104,-0.05581 1.48167,-0.213862 2.64583,-0.351225 1.938841,-0.228769 6.106016,-1.471464 6.526393,-1.946237 0.09701,-0.109568 0.75972,-0.589531 1.472679,-1.066586 0.712959,-0.477054 1.221085,-0.989055 1.129169,-1.137779 -0.09192,-0.148724 0.379187,-0.816716 1.046898,-1.484426 1.110974,-1.110974 2.783767,-4.112466 3.330716,-5.976301 0.253782,-0.864812 0.312439,-7.190961 0.0839,-9.048659 -0.08354,-0.679097 -0.418904,-1.683565 -0.745245,-2.232151 -0.32634,-0.548586 -0.516184,-1.292494 -0.421876,-1.65313 0.114435,-0.4376 -0.35576,-1.220578 -1.413603,-2.35396 l -1.585073,-1.69826 13.89705,-0.108874 c 15.11688,-0.118431 14.44443,-0.212945 13.32435,1.872763 -0.31259,0.582084 -1.21433,2.328334 -2.00385,3.880556 -0.78952,1.552223 -1.56466,2.875139 -1.72253,2.939815 -0.15787,0.06468 -0.28703,0.342489 -0.28703,0.617361 0,0.274873 -0.13891,0.499769 -0.30868,0.499769 -0.16978,0 -0.396,0.436563 -0.50272,0.970139 -0.10672,0.533576 -0.58926,1.55254 -1.07232,2.264363 -0.48307,0.711823 -0.78601,1.38651 -0.67322,1.499305 0.1128,0.112795 -0.0689,0.205082 -0.4037,0.205082 -0.33483,0 -0.50847,0.16231 -0.38586,0.360689 0.32012,0.517963 -2.04056,5.308071 -2.52773,5.129071 -0.22339,-0.08208 -0.36562,0.11758 -0.31606,0.443695 0.12747,0.838739 -0.91115,2.899277 -1.33069,2.639986 -0.19203,-0.118683 -0.24883,-0.05348 -0.12623,0.144904 0.12261,0.19838 -0.0847,0.976971 -0.4606,1.730202 -0.37594,0.75323 -0.68985,1.218684 -0.69758,1.034342 -0.008,-0.184343 -0.75164,0.688783 -1.65313,1.940278 -0.90149,1.251495 -1.93336,2.559443 -2.29305,2.90655 -0.3597,0.347107 -0.67383,0.783669 -0.69808,0.970139 -0.0243,0.186469 -0.0639,0.490951 -0.0882,0.676627 -0.075,0.573783 -1.397563,1.358587 -1.939274,1.150713 -0.312006,-0.119728 -0.420804,-0.04691 -0.277164,0.185503 0.130052,0.210428 0.03703,0.476972 -0.206712,0.592319 -0.243744,0.115347 0.147664,0.139613 0.869796,0.05392 1.671534,-0.198345 4.240374,-1.95906 5.617224,-3.85011 0.58808,-0.807704 2.55496,-4.405429 4.37086,-7.994943 1.81589,-3.589514 4.94028,-9.70139 6.94307,-13.581946 l 3.64145,-7.055556 h 1.75721 c 1.71734,0 1.75969,0.02551 1.86609,1.124095 0.0827,0.853825 -0.65018,2.592624 -3.04816,7.231945 -1.73637,3.359318 -3.71258,7.084376 -4.39158,8.277906 -0.67899,1.193531 -1.83541,3.416031 -2.56982,4.93889 -3.71446,7.702254 -6.42956,11.500493 -9.3257,13.046031 -1.13277,0.604507 -2.30048,0.665114 -14.141859,0.733999 -9.427684,0.05484 -13.017724,-0.0355 -13.317364,-0.335139 z M 108.75478,19.812177 c 0,-0.194028 -0.23813,-0.352778 -0.52917,-0.352778 -0.29104,0 -0.52916,0.15875 -0.52916,0.352778 0,0.194027 0.23812,0.352777 0.52916,0.352777 0.29104,0 0.52917,-0.15875 0.52917,-0.352777 z m 1.41111,0 c 0,-0.194028 -0.15875,-0.352778 -0.35278,-0.352778 -0.19403,0 -0.35278,0.15875 -0.35278,0.352778 0,0.194027 0.15875,0.352777 0.35278,0.352777 0.19403,0 0.35278,-0.15875 0.35278,-0.352777 z M 2.2107523,53.595498 c -0.003,-0.148186 -0.007,-8.075759 -0.0103,-17.616829 l -0.005,-17.3474 9.7998497,0.08082 c 5.38993,0.04445 10.40417,0.239322 11.14277,0.433046 1.44771,0.37971 4.12515,2.556586 4.12515,3.353923 0,0.268464 0.32726,0.815378 0.72724,1.215363 0.39999,0.399985 0.67557,0.995297 0.6124,1.322916 -0.10386,0.538701 -0.98828,0.601949 -9.24734,0.661312 -7.09086,0.05097 -9.20254,0.169265 -9.4457697,0.529167 -0.38038,0.562832 -0.22405,5.757498 0.1856197,6.168109 0.16059,0.160952 2.81905,0.346275 5.90769,0.411828 l 5.61571,0.119189 -0.005,2.703034 c -0.003,1.486669 -0.12203,2.877488 -0.26458,3.090709 -0.15709,0.234966 -2.33366,0.475134 -5.52555,0.609703 -2.90615,0.122521 -5.433,0.388653 -5.63816,0.59382 -0.5492697,0.549264 -0.7144297,5.399988 -0.2155997,6.332055 0.4172597,0.779647 0.4288597,0.78045 9.5615197,0.662004 l 9.14376,-0.11859 -2.2e-4,0.970139 c -1.1e-4,0.533577 -0.27802,1.272516 -0.61757,1.642088 -0.33955,0.369571 -0.88623,1.062257 -1.21484,1.539302 -0.32861,0.477044 -1.36048,1.237057 -2.29305,1.688917 -1.50169,0.727615 -2.3007,0.834189 -6.98725,0.93197 -13.0758097,0.272817 -15.3461497,0.276278 -15.3509697,0.0234 z m 29.9831397,0.161611 c -0.004,-0.140058 -0.008,-8.104427 -0.007,-17.698597 l 6.6e-4,-17.443945 9.97342,0.09201 c 5.71194,0.05269 10.5233,0.252435 11.26034,0.46747 1.63218,0.476197 2.7571,1.520293 3.65197,3.38956 0.38806,0.810597 0.91504,1.475635 1.17107,1.477861 0.28018,0.0024 0.42063,0.320044 0.35278,0.797797 l -0.11274,0.793751 -9.12616,0.07153 c -5.01939,0.03935 -9.22627,0.172036 -9.34861,0.29487 -0.33246,0.333786 -0.26861,6.055492 0.0714,6.395399 0.16159,0.161564 2.88851,0.293753 6.0598,0.293753 h 5.766 l 0.11774,2.469444 c 0.0648,1.358195 0.0289,2.945695 -0.0798,3.527779 l -0.19757,1.058333 -5.30011,-0.131808 c -2.91507,-0.0725 -5.64575,-0.02211 -6.06819,0.111967 -0.70706,0.224411 -0.76807,0.474728 -0.76807,3.151188 0,1.794272 0.17162,3.142112 0.44825,3.520425 0.40351,0.55183 1.37082,0.620177 9.69195,0.684788 l 9.24371,0.07177 -0.14414,0.796776 c -0.27565,1.523715 -0.59271,2.201835 -1.02948,2.201835 -0.24167,0 -0.89523,0.475793 -1.45237,1.057317 -1.98361,2.070443 -3.53331,2.349408 -14.37667,2.587985 -5.38427,0.118465 -9.79323,0.100798 -9.79769,-0.03926 z m 29.98504,-0.166457 c -0.005,-0.04851 -0.0172,-7.944598 -0.027,-17.546868 l -0.0178,-17.458674 8.05272,0.109165 c 10.40364,0.141034 12.806868,0.641741 15.833084,3.298794 1.439389,1.2638 3.022633,4.204491 3.691879,6.857236 0.367665,1.457344 0.370778,2.240886 0.01612,4.056945 -0.982182,5.029313 -2.629662,6.969173 -7.67584,9.038083 -2.824981,1.15823 -3.507181,1.292242 -7.516691,1.476593 l -4.40972,0.202753 -0.20695,2.161791 c -0.11383,1.188985 -0.51824,2.694784 -0.8987,3.34622 -0.84922,1.454071 -3.40996,3.456085 -4.76803,3.727698 -0.55302,0.110603 -1.00549,0.340004 -1.00549,0.509778 0,0.261107 -1.04089,0.476095 -1.06751,0.220486 z M 79.372472,35.65105 c 4.241067,-2.053067 3.470178,-8.645764 -1.1469,-9.808358 -1.68522,-0.424342 -5.4461,-0.511148 -7.17392,-0.165584 l -1.10243,0.220486 v 5.012385 c 0,2.756811 0.10584,5.118218 0.23519,5.24757 0.12935,0.129351 1.90485,0.235185 3.94556,0.235185 3.04961,0 3.98323,-0.132084 5.2425,-0.741684 z"
       id="path1" /></g></svg>
