<?xml version="1.0" standalone="no"?>
<!DOCTYPE svg PUBLIC "-//W3C//DTD SVG 20010904//EN"
 "http://www.w3.org/TR/2001/REC-SVG-20010904/DTD/svg10.dtd">
<svg version="1.0" xmlns="http://www.w3.org/2000/svg"
 width="330.000000pt" height="104.000000pt" viewBox="0 0 330.000000 104.000000"
 preserveAspectRatio="xMidYMid meet">

<g transform="translate(0.000000,104.000000) scale(0.100000,-0.100000)"
fill="#000000" stroke="none">
<path d="M1360 781 l0 -260 43 -5 c23 -2 112 -12 197 -21 l155 -16 17 21 c24
29 38 84 38 146 0 94 -37 165 -104 195 -55 25 -93 24 -149 -5 l-47 -23 0 113
0 114 -75 0 -75 0 0 -259z m265 -46 c33 -33 36 -119 4 -159 -28 -35 -70 -35
-98 0 -32 40 -29 126 4 159 13 14 34 25 45 25 12 0 32 -11 45 -25z"/>
<path d="M369 844 c-158 -48 -196 -299 -59 -390 l39 -26 88 20 c48 11 108 23
131 27 39 6 43 10 38 29 -3 11 -6 25 -6 29 0 5 -14 6 -31 2 -78 -17 -181 -1
-193 31 -4 12 18 14 129 14 l135 0 0 63 c-1 105 -52 183 -135 206 -51 14 -79
13 -136 -5z m111 -104 c38 -38 27 -50 -45 -50 -72 0 -78 8 -40 45 29 30 58 32
85 5z"/>
<path d="M876 850 c-16 -5 -38 -18 -51 -30 -23 -22 -35 -18 -35 12 0 16 -9 18
-65 18 l-65 0 2 -177 3 -178 45 2 c25 2 60 5 78 8 l32 6 0 97 c0 107 7 122 52
122 38 0 48 -25 48 -124 l0 -86 75 0 75 0 0 83 c0 97 15 130 58 125 38 -4 52
-40 52 -130 l0 -78 76 0 77 0 -5 113 c-4 88 -9 121 -26 153 -23 45 -70 74
-119 74 -34 0 -103 -30 -122 -54 -13 -15 -15 -15 -29 5 -28 41 -94 57 -156 39z"/>
<path d="M1945 850 c-22 -4 -52 -13 -66 -18 -26 -10 -26 -12 -16 -57 9 -41 13
-46 31 -40 44 15 146 17 161 5 25 -21 17 -27 -46 -34 -140 -14 -225 -119 -176
-216 14 -28 52 -38 182 -45 44 -3 110 -8 148 -11 l67 -7 0 129 c-1 185 -17
235 -87 277 -36 21 -140 30 -198 17z m128 -270 c-2 -38 -24 -60 -60 -60 -31 0
-52 42 -32 66 17 21 48 34 74 31 16 -2 20 -9 18 -37z"/>
<path d="M2383 850 c-99 -23 -151 -120 -105 -195 19 -30 51 -51 125 -80 28
-10 38 -20 35 -32 -4 -23 -52 -28 -110 -13 -24 7 -45 12 -48 12 -2 -1 -10 -22
-17 -49 -9 -37 -9 -49 0 -55 7 -4 64 -8 127 -8 97 0 120 3 144 19 39 26 55 57
56 108 0 59 -40 103 -120 132 -45 17 -60 27 -58 39 4 21 66 28 108 14 27 -10
28 -9 39 33 16 63 16 62 -39 74 -57 12 -90 13 -137 1z"/>
<path d="M2717 847 c-76 -18 -82 -24 -66 -76 11 -36 16 -41 33 -36 12 4 50 9
86 12 52 4 69 2 79 -11 16 -19 11 -21 -64 -30 -67 -8 -130 -41 -155 -80 -26
-43 -26 -111 0 -153 17 -28 25 -33 59 -33 37 0 250 25 299 36 21 4 22 8 22
127 0 146 -18 197 -82 230 -48 24 -137 30 -211 14z m143 -261 c0 -40 -22 -66
-54 -66 -54 0 -60 70 -9 88 52 19 63 15 63 -22z"/>
<path d="M570 403 c-101 -10 -206 -27 -295 -48 -97 -23 -220 -63 -213 -70 2
-2 46 3 98 11 125 18 393 18 578 -1 274 -29 512 -72 886 -161 419 -101 643
-129 934 -121 214 6 313 23 439 73 94 37 223 121 223 144 0 5 -26 0 -57 -11
-313 -108 -821 -81 -1528 81 -338 78 -599 111 -862 108 -92 0 -184 -3 -203 -5z"/>
</g>
</svg>
