<?xml version="1.0" encoding="UTF-8" standalone="no"?>
<!-- Created with Inkscape (http://www.inkscape.org/) -->

<svg
   width="125mm"
   height="75mm"
   viewBox="0 0 125 75"
   version="1.1"
   id="svg1"
   xml:space="preserve"
   inkscape:version="1.4.3 (0d15f75, 2025-12-25)"
   sodipodi:docname="logo-embasa.svg"
   xmlns:inkscape="http://www.inkscape.org/namespaces/inkscape"
   xmlns:sodipodi="http://sodipodi.sourceforge.net/DTD/sodipodi-0.dtd"
   xmlns="http://www.w3.org/2000/svg"
   xmlns:svg="http://www.w3.org/2000/svg"><sodipodi:namedview
     id="namedview1"
     pagecolor="#505050"
     bordercolor="#eeeeee"
     borderopacity="1"
     inkscape:showpageshadow="0"
     inkscape:pageopacity="0"
     inkscape:pagecheckerboard="0"
     inkscape:deskcolor="#505050"
     inkscape:document-units="mm"
     inkscape:zoom="0.53858859"
     inkscape:cx="362.98578"
     inkscape:cy="437.25397"
     inkscape:window-width="1920"
     inkscape:window-height="1057"
     inkscape:window-x="-8"
     inkscape:window-y="-8"
     inkscape:window-maximized="1"
     inkscape:current-layer="layer1" /><defs
     id="defs1" /><g
     inkscape:label="Camada 1"
     inkscape:groupmode="layer"
     id="layer1"><path
       style="fill:#074086;stroke-width:1.07434"
       d="M 88.253382,56.852692 C 79.97622,56.294743 72.127325,54.872878 56.128208,51.03306 49.089635,49.343792 36.700012,47.129243 28.957471,46.176492 22.990598,45.442242 7.5525629,45.559937 3.9687396,46.366994 2.4194292,46.7159 1.0886191,46.938171 1.0113856,46.860937 0.93415129,46.783687 2.3667218,46.179275 4.1948743,45.517778 12.1675,42.632947 20.455157,41.535105 32.179015,41.810825 c 10.950158,0.25752 17.05672,1.152138 33.920963,4.969482 13.197714,2.987389 24.628236,4.403248 35.520962,4.399821 7.995,-0.0021 12.9671,-0.598862 17.40014,-2.086981 1.59017,-0.533811 2.96249,-0.899314 3.04956,-0.812237 0.0871,0.08713 -0.57466,0.786689 -1.47056,1.554685 -4.69513,4.024874 -11.29197,6.232288 -20.974819,7.01857 -5.189513,0.421402 -5.098526,0.421412 -11.371879,-0.001 z m 0.77641,-7.826638 c -6.9513,-0.45723 -15.351344,-1.892309 -28.407309,-4.853151 -9.375725,-2.126237 -17.507321,-3.206611 -26.358939,-3.502066 -6.909391,-0.23063 -7.475874,-0.2958 -5.11657,-0.588613 6.486497,-0.80504 24.804669,0.178417 33.541959,1.800775 10.036142,1.863539 21.259794,2.849197 32.404942,2.845802 10.999595,-0.0031 19.610615,-0.911894 26.702235,-2.81731 1.13679,-0.305437 2.12004,-0.502203 2.18499,-0.437259 0.24903,0.249034 -3.99322,2.783781 -6.52593,3.89923 -6.66142,2.933811 -17.730011,4.356106 -28.425378,3.652592 z M 88.08228,41.092077 c -2.973621,-0.354126 -3.110093,-0.439622 -2.821291,-1.767632 0.629106,-2.892836 0.698553,-2.954868 2.587776,-2.311143 2.218576,0.755943 4.213069,0.584294 4.213069,-0.362579 0,-0.497735 -0.652329,-0.962948 -2.274032,-1.621747 -2.979151,-1.21025 -4.015228,-2.275373 -4.244051,-4.363035 -0.21805,-1.989369 0.845485,-3.827964 2.918821,-5.045938 1.413204,-0.830181 5.53125,-1.084999 7.712553,-0.477241 1.006469,0.280423 1.064053,0.398386 0.832553,1.705523 -0.477751,2.697592 -0.479351,2.699483 -1.946045,2.294509 -1.764393,-0.487173 -3.757809,-0.277654 -3.757809,0.394966 0,0.589973 0.227032,0.736336 3.322252,2.141781 2.42983,1.103312 3.310342,2.308803 3.310342,4.532117 0,1.677193 -0.796874,3.290495 -2.021693,4.093031 -0.957563,0.627417 -5.41391,1.07541 -7.832445,0.787388 z M 11.6705,40.227304 C 10.053821,39.241485 8.976236,37.618019 8.4857021,35.429159 7.0409816,28.982521 12.540094,23.347594 18.674827,24.988386 c 3.584059,0.958588 5.037521,3.028345 5.286426,7.527971 l 0.152002,2.747793 h -5.24222 -5.242218 l 0.854672,0.852762 c 0.76727,0.765547 1.223159,0.852203 4.457986,0.847347 3.450861,-0.0053 3.612614,0.03169 3.823131,0.870413 0.1209,0.481704 0.155085,0.940557 0.07596,1.019671 -0.114331,0.114333 -9.485069,2.098832 -9.885243,2.09346 -0.05806,-7.73e-4 -0.636242,-0.325 -1.28483,-0.720499 z m 7.053831,-9.303886 c 0,-0.611138 -0.962074,-2.102361 -1.356355,-2.102361 -0.262172,0 -0.738868,-0.100613 -1.059327,-0.223586 -0.600659,-0.230494 -2.511386,1.368293 -2.511386,2.101383 0,0.235002 1.002442,0.396234 2.463535,0.396234 1.354943,0 2.463533,-0.07725 2.463533,-0.17167 z m 60.643977,9.656765 c -0.310947,-0.196583 -0.925563,-0.267028 -1.365812,-0.156532 -0.44025,0.110497 -2.403018,0.02331 -4.361708,-0.193694 -4.425877,-0.490385 -5.05644,-1.031748 -4.800245,-4.121125 0.136484,-1.645821 0.396912,-2.243899 1.450347,-3.330768 1.392536,-1.436734 4.062616,-2.440987 6.490024,-2.440987 1.532217,0 1.812509,-0.362041 0.87967,-1.13623 -0.561432,-0.465947 -3.658399,-0.361187 -5.915616,0.200105 -0.911424,0.226639 -1.019753,0.118905 -1.404472,-1.39677 -0.22928,-0.903293 -0.279244,-1.779981 -0.111029,-1.948195 0.526364,-0.526365 4.319992,-1.394882 6.103652,-1.397376 3.875603,-0.0053 6.715691,1.783541 7.538923,4.748738 0.228776,0.82403 0.416909,3.758057 0.418071,6.520059 l 0.0021,5.021813 -2.17928,-0.0053 c -1.198602,-0.0031 -2.433691,-0.166641 -2.744638,-0.363236 z M 77.560535,37.06442 c 0.757503,-0.584207 1.075222,-3.144244 0.383355,-3.088894 -0.260566,0.02084 -0.896205,0.0635 -1.412532,0.09475 -1.293703,0.07832 -2.292302,1.629803 -1.727862,2.684467 0.470711,0.879534 1.821428,1.031254 2.757039,0.309669 z m 21.887746,2.274035 c -0.981319,-1.609477 -0.985519,-4.258233 -0.0092,-5.859298 0.971049,-1.592579 3.241009,-2.715907 6.089919,-3.013675 1.82817,-0.191082 2.27157,-0.363677 2.17708,-0.847438 -0.0946,-0.484134 -0.61749,-0.605107 -2.57532,-0.595775 -1.35117,0.0065 -2.91343,0.149763 -3.47167,0.318496 -0.94208,0.284745 -1.04404,0.202213 -1.41916,-1.148725 -0.602486,-2.169766 -0.557486,-2.2612 1.39188,-2.827525 2.79499,-0.811997 7.58245,-0.689058 9.15125,0.234998 2.58138,1.520482 2.86823,2.299382 3.00532,8.160532 0.14325,6.125543 0.92325,5.312994 -5.98253,6.232106 -6.66513,0.887087 -7.45575,0.825247 -8.357465,-0.653696 z m 8.028159,-2.427526 c 0.41442,-0.375055 0.6931,-1.149099 0.6931,-1.925142 0,-1.265321 -0.031,-1.291319 -1.23177,-1.036098 -2.17532,0.462344 -3.2194,2.01776 -2.10348,3.133683 0.64183,0.641825 1.82793,0.564418 2.64215,-0.172443 z M 60.225399,38.47163 c -2.084529,-0.269102 -4.642814,-0.506274 -5.685078,-0.527041 -1.042265,-0.02074 -2.278769,-0.140601 -2.747789,-0.266288 l -0.85276,-0.228534 v -9.80993 -9.809932 h 3.032042 3.03204 v 4.384368 4.384368 L 58.22938,25.72599 c 1.859412,-1.32402 5.359951,-1.252289 7.196807,0.14747 0.744814,0.567579 1.733967,1.816443 2.198122,2.775256 0.714792,1.476564 0.81777,2.194928 0.67304,4.695052 -0.115829,2.000862 -0.411688,3.365581 -0.918403,4.236338 -0.893731,1.53583 -1.539332,1.616288 -7.153547,0.891524 z m 1.154243,-3.000754 c 0.759475,-0.759477 0.930284,-1.308478 0.930284,-2.990055 0,-2.565897 -0.841814,-3.786101 -2.612022,-3.786101 -1.770232,0 -2.428439,0.879853 -2.617926,3.499488 -0.147117,2.033854 -0.06631,2.356201 0.810519,3.233028 1.222535,1.22253 2.296815,1.23597 3.489145,0.04362 z M 24.788414,31.876047 v -6.845042 h 2.422446 c 2.298987,0 2.435181,0.05073 2.672298,0.995484 l 0.24985,0.995483 0.833501,-0.75862 c 1.289267,-1.17344 2.360025,-1.61148 3.935377,-1.609936 1.545785,0.0015 3.789086,1.138247 4.161494,2.108722 0.189069,0.492703 0.389721,0.433931 1.21904,-0.357062 2.72746,-2.601416 6.934924,-2.246341 8.781242,0.741064 0.772261,1.249544 0.913989,2.046832 1.052012,5.918066 l 0.159514,4.473969 h -2.889252 -2.889253 l -0.0056,-2.937293 c -0.0066,-3.430977 -0.541195,-4.783474 -1.956325,-4.948703 -1.619744,-0.18912 -2.207144,1.074701 -2.207144,4.748788 v 3.137208 H 37.52166 34.715706 L 34.58437,33.923421 c -0.137849,-3.793976 -0.388744,-4.326176 -2.045313,-4.338551 -1.417182,-0.01064 -1.686573,0.723471 -1.686573,4.595695 0,2.030535 -0.127915,3.765184 -0.284253,3.854785 -0.156341,0.0896 -1.52076,0.280533 -3.032042,0.424322 l -2.747788,0.26142 z"
       id="path7" /></g></svg>
